<svg xmlns="http://www.w3.org/2000/svg" width="0" height="0" style="position:absolute">
  <defs>
    <!-- Nav sidebar icons -->
    <symbol id="i-home" viewBox="0 0 24 24" fill="none" stroke="currentColor" stroke-width="1.8" stroke-linecap="round" stroke-linejoin="round"><path d="M3 11l9-8 9 8v10a2 2 0 0 1-2 2h-4v-6H9v6H5a2 2 0 0 1-2-2z"/></symbol>
    <symbol id="i-brain" viewBox="0 0 24 24" fill="none" stroke="currentColor" stroke-width="1.8" stroke-linecap="round" stroke-linejoin="round"><path d="M9.5 3A3 3 0 0 0 6.5 6c0 .7.2 1.3.6 1.9A3 3 0 0 0 4 10.5c0 1.1.6 2 1.5 2.5-.9.5-1.5 1.4-1.5 2.5a3 3 0 0 0 3 3c.4 0 .7 0 1-.2.1 1.8 1.6 3.2 3.5 3.2s3.4-1.4 3.5-3.2c.3.1.6.2 1 .2a3 3 0 0 0 3-3c0-1.1-.6-2-1.5-2.5.9-.5 1.5-1.4 1.5-2.5a3 3 0 0 0-3.1-2.6c.4-.6.6-1.2.6-1.9A3 3 0 0 0 14.5 3c-1 0-1.9.4-2.5 1.1A3 3 0 0 0 9.5 3zM12 4v17"/></symbol>
    <symbol id="i-chart" viewBox="0 0 24 24" fill="none" stroke="currentColor" stroke-width="1.8" stroke-linecap="round" stroke-linejoin="round"><path d="M3 3v18h18M7 16l4-5 4 3 5-7"/></symbol>
    <symbol id="i-history" viewBox="0 0 24 24" fill="none" stroke="currentColor" stroke-width="1.8" stroke-linecap="round" stroke-linejoin="round"><path d="M12 8v4l3 2M21 12a9 9 0 1 1-3-6.7M21 3v6h-6"/></symbol>
    <symbol id="i-crosshair" viewBox="0 0 24 24" fill="none" stroke="currentColor" stroke-width="1.8" stroke-linecap="round" stroke-linejoin="round"><circle cx="12" cy="12" r="9"/><path d="M12 3v4M12 17v4M3 12h4M17 12h4"/></symbol>
    <symbol id="i-gear" viewBox="0 0 24 24" fill="none" stroke="currentColor" stroke-width="1.8" stroke-linecap="round" stroke-linejoin="round"><circle cx="12" cy="12" r="3"/><path d="M19.4 15a1.7 1.7 0 0 0 .3 1.8l.1.1a2 2 0 1 1-2.8 2.8l-.1-.1a1.7 1.7 0 0 0-1.8-.3 1.7 1.7 0 0 0-1 1.5V21a2 2 0 1 1-4 0v-.1A1.7 1.7 0 0 0 9 19.4a1.7 1.7 0 0 0-1.8.3l-.1.1a2 2 0 1 1-2.8-2.8l.1-.1a1.7 1.7 0 0 0 .3-1.8 1.7 1.7 0 0 0-1.5-1H3a2 2 0 1 1 0-4h.1A1.7 1.7 0 0 0 4.6 9a1.7 1.7 0 0 0-.3-1.8l-.1-.1a2 2 0 1 1 2.8-2.8l.1.1a1.7 1.7 0 0 0 1.8.3H9a1.7 1.7 0 0 0 1-1.5V3a2 2 0 1 1 4 0v.1a1.7 1.7 0 0 0 1 1.5 1.7 1.7 0 0 0 1.8-.3l.1-.1a2 2 0 1 1 2.8 2.8l-.1.1a1.7 1.7 0 0 0-.3 1.8V9a1.7 1.7 0 0 0 1.5 1H21a2 2 0 1 1 0 4h-.1a1.7 1.7 0 0 0-1.5 1z"/></symbol>
    <symbol id="i-help" viewBox="0 0 24 24" fill="none" stroke="currentColor" stroke-width="1.8" stroke-linecap="round" stroke-linejoin="round"><circle cx="12" cy="12" r="9"/><path d="M9.1 9a3 3 0 0 1 5.8 1c0 2-3 3-3 3M12 17h0"/></symbol>
    <symbol id="i-user" viewBox="0 0 24 24" fill="none" stroke="currentColor" stroke-width="1.8" stroke-linecap="round" stroke-linejoin="round"><path d="M20 21v-2a4 4 0 0 0-4-4H8a4 4 0 0 0-4 4v2"/><circle cx="12" cy="7" r="4"/></symbol>
    <!-- Game icons -->
    <symbol id="i-bomb" viewBox="0 0 24 24" fill="none" stroke="currentColor" stroke-width="1.8" stroke-linecap="round" stroke-linejoin="round"><circle cx="11" cy="15" r="7"/><path d="M16 10l3-3M19 7h2M19 7V5"/></symbol>
    <symbol id="i-defuser" viewBox="0 0 24 24" fill="none" stroke="currentColor" stroke-width="1.8" stroke-linecap="round" stroke-linejoin="round"><rect x="3" y="8" width="18" height="10" rx="2"/><path d="M7 8V5h10v3M9 13h6"/></symbol>
    <symbol id="i-smoke" viewBox="0 0 24 24" fill="none" stroke="currentColor" stroke-width="1.8" stroke-linecap="round" stroke-linejoin="round"><path d="M4 14a4 4 0 1 1 3-7 5 5 0 0 1 9 1 4 4 0 0 1 0 8H6a3 3 0 0 1-2-2z"/></symbol>
    <symbol id="i-flash" viewBox="0 0 24 24" fill="none" stroke="currentColor" stroke-width="1.8" stroke-linecap="round" stroke-linejoin="round"><path d="M13 2L3 14h9l-1 8 10-12h-9z"/></symbol>
    <symbol id="i-molotov" viewBox="0 0 24 24" fill="none" stroke="currentColor" stroke-width="1.8" stroke-linecap="round" stroke-linejoin="round"><path d="M10 3h4v3l2 3a5 5 0 1 1-8 0l2-3z"/></symbol>
    <symbol id="i-he" viewBox="0 0 24 24" fill="none" stroke="currentColor" stroke-width="1.8" stroke-linecap="round" stroke-linejoin="round"><path d="M12 2l2 4 4 1-3 3 1 4-4-2-4 2 1-4-3-3 4-1z"/></symbol>
    <symbol id="i-rifle" viewBox="0 0 24 24" fill="none" stroke="currentColor" stroke-width="1.6" stroke-linecap="round"><path d="M2 12h14M16 10l4 2-4 2M6 12v3M9 9v3"/></symbol>
    <symbol id="i-awp" viewBox="0 0 24 24" fill="none" stroke="currentColor" stroke-width="1.6" stroke-linecap="round"><path d="M2 12h11M13 11v2M14 12l4-2 4 2-4 2zM7 12v4"/></symbol>
    <symbol id="i-pistol" viewBox="0 0 24 24" fill="none" stroke="currentColor" stroke-width="1.6" stroke-linecap="round"><path d="M4 10h10v4l3 3h-4v-2H4z"/></symbol>
    <symbol id="i-knife" viewBox="0 0 24 24" fill="none" stroke="currentColor" stroke-width="1.6" stroke-linecap="round" stroke-linejoin="round"><path d="M20 3l-13 11 3 3L21 4zM7 17l-3 3M11 13l-2 2"/></symbol>
    <!-- Status -->
    <symbol id="i-check" viewBox="0 0 24 24" fill="none" stroke="currentColor" stroke-width="2" stroke-linecap="round" stroke-linejoin="round"><path d="M5 13l4 4L19 7"/></symbol>
    <symbol id="i-warn" viewBox="0 0 24 24" fill="none" stroke="currentColor" stroke-width="2" stroke-linecap="round" stroke-linejoin="round"><path d="M12 3l10 18H2zM12 10v5M12 18h0"/></symbol>
    <symbol id="i-bolt" viewBox="0 0 24 24" fill="none" stroke="currentColor" stroke-width="1.8" stroke-linecap="round" stroke-linejoin="round"><path d="M13 2L3 14h7l-1 8 11-13h-8z"/></symbol>
    <symbol id="i-db" viewBox="0 0 24 24" fill="none" stroke="currentColor" stroke-width="1.8"><ellipse cx="12" cy="5" rx="8" ry="3"/><path d="M4 5v6c0 1.7 3.6 3 8 3s8-1.3 8-3V5M4 11v6c0 1.7 3.6 3 8 3s8-1.3 8-3v-6"/></symbol>
  </defs>
</svg>
