<svg xmlns="http://www.w3.org/2000/svg" viewBox="0 0 1440 900" font-family="Roboto, Inter, system-ui, sans-serif">
  <defs>
    <symbol id="ic-home" viewBox="0 0 24 24"><path d="M12 3 L22 12 L19 12 L19 21 L5 21 L5 12 L2 12 Z M9 15 L15 15 L15 21 L9 21 Z" fill="none" stroke="currentColor" stroke-width="1.5" stroke-linejoin="round"/></symbol>
    <symbol id="ic-brain" viewBox="0 0 24 24"><circle cx="12" cy="12" r="9" fill="none" stroke="currentColor" stroke-width="1.5"/><path d="M12 5 L12 19 M12 8 C7 6 5 11 12 12 M12 12 C17 11 19 16 12 16" fill="none" stroke="currentColor" stroke-width="1.5" stroke-linecap="round"/></symbol>
    <symbol id="ic-list" viewBox="0 0 24 24"><path d="M4 6 L20 6 M4 12 L20 12 M4 18 L20 18" fill="none" stroke="currentColor" stroke-width="1.5" stroke-linecap="round"/><circle cx="2.5" cy="6" r="1.5" fill="currentColor"/><circle cx="2.5" cy="12" r="1.5" fill="currentColor"/><circle cx="2.5" cy="18" r="1.5" fill="currentColor"/></symbol>
    <symbol id="ic-chart" viewBox="0 0 24 24"><rect x="3" y="14" width="5" height="8" fill="none" stroke="currentColor" stroke-width="1.5"/><rect x="10" y="8" width="5" height="14" fill="none" stroke="currentColor" stroke-width="1.5"/><rect x="17" y="3" width="5" height="19" fill="none" stroke="currentColor" stroke-width="1.5"/></symbol>
    <symbol id="ic-cross" viewBox="0 0 24 24"><circle cx="12" cy="12" r="8" fill="none" stroke="currentColor" stroke-width="1.5"/><circle cx="12" cy="12" r="3" fill="none" stroke="currentColor" stroke-width="1.5"/><path d="M12 1 L12 7 M12 17 L12 23 M1 12 L7 12 M17 12 L23 12" stroke="currentColor" stroke-width="1.5" stroke-linecap="round"/></symbol>
    <symbol id="ic-gear" viewBox="0 0 24 24"><circle cx="12" cy="12" r="4" fill="none" stroke="currentColor" stroke-width="1.5"/><path d="M12 4 L12 7 M12 17 L12 20 M4 12 L7 12 M17 12 L20 12 M6.3 6.3 L8.5 8.5 M15.5 15.5 L17.7 17.7 M6.3 17.7 L8.5 15.5 M15.5 8.5 L17.7 6.3" stroke="currentColor" stroke-width="1.5" stroke-linecap="round"/></symbol>
    <symbol id="ic-help" viewBox="0 0 24 24"><circle cx="12" cy="12" r="10" fill="none" stroke="currentColor" stroke-width="1.5"/><path d="M9 9 C9 5 15 5 15 9 C15 12 12 12 12 14" fill="none" stroke="currentColor" stroke-width="1.5" stroke-linecap="round"/><circle cx="12" cy="18" r="1" fill="currentColor"/></symbol>
  </defs>

  <rect width="1440" height="900" fill="#14141e"/>

  <!-- ═══ SIDEBAR (Coach active) ═══ -->
  <g>
    <rect width="220" height="900" fill="#0f0f2e"/>
    <rect x="219" width="1" height="900" fill="rgba(255,255,255,0.05)"/>
    <g transform="translate(176,12)"><text x="18" y="26" text-anchor="middle" fill="#a0a0b0" font-size="22">≡</text></g>
    <text x="110" y="82" text-anchor="middle" fill="#d96600" font-size="11" letter-spacing="3" font-weight="700">MACENA CS2</text>
    <g transform="translate(8,108)" font-size="13">
      <g color="#a0a0b0"><g transform="translate(12,10)"><use href="#ic-home" width="20" height="20"/></g><text x="44" y="26" fill="#a0a0b0">Home</text></g>
      <g transform="translate(0,44)" color="#d96600">
        <rect width="204" height="40" rx="6" fill="rgba(217,102,0,0.25)"/>
        <rect width="3" height="40" fill="#d96600"/>
        <g transform="translate(12,10)"><use href="#ic-brain" width="20" height="20"/></g>
        <text x="44" y="26" fill="#d96600" font-weight="600">Coach</text>
      </g>
      <g transform="translate(0,88)" color="#a0a0b0"><g transform="translate(12,10)"><use href="#ic-list" width="20" height="20"/></g><text x="44" y="26" fill="#a0a0b0">Match History</text></g>
      <g transform="translate(0,132)" color="#a0a0b0"><g transform="translate(12,10)"><use href="#ic-chart" width="20" height="20"/></g><text x="44" y="26" fill="#a0a0b0">Performance</text></g>
      <g transform="translate(0,176)" color="#a0a0b0"><g transform="translate(12,10)"><use href="#ic-cross" width="20" height="20"/></g><text x="44" y="26" fill="#a0a0b0">Tactical Viewer</text></g>
      <g transform="translate(0,220)" color="#a0a0b0"><g transform="translate(12,10)"><use href="#ic-gear" width="20" height="20"/></g><text x="44" y="26" fill="#a0a0b0">Settings</text></g>
      <g transform="translate(0,264)" color="#a0a0b0"><g transform="translate(12,10)"><use href="#ic-help" width="20" height="20"/></g><text x="44" y="26" fill="#a0a0b0">Help</text></g>
    </g>
    <text x="110" y="872" text-anchor="middle" fill="#3a3a5a" font-size="11" font-family="JetBrains Mono, monospace">v0.1.0</text>
  </g>

  <!-- ═══ TOP CONTENT AREA (480px available above chat panel) ═══ -->

  <text x="236" y="56" fill="#dcdcdc" font-size="20" font-weight="700">RAP Coach Dashboard</text>
  <g transform="translate(1316,36)">
    <rect width="100" height="32" rx="4" fill="rgba(217,102,0,0.15)" stroke="#d96600"/>
    <text x="50" y="21" text-anchor="middle" fill="#d96600" font-size="13" font-weight="700">Chat</text>
  </g>

  <!-- Belief Card (compact) -->
  <g transform="translate(236,80)">
    <rect width="582" height="140" rx="8" fill="#1a1a2e"/>
    <text x="16" y="28" fill="#dcdcdc" font-size="14" font-weight="700">Belief State Confidence</text>
    <g transform="translate(16,48)">
      <circle cx="40" cy="40" r="36" fill="none" stroke="#3a3a5a" stroke-opacity="0.3" stroke-width="8"/>
      <circle cx="40" cy="40" r="36" fill="none" stroke="#d96600" stroke-width="8" stroke-linecap="round"
              stroke-dasharray="165.12 61.07" transform="rotate(-90 40 40) scale(1 -1) translate(0 -80)"/>
      <text x="40" y="46" text-anchor="middle" fill="#dcdcdc" font-size="16" font-weight="700">73%</text>
    </g>
    <g transform="translate(124,72)" font-size="12">
      <text fill="#a0a0b0">47 personal demos · 2,148 pro reference</text>
      <text y="18" fill="#a0a0b0">6 of 9 maps seen · 42 complete / 5 partial</text>
      <text y="36" fill="#ffaa00">confidence grows as you ingest more maps</text>
    </g>
  </g>

  <!-- Recent Insights (compact) -->
  <g transform="translate(842,80)">
    <rect width="582" height="140" rx="8" fill="#1a1a2e"/>
    <text x="16" y="28" fill="#dcdcdc" font-size="14" font-weight="700">Recent Insights</text>
    <g transform="translate(16,42)">
      <rect width="550" height="26" rx="4" fill="#181c28"/>
      <text x="10" y="18" fill="#dcdcdc" font-size="11" font-weight="700">Over-peeking A-site default</text>
      <text x="540" y="18" text-anchor="end" fill="#ff5555" font-size="10" font-weight="700">High</text>
    </g>
    <g transform="translate(16,74)">
      <rect width="550" height="26" rx="4" fill="#181c28"/>
      <text x="10" y="18" fill="#dcdcdc" font-size="11" font-weight="700">Utility burn before engage</text>
      <text x="540" y="18" text-anchor="end" fill="#ffcc00" font-size="10" font-weight="700">Medium</text>
    </g>
    <g transform="translate(16,106)">
      <rect width="550" height="26" rx="4" fill="#181c28"/>
      <text x="10" y="18" fill="#dcdcdc" font-size="11" font-weight="700">Crosshair placement improving</text>
      <text x="540" y="18" text-anchor="end" fill="#4caf50" font-size="10" font-weight="700">Low</text>
    </g>
  </g>

  <!-- Advanced Analytics (compact placeholder) -->
  <g transform="translate(236,236)">
    <rect width="1188" height="224" rx="8" fill="#1a1a2e"/>
    <text x="16" y="28" fill="#dcdcdc" font-size="14" font-weight="700">Advanced Analytics</text>
    <text x="594" y="118" text-anchor="middle" fill="#666680" font-size="13">Trend graphs and radar charts will appear here after demo analysis.</text>
    <text x="594" y="138" text-anchor="middle" fill="#666680" font-size="13">Analyze matches to populate this section.</text>
  </g>

  <!-- ═══ CHAT PANEL (bottom, 420px tall — y=480→900) ═══ -->
  <g transform="translate(220,480)">
    <rect width="1220" height="420" fill="#0f0f1a"/>
    <rect width="1220" height="1" fill="#2a2a3a"/>

    <!-- Header row (h=36) -->
    <g transform="translate(12,8)">
      <text x="0" y="22" fill="#dcdcdc" font-size="14" font-weight="700">Chat</text>
      <text x="46" y="22" fill="#4caf50" font-size="14">●</text>
      <text x="62" y="22" fill="#a0a0b0" font-size="12">Online</text>
      <text x="130" y="22" fill="#3a3a5a" font-size="11" font-family="JetBrains Mono, monospace">ollama · gemma3:e2b</text>

      <!-- Clear button (right-aligned, 60w) -->
      <g transform="translate(1088,0)">
        <rect width="60" height="28" rx="4" fill="transparent"/>
        <text x="30" y="19" text-anchor="middle" fill="#a0a0b0" font-size="12">Clear</text>
      </g>
      <!-- Collapse button (30w) -->
      <g transform="translate(1160,0)">
        <rect width="30" height="28" rx="4" fill="transparent"/>
        <text x="15" y="20" text-anchor="middle" fill="#a0a0b0" font-size="12">▼</text>
      </g>
    </g>

    <!-- Messages scroll (h ~250) from y=52 to y=302 -->
    <g transform="translate(12,52)">
      <!-- Assistant message 1 (left, bg #181c28) -->
      <g transform="translate(0,0)">
        <rect width="500" height="52" rx="10" fill="#181c28"/>
        <text x="12" y="20" fill="#dcdcdc" font-size="13">Hey macena — analyzed your last 10 Mirage matches.</text>
        <text x="12" y="40" fill="#dcdcdc" font-size="13">Main pattern: over-peeking A-site jungle without util.</text>
      </g>

      <!-- User message 1 (right, bg #1a3366) -->
      <g transform="translate(696,64)">
        <rect width="500" height="36" rx="10" fill="#1a3366"/>
        <text x="12" y="22" fill="#dcdcdc" font-size="13">How can I improve positioning?</text>
      </g>

      <!-- Assistant message 2 -->
      <g transform="translate(0,112)">
        <rect width="680" height="64" rx="10" fill="#181c28"/>
        <text x="12" y="20" fill="#dcdcdc" font-size="13">Three patterns from your data vs ZywOo pro reference:</text>
        <text x="12" y="38" fill="#a0a0b0" font-size="12">① Hold jungle angle from stairs, not top · ② Delay peek 0.4s after flash · ③ Crouch-peek when HP &lt; 60</text>
        <text x="12" y="54" fill="#5a5a8a" font-size="11" font-family="JetBrains Mono, monospace">confidence 0.82 · 4 demos referenced · RAP-Pedagogy</text>
      </g>

      <!-- User message 2 -->
      <g transform="translate(840,188)">
        <rect width="356" height="36" rx="10" fill="#1a3366"/>
        <text x="12" y="22" fill="#dcdcdc" font-size="13">Analyze utility usage</text>
      </g>

      <!-- Assistant message 3 -->
      <g transform="translate(0,236)">
        <rect width="760" height="36" rx="10" fill="#181c28"/>
        <text x="12" y="22" fill="#dcdcdc" font-size="13">Your HE avg 4.1s before engage vs pro 8.3s — throw earlier on execute plays.</text>
      </g>
    </g>


    <!-- Quick action chips row (h=28) -->
    <g transform="translate(12,328)" font-size="12">
      <g>
        <rect width="190" height="24" rx="12" fill="transparent" stroke="#3a3a5a"/>
        <text x="95" y="16" text-anchor="middle" fill="#a0a0b0">How can I improve positioning?</text>
      </g>
      <g transform="translate(198,0)">
        <rect width="150" height="24" rx="12" fill="transparent" stroke="#3a3a5a"/>
        <text x="75" y="16" text-anchor="middle" fill="#a0a0b0">Analyze utility usage</text>
      </g>
      <g transform="translate(356,0)">
        <rect width="220" height="24" rx="12" fill="transparent" stroke="#3a3a5a"/>
        <text x="110" y="16" text-anchor="middle" fill="#a0a0b0">What should I focus on improving?</text>
      </g>
    </g>

    <!-- Input row (y=364) -->
    <g transform="translate(12,364)">
      <rect width="1118" height="36" rx="4" fill="#1a1a2e"/>
      <text x="12" y="22" fill="#666680" font-size="13">Ask your coach...</text>
      <g transform="translate(1126,0)">
        <rect width="70" height="36" rx="4" fill="#d96600"/>
        <text x="35" y="22" text-anchor="middle" fill="#14141e" font-size="13" font-weight="700">Send</text>
      </g>
    </g>
  </g>

</svg>
