<svg xmlns="http://www.w3.org/2000/svg" viewBox="0 0 1440 900" font-family="Roboto, Inter, system-ui, sans-serif">
  <defs>
    <symbol id="ic-home" viewBox="0 0 24 24"><path d="M12 3 L22 12 L19 12 L19 21 L5 21 L5 12 L2 12 Z M9 15 L15 15 L15 21 L9 21 Z" fill="none" stroke="currentColor" stroke-width="1.5" stroke-linejoin="round"/></symbol>
    <symbol id="ic-brain" viewBox="0 0 24 24"><circle cx="12" cy="12" r="9" fill="none" stroke="currentColor" stroke-width="1.5"/><path d="M12 5 L12 19 M12 8 C7 6 5 11 12 12 M12 12 C17 11 19 16 12 16" fill="none" stroke="currentColor" stroke-width="1.5" stroke-linecap="round"/></symbol>
    <symbol id="ic-list" viewBox="0 0 24 24"><path d="M4 6 L20 6 M4 12 L20 12 M4 18 L20 18" fill="none" stroke="currentColor" stroke-width="1.5" stroke-linecap="round"/><circle cx="2.5" cy="6" r="1.5" fill="currentColor"/><circle cx="2.5" cy="12" r="1.5" fill="currentColor"/><circle cx="2.5" cy="18" r="1.5" fill="currentColor"/></symbol>
    <symbol id="ic-chart" viewBox="0 0 24 24"><rect x="3" y="14" width="5" height="8" fill="none" stroke="currentColor" stroke-width="1.5"/><rect x="10" y="8" width="5" height="14" fill="none" stroke="currentColor" stroke-width="1.5"/><rect x="17" y="3" width="5" height="19" fill="none" stroke="currentColor" stroke-width="1.5"/></symbol>
    <symbol id="ic-cross" viewBox="0 0 24 24"><circle cx="12" cy="12" r="8" fill="none" stroke="currentColor" stroke-width="1.5"/><circle cx="12" cy="12" r="3" fill="none" stroke="currentColor" stroke-width="1.5"/><path d="M12 1 L12 7 M12 17 L12 23 M1 12 L7 12 M17 12 L23 12" stroke="currentColor" stroke-width="1.5" stroke-linecap="round"/></symbol>
    <symbol id="ic-gear" viewBox="0 0 24 24"><circle cx="12" cy="12" r="4" fill="none" stroke="currentColor" stroke-width="1.5"/><path d="M12 4 L12 7 M12 17 L12 20 M4 12 L7 12 M17 12 L20 12 M6.3 6.3 L8.5 8.5 M15.5 15.5 L17.7 17.7 M6.3 17.7 L8.5 15.5 M15.5 8.5 L17.7 6.3" stroke="currentColor" stroke-width="1.5" stroke-linecap="round"/></symbol>
    <symbol id="ic-help" viewBox="0 0 24 24"><circle cx="12" cy="12" r="10" fill="none" stroke="currentColor" stroke-width="1.5"/><path d="M9 9 C9 5 15 5 15 9 C15 12 12 12 12 14" fill="none" stroke="currentColor" stroke-width="1.5" stroke-linecap="round"/><circle cx="12" cy="18" r="1" fill="currentColor"/></symbol>
  </defs>

  <rect width="1440" height="900" fill="#14141e"/>

  <!-- Sidebar (Match History active) -->
  <g>
    <rect width="220" height="900" fill="#0f0f2e"/>
    <rect x="219" width="1" height="900" fill="rgba(255,255,255,0.05)"/>
    <g transform="translate(176,12)"><text x="18" y="26" text-anchor="middle" fill="#a0a0b0" font-size="22">≡</text></g>
    <text x="110" y="82" text-anchor="middle" fill="#d96600" font-size="11" letter-spacing="3" font-weight="700">MACENA CS2</text>
    <g transform="translate(8,108)" font-size="13">
      <g color="#a0a0b0"><g transform="translate(12,10)"><use href="#ic-home" width="20" height="20"/></g><text x="44" y="26" fill="#a0a0b0">Home</text></g>
      <g transform="translate(0,44)" color="#a0a0b0"><g transform="translate(12,10)"><use href="#ic-brain" width="20" height="20"/></g><text x="44" y="26" fill="#a0a0b0">Coach</text></g>
      <g transform="translate(0,88)" color="#d96600">
        <rect width="204" height="40" rx="6" fill="rgba(217,102,0,0.25)"/>
        <rect width="3" height="40" fill="#d96600"/>
        <g transform="translate(12,10)"><use href="#ic-list" width="20" height="20"/></g>
        <text x="44" y="26" fill="#d96600" font-weight="600">Match History</text>
      </g>
      <g transform="translate(0,132)" color="#a0a0b0"><g transform="translate(12,10)"><use href="#ic-chart" width="20" height="20"/></g><text x="44" y="26" fill="#a0a0b0">Performance</text></g>
      <g transform="translate(0,176)" color="#a0a0b0"><g transform="translate(12,10)"><use href="#ic-cross" width="20" height="20"/></g><text x="44" y="26" fill="#a0a0b0">Tactical Viewer</text></g>
      <g transform="translate(0,220)" color="#a0a0b0"><g transform="translate(12,10)"><use href="#ic-gear" width="20" height="20"/></g><text x="44" y="26" fill="#a0a0b0">Settings</text></g>
      <g transform="translate(0,264)" color="#a0a0b0"><g transform="translate(12,10)"><use href="#ic-help" width="20" height="20"/></g><text x="44" y="26" fill="#a0a0b0">Help</text></g>
    </g>
    <text x="110" y="872" text-anchor="middle" fill="#3a3a5a" font-size="11" font-family="JetBrains Mono, monospace">v0.1.0</text>
  </g>

  <!-- Main content -->
  <text x="236" y="56" fill="#dcdcdc" font-size="20" font-weight="700">Match History</text>
  <text x="1424" y="56" text-anchor="end" fill="#a0a0b0" font-size="13">47 personal · 2,148 pro reference</text>

  <!-- Match cards (each 90px tall, 8px gap) -->
  <g transform="translate(236,80)" font-family="Roboto, Inter, system-ui, sans-serif">

    <!-- Match 1: user, rating 1.34 Good (green) -->
    <g>
      <rect width="1188" height="90" rx="8" fill="#1a1a2e"/>
      <!-- Rating badge 60w -->
      <g>
        <text x="32" y="44" text-anchor="middle" fill="#4db04f" font-size="14" font-weight="700">1.34</text>
        <text x="32" y="62" text-anchor="middle" fill="#4db04f" font-size="11">Good</text>
      </g>
      <!-- Info column -->
      <g transform="translate(84,30)">
        <text fill="#dcdcdc" font-size="13">de_mirage  |  2026-04-22 21:14</text>
        <text y="22" fill="#a0a0b0" font-size="11">K/D: 1.26  |  ADR: 82.3  |  Kills: 24.0  Deaths: 19.0</text>
        <text y="40" fill="#5a5a8a" font-size="10" font-family="JetBrains Mono, monospace">KAST 78% · HS% 52 · clutch 2/3 · demo 312 MB</text>
      </g>
    </g>

    <!-- Match 2: user, rating 1.12 Good (green) -->
    <g transform="translate(0,98)">
      <rect width="1188" height="90" rx="8" fill="#1a1a2e"/>
      <g>
        <text x="32" y="44" text-anchor="middle" fill="#4db04f" font-size="14" font-weight="700">1.12</text>
        <text x="32" y="62" text-anchor="middle" fill="#4db04f" font-size="11">Good</text>
      </g>
      <g transform="translate(84,30)">
        <text fill="#dcdcdc" font-size="13">de_inferno  |  2026-04-22 19:02</text>
        <text y="22" fill="#a0a0b0" font-size="11">K/D: 1.05  |  ADR: 74.1  |  Kills: 22.0  Deaths: 21.0</text>
        <text y="40" fill="#5a5a8a" font-size="10" font-family="JetBrains Mono, monospace">KAST 71% · HS% 47 · clutch 0/2 · demo 287 MB</text>
      </g>
    </g>

    <!-- Match 3: PRO (ZywOo Mirage) rating 1.47 -->
    <g transform="translate(0,196)">
      <rect width="1188" height="90" rx="8" fill="#1a1a2e"/>
      <g>
        <text x="32" y="44" text-anchor="middle" fill="#4db04f" font-size="14" font-weight="700">1.47</text>
        <text x="32" y="62" text-anchor="middle" fill="#4db04f" font-size="11">Excellent</text>
      </g>
      <!-- PRO badge -->
      <g transform="translate(68,35)">
        <rect width="40" height="20" rx="4" fill="#2a1a00" stroke="#ff9900"/>
        <text x="20" y="14" text-anchor="middle" fill="#ff9900" font-size="10" font-weight="700">PRO</text>
      </g>
      <g transform="translate(120,30)">
        <text fill="#dcdcdc" font-size="13">de_mirage  |  ZywOo  |  2026-04-21 18:30</text>
        <text y="22" fill="#a0a0b0" font-size="11">K/D: 1.68  |  ADR: 96.8  |  Kills: 27.0  Deaths: 16.0</text>
        <text y="40" fill="#5a5a8a" font-size="10" font-family="JetBrains Mono, monospace">Vitality vs NAVI · ESL Pro League · 16-11 CT</text>
      </g>
    </g>

    <!-- Match 4: user, 0.94 Average (yellow) -->
    <g transform="translate(0,294)">
      <rect width="1188" height="90" rx="8" fill="#1a1a2e"/>
      <g>
        <text x="32" y="44" text-anchor="middle" fill="#ff9900" font-size="14" font-weight="700">0.94</text>
        <text x="32" y="62" text-anchor="middle" fill="#ff9900" font-size="11">Average</text>
      </g>
      <g transform="translate(84,30)">
        <text fill="#dcdcdc" font-size="13">de_nuke  |  2026-04-21 15:47</text>
        <text y="22" fill="#a0a0b0" font-size="11">K/D: 0.87  |  ADR: 58.4  |  Kills: 18.0  Deaths: 20.0</text>
        <text y="40" fill="#5a5a8a" font-size="10" font-family="JetBrains Mono, monospace">KAST 62% · HS% 44 · clutch 0/1 · demo 198 MB</text>
      </g>
    </g>

    <!-- Match 5: user, 0.74 Below Avg (red) -->
    <g transform="translate(0,392)">
      <rect width="1188" height="90" rx="8" fill="#1a1a2e"/>
      <g>
        <text x="32" y="44" text-anchor="middle" fill="#f54236" font-size="14" font-weight="700">0.74</text>
        <text x="32" y="62" text-anchor="middle" fill="#f54236" font-size="11">Below Avg</text>
      </g>
      <g transform="translate(84,30)">
        <text fill="#dcdcdc" font-size="13">de_ancient  |  2026-04-20 22:18</text>
        <text y="22" fill="#a0a0b0" font-size="11">K/D: 0.71  |  ADR: 51.2  |  Kills: 15.0  Deaths: 21.0</text>
        <text y="40" fill="#5a5a8a" font-size="10" font-family="JetBrains Mono, monospace">KAST 54% · HS% 38 · clutch 0/2 · demo 164 MB</text>
      </g>
    </g>

    <!-- Match 6: PRO (NiKo Inferno) -->
    <g transform="translate(0,490)">
      <rect width="1188" height="90" rx="8" fill="#1a1a2e"/>
      <g>
        <text x="32" y="44" text-anchor="middle" fill="#4db04f" font-size="14" font-weight="700">1.21</text>
        <text x="32" y="62" text-anchor="middle" fill="#4db04f" font-size="11">Excellent</text>
      </g>
      <g transform="translate(68,35)">
        <rect width="40" height="20" rx="4" fill="#2a1a00" stroke="#ff9900"/>
        <text x="20" y="14" text-anchor="middle" fill="#ff9900" font-size="10" font-weight="700">PRO</text>
      </g>
      <g transform="translate(120,30)">
        <text fill="#dcdcdc" font-size="13">de_inferno  |  NiKo  |  2026-04-19 20:00</text>
        <text y="22" fill="#a0a0b0" font-size="11">K/D: 1.29  |  ADR: 87.3  |  Kills: 23.0  Deaths: 18.0</text>
        <text y="40" fill="#5a5a8a" font-size="10" font-family="JetBrains Mono, monospace">G2 vs FaZe · BLAST Paris Major · 16-13 T</text>
      </g>
    </g>

    <!-- Match 7: user, 1.08 Average -->
    <g transform="translate(0,588)">
      <rect width="1188" height="90" rx="8" fill="#1a1a2e"/>
      <g>
        <text x="32" y="44" text-anchor="middle" fill="#ff9900" font-size="14" font-weight="700">1.08</text>
        <text x="32" y="62" text-anchor="middle" fill="#ff9900" font-size="11">Average</text>
      </g>
      <g transform="translate(84,30)">
        <text fill="#dcdcdc" font-size="13">de_overpass  |  2026-04-19 14:22</text>
        <text y="22" fill="#a0a0b0" font-size="11">K/D: 1.00  |  ADR: 70.5  |  Kills: 20.0  Deaths: 20.0</text>
        <text y="40" fill="#5a5a8a" font-size="10" font-family="JetBrains Mono, monospace">KAST 68% · HS% 41 · clutch 1/2 · demo 241 MB</text>
      </g>
    </g>

    <!-- Match 8: user, 1.22 Excellent -->
    <g transform="translate(0,686)">
      <rect width="1188" height="90" rx="8" fill="#1a1a2e"/>
      <g>
        <text x="32" y="44" text-anchor="middle" fill="#4db04f" font-size="14" font-weight="700">1.22</text>
        <text x="32" y="62" text-anchor="middle" fill="#4db04f" font-size="11">Excellent</text>
      </g>
      <g transform="translate(84,30)">
        <text fill="#dcdcdc" font-size="13">de_mirage  |  2026-04-18 21:50</text>
        <text y="22" fill="#a0a0b0" font-size="11">K/D: 1.18  |  ADR: 88.1  |  Kills: 26.0  Deaths: 22.0</text>
        <text y="40" fill="#5a5a8a" font-size="10" font-family="JetBrains Mono, monospace">KAST 74% · HS% 49 · clutch 1/1 · demo 302 MB</text>
      </g>
    </g>

  </g>

</svg>
