<svg xmlns="http://www.w3.org/2000/svg" viewBox="0 0 1440 900" font-family="Roboto, Inter, system-ui, sans-serif">
  <defs>
    <symbol id="ic-home" viewBox="0 0 24 24"><path d="M12 3 L22 12 L19 12 L19 21 L5 21 L5 12 L2 12 Z M9 15 L15 15 L15 21 L9 21 Z" fill="none" stroke="currentColor" stroke-width="1.5" stroke-linejoin="round"/></symbol>
    <symbol id="ic-brain" viewBox="0 0 24 24"><circle cx="12" cy="12" r="9" fill="none" stroke="currentColor" stroke-width="1.5"/><path d="M12 5 L12 19 M12 8 C7 6 5 11 12 12 M12 12 C17 11 19 16 12 16" fill="none" stroke="currentColor" stroke-width="1.5" stroke-linecap="round"/></symbol>
    <symbol id="ic-list" viewBox="0 0 24 24"><path d="M4 6 L20 6 M4 12 L20 12 M4 18 L20 18" fill="none" stroke="currentColor" stroke-width="1.5" stroke-linecap="round"/><circle cx="2.5" cy="6" r="1.5" fill="currentColor"/><circle cx="2.5" cy="12" r="1.5" fill="currentColor"/><circle cx="2.5" cy="18" r="1.5" fill="currentColor"/></symbol>
    <symbol id="ic-chart" viewBox="0 0 24 24"><rect x="3" y="14" width="5" height="8" fill="none" stroke="currentColor" stroke-width="1.5"/><rect x="10" y="8" width="5" height="14" fill="none" stroke="currentColor" stroke-width="1.5"/><rect x="17" y="3" width="5" height="19" fill="none" stroke="currentColor" stroke-width="1.5"/></symbol>
    <symbol id="ic-cross" viewBox="0 0 24 24"><circle cx="12" cy="12" r="8" fill="none" stroke="currentColor" stroke-width="1.5"/><circle cx="12" cy="12" r="3" fill="none" stroke="currentColor" stroke-width="1.5"/><path d="M12 1 L12 7 M12 17 L12 23 M1 12 L7 12 M17 12 L23 12" stroke="currentColor" stroke-width="1.5" stroke-linecap="round"/></symbol>
    <symbol id="ic-gear" viewBox="0 0 24 24"><circle cx="12" cy="12" r="4" fill="none" stroke="currentColor" stroke-width="1.5"/><path d="M12 4 L12 7 M12 17 L12 20 M4 12 L7 12 M17 12 L20 12 M6.3 6.3 L8.5 8.5 M15.5 15.5 L17.7 17.7 M6.3 17.7 L8.5 15.5 M15.5 8.5 L17.7 6.3" stroke="currentColor" stroke-width="1.5" stroke-linecap="round"/></symbol>
    <symbol id="ic-help" viewBox="0 0 24 24"><circle cx="12" cy="12" r="10" fill="none" stroke="currentColor" stroke-width="1.5"/><path d="M9 9 C9 5 15 5 15 9 C15 12 12 12 12 14" fill="none" stroke="currentColor" stroke-width="1.5" stroke-linecap="round"/><circle cx="12" cy="18" r="1" fill="currentColor"/></symbol>
  </defs>

  <rect width="1440" height="900" fill="#14141e"/>

  <g>
    <rect width="220" height="900" fill="#0f0f2e"/>
    <rect x="219" width="1" height="900" fill="rgba(255,255,255,0.05)"/>
    <g transform="translate(176,12)"><text x="18" y="26" text-anchor="middle" fill="#a0a0b0" font-size="22">≡</text></g>
    <text x="110" y="82" text-anchor="middle" fill="#d96600" font-size="11" letter-spacing="3" font-weight="700">MACENA CS2</text>
    <g transform="translate(8,108)" font-size="13">
      <g color="#a0a0b0"><g transform="translate(12,10)"><use href="#ic-home" width="20" height="20"/></g><text x="44" y="26" fill="#a0a0b0">Home</text></g>
      <g transform="translate(0,44)" color="#a0a0b0"><g transform="translate(12,10)"><use href="#ic-brain" width="20" height="20"/></g><text x="44" y="26" fill="#a0a0b0">Coach</text></g>
      <g transform="translate(0,88)" color="#d96600">
        <rect width="204" height="40" rx="6" fill="rgba(217,102,0,0.25)"/><rect width="3" height="40" fill="#d96600"/>
        <g transform="translate(12,10)"><use href="#ic-list" width="20" height="20"/></g>
        <text x="44" y="26" fill="#d96600" font-weight="600">Match History</text>
      </g>
      <g transform="translate(0,132)" color="#a0a0b0"><g transform="translate(12,10)"><use href="#ic-chart" width="20" height="20"/></g><text x="44" y="26" fill="#a0a0b0">Performance</text></g>
      <g transform="translate(0,176)" color="#a0a0b0"><g transform="translate(12,10)"><use href="#ic-cross" width="20" height="20"/></g><text x="44" y="26" fill="#a0a0b0">Tactical Viewer</text></g>
      <g transform="translate(0,220)" color="#a0a0b0"><g transform="translate(12,10)"><use href="#ic-gear" width="20" height="20"/></g><text x="44" y="26" fill="#a0a0b0">Settings</text></g>
      <g transform="translate(0,264)" color="#a0a0b0"><g transform="translate(12,10)"><use href="#ic-help" width="20" height="20"/></g><text x="44" y="26" fill="#a0a0b0">Help</text></g>
    </g>
    <text x="110" y="872" text-anchor="middle" fill="#3a3a5a" font-size="11" font-family="JetBrains Mono, monospace">v0.1.0</text>
  </g>

  <!-- Title + back -->
  <g transform="translate(236,36)">
    <rect width="80" height="32" rx="4" fill="transparent" stroke="#3a3a5a"/>
    <text x="40" y="21" text-anchor="middle" fill="#dcdcdc" font-size="13">← Back</text>
  </g>
  <text x="328" y="58" fill="#dcdcdc" font-size="20" font-weight="700">Match Detail — de_mirage</text>

  <!-- Tabs (Rounds active) -->
  <g transform="translate(236,80)" font-size="13">
    <g><rect width="120" height="36" fill="transparent"/><text x="60" y="23" text-anchor="middle" fill="#a0a0b0">Overview</text></g>
    <g transform="translate(122,0)"><rect width="100" height="36" fill="#1a1a2e"/><rect y="34" width="100" height="2" fill="#d96600"/><text x="50" y="23" text-anchor="middle" fill="#d96600" font-weight="700">Rounds</text></g>
    <g transform="translate(224,0)"><rect width="110" height="36" fill="transparent"/><text x="55" y="23" text-anchor="middle" fill="#a0a0b0">Economy</text></g>
    <g transform="translate(336,0)"><rect width="110" height="36" fill="transparent"/><text x="55" y="23" text-anchor="middle" fill="#a0a0b0">Highlights</text></g>
    <line x1="0" y1="36" x2="1188" y2="36" stroke="#3a3a5a"/>
  </g>

  <!-- Header row (monospace) -->
  <g transform="translate(236,144)" font-family="JetBrains Mono, monospace" font-size="11">
    <rect width="1188" height="32" rx="4" fill="#0f0f2e"/>
    <text x="16"   y="21" fill="#a0a0b0">Rnd</text>
    <text x="80"   y="21" fill="#a0a0b0">W/L</text>
    <text x="140"  y="21" fill="#a0a0b0">Side</text>
    <text x="220"  y="21" fill="#a0a0b0">K</text>
    <text x="260"  y="21" fill="#a0a0b0">D</text>
    <text x="300"  y="21" fill="#a0a0b0">DMG</text>
    <text x="380"  y="21" fill="#a0a0b0">Equip $</text>
    <text x="480"  y="21" fill="#a0a0b0">First Kill</text>
    <text x="580"  y="21" fill="#a0a0b0">Bomb</text>
    <text x="680"  y="21" fill="#a0a0b0">Enemies left</text>
    <text x="800"  y="21" fill="#a0a0b0">Notes</text>
  </g>

  <!-- 24 round rows, 26px each = 624px total -->
  <g transform="translate(236,180)" font-family="JetBrains Mono, monospace" font-size="11">
    <!-- Row template. Side color: CT=#5C9EE8 blue, T=#E8C95C yellow. W=#4caf50, L=#f44336. Opening Kill="FK" amber #ffaa00 -->
    <!-- R1 W T FK plant -->
    <g><rect width="1188" height="26" fill="#181c28"/><text x="16" y="18" fill="#dcdcdc">R 1</text><text x="80" y="18" fill="#4caf50" font-weight="700">W</text><text x="140" y="18" fill="#E8C95C" font-weight="700">T</text><text x="220" y="18" fill="#dcdcdc">2</text><text x="260" y="18" fill="#dcdcdc">0</text><text x="300" y="18" fill="#dcdcdc">152</text><text x="380" y="18" fill="#dcdcdc">$4600</text><text x="480" y="18" fill="#ffaa00" font-weight="700">FK</text><text x="580" y="18" fill="#4caf50">planted</text><text x="680" y="18" fill="#a0a0b0">3</text><text x="800" y="18" fill="#5a5a8a">pistol · eco save CT</text></g>
    <g transform="translate(0,28)"><rect width="1188" height="26" fill="#1a1a2e"/><text x="16" y="18" fill="#dcdcdc">R 2</text><text x="80" y="18" fill="#4caf50" font-weight="700">W</text><text x="140" y="18" fill="#E8C95C" font-weight="700">T</text><text x="220" y="18" fill="#dcdcdc">1</text><text x="260" y="18" fill="#dcdcdc">0</text><text x="300" y="18" fill="#dcdcdc">98</text><text x="380" y="18" fill="#dcdcdc">$3800</text><text x="480" y="18" fill="#a0a0b0"></text><text x="580" y="18" fill="#4caf50">planted</text><text x="680" y="18" fill="#a0a0b0">2</text><text x="800" y="18" fill="#5a5a8a">force · trade kill at palace</text></g>
    <g transform="translate(0,56)"><rect width="1188" height="26" fill="#181c28"/><text x="16" y="18" fill="#dcdcdc">R 3</text><text x="80" y="18" fill="#f44336" font-weight="700">L</text><text x="140" y="18" fill="#E8C95C" font-weight="700">T</text><text x="220" y="18" fill="#dcdcdc">0</text><text x="260" y="18" fill="#dcdcdc">1</text><text x="300" y="18" fill="#dcdcdc">18</text><text x="380" y="18" fill="#dcdcdc">$5200</text><text x="480" y="18" fill="#a0a0b0"></text><text x="580" y="18" fill="#a0a0b0">—</text><text x="680" y="18" fill="#a0a0b0">5</text><text x="800" y="18" fill="#ff9900">over-peek jungle vs mid-hold</text></g>
    <g transform="translate(0,84)"><rect width="1188" height="26" fill="#1a1a2e"/><text x="16" y="18" fill="#dcdcdc">R 4</text><text x="80" y="18" fill="#4caf50" font-weight="700">W</text><text x="140" y="18" fill="#E8C95C" font-weight="700">T</text><text x="220" y="18" fill="#dcdcdc">1</text><text x="260" y="18" fill="#dcdcdc">1</text><text x="300" y="18" fill="#dcdcdc">84</text><text x="380" y="18" fill="#dcdcdc">$5000</text><text x="480" y="18" fill="#a0a0b0"></text><text x="580" y="18" fill="#4caf50">defused</text><text x="680" y="18" fill="#a0a0b0">0</text><text x="800" y="18" fill="#5a5a8a">1v2 clutch win on palace</text></g>
    <g transform="translate(0,112)"><rect width="1188" height="26" fill="#181c28"/><text x="16" y="18" fill="#dcdcdc">R 5</text><text x="80" y="18" fill="#f44336" font-weight="700">L</text><text x="140" y="18" fill="#E8C95C" font-weight="700">T</text><text x="220" y="18" fill="#dcdcdc">1</text><text x="260" y="18" fill="#dcdcdc">1</text><text x="300" y="18" fill="#dcdcdc">42</text><text x="380" y="18" fill="#dcdcdc">$4800</text><text x="480" y="18" fill="#ffaa00" font-weight="700">FK</text><text x="580" y="18" fill="#a0a0b0">—</text><text x="680" y="18" fill="#a0a0b0">4</text><text x="800" y="18" fill="#5a5a8a">got traded fast</text></g>
    <g transform="translate(0,140)"><rect width="1188" height="26" fill="#1a1a2e"/><text x="16" y="18" fill="#dcdcdc">R 6</text><text x="80" y="18" fill="#4caf50" font-weight="700">W</text><text x="140" y="18" fill="#E8C95C" font-weight="700">T</text><text x="220" y="18" fill="#dcdcdc">2</text><text x="260" y="18" fill="#dcdcdc">1</text><text x="300" y="18" fill="#dcdcdc">128</text><text x="380" y="18" fill="#dcdcdc">$5200</text><text x="480" y="18" fill="#a0a0b0"></text><text x="580" y="18" fill="#4caf50">planted</text><text x="680" y="18" fill="#a0a0b0">2</text><text x="800" y="18" fill="#5a5a8a">A default · flash assist x2</text></g>
    <g transform="translate(0,168)"><rect width="1188" height="26" fill="#181c28"/><text x="16" y="18" fill="#dcdcdc">R 7</text><text x="80" y="18" fill="#4caf50" font-weight="700">W</text><text x="140" y="18" fill="#E8C95C" font-weight="700">T</text><text x="220" y="18" fill="#dcdcdc">2</text><text x="260" y="18" fill="#dcdcdc">1</text><text x="300" y="18" fill="#dcdcdc">144</text><text x="380" y="18" fill="#dcdcdc">$5400</text><text x="480" y="18" fill="#ffaa00" font-weight="700">FK</text><text x="580" y="18" fill="#4caf50">planted</text><text x="680" y="18" fill="#a0a0b0">1</text><text x="800" y="18" fill="#5a5a8a">full save by CT</text></g>
    <g transform="translate(0,196)"><rect width="1188" height="26" fill="#1a1a2e"/><text x="16" y="18" fill="#dcdcdc">R 8</text><text x="80" y="18" fill="#4caf50" font-weight="700">W</text><text x="140" y="18" fill="#E8C95C" font-weight="700">T</text><text x="220" y="18" fill="#dcdcdc">1</text><text x="260" y="18" fill="#dcdcdc">0</text><text x="300" y="18" fill="#dcdcdc">76</text><text x="380" y="18" fill="#dcdcdc">$5000</text><text x="480" y="18" fill="#a0a0b0"></text><text x="580" y="18" fill="#4caf50">planted</text><text x="680" y="18" fill="#a0a0b0">3</text><text x="800" y="18" fill="#5a5a8a">B split execute</text></g>
    <g transform="translate(0,224)"><rect width="1188" height="26" fill="#181c28"/><text x="16" y="18" fill="#dcdcdc">R 9</text><text x="80" y="18" fill="#f44336" font-weight="700">L</text><text x="140" y="18" fill="#E8C95C" font-weight="700">T</text><text x="220" y="18" fill="#dcdcdc">2</text><text x="260" y="18" fill="#dcdcdc">1</text><text x="300" y="18" fill="#dcdcdc">168</text><text x="380" y="18" fill="#dcdcdc">$5200</text><text x="480" y="18" fill="#a0a0b0"></text><text x="580" y="18" fill="#a0a0b0">—</text><text x="680" y="18" fill="#a0a0b0">2</text><text x="800" y="18" fill="#ff9900">post-plant hold failed</text></g>
    <g transform="translate(0,252)"><rect width="1188" height="26" fill="#1a1a2e"/><text x="16" y="18" fill="#dcdcdc">R10</text><text x="80" y="18" fill="#f44336" font-weight="700">L</text><text x="140" y="18" fill="#E8C95C" font-weight="700">T</text><text x="220" y="18" fill="#dcdcdc">0</text><text x="260" y="18" fill="#dcdcdc">1</text><text x="300" y="18" fill="#dcdcdc">32</text><text x="380" y="18" fill="#dcdcdc">$5200</text><text x="480" y="18" fill="#a0a0b0"></text><text x="580" y="18" fill="#a0a0b0">—</text><text x="680" y="18" fill="#a0a0b0">4</text><text x="800" y="18" fill="#5a5a8a">crossfire death top-mid</text></g>
    <g transform="translate(0,280)"><rect width="1188" height="26" fill="#181c28"/><text x="16" y="18" fill="#dcdcdc">R11</text><text x="80" y="18" fill="#4caf50" font-weight="700">W</text><text x="140" y="18" fill="#E8C95C" font-weight="700">T</text><text x="220" y="18" fill="#dcdcdc">2</text><text x="260" y="18" fill="#dcdcdc">1</text><text x="300" y="18" fill="#dcdcdc">156</text><text x="380" y="18" fill="#dcdcdc">$5400</text><text x="480" y="18" fill="#ffaa00" font-weight="700">FK</text><text x="580" y="18" fill="#4caf50">planted</text><text x="680" y="18" fill="#a0a0b0">1</text><text x="800" y="18" fill="#5a5a8a">opening pick at palace</text></g>
    <g transform="translate(0,308)"><rect width="1188" height="26" fill="#1a1a2e"/><text x="16" y="18" fill="#dcdcdc">R12</text><text x="80" y="18" fill="#f44336" font-weight="700">L</text><text x="140" y="18" fill="#E8C95C" font-weight="700">T</text><text x="220" y="18" fill="#dcdcdc">1</text><text x="260" y="18" fill="#dcdcdc">1</text><text x="300" y="18" fill="#dcdcdc">68</text><text x="380" y="18" fill="#dcdcdc">$5200</text><text x="480" y="18" fill="#a0a0b0"></text><text x="580" y="18" fill="#a0a0b0">—</text><text x="680" y="18" fill="#a0a0b0">3</text><text x="800" y="18" fill="#5a5a8a">last round of half</text></g>

    <!-- CT half divider -->
    <rect x="0" y="338" width="1188" height="2" fill="#d96600" opacity="0.4"/>

    <g transform="translate(0,348)"><rect width="1188" height="26" fill="#181c28"/><text x="16" y="18" fill="#dcdcdc">R13</text><text x="80" y="18" fill="#4caf50" font-weight="700">W</text><text x="140" y="18" fill="#5C9EE8" font-weight="700">CT</text><text x="220" y="18" fill="#dcdcdc">2</text><text x="260" y="18" fill="#dcdcdc">0</text><text x="300" y="18" fill="#dcdcdc">126</text><text x="380" y="18" fill="#dcdcdc">$3800</text><text x="480" y="18" fill="#ffaa00" font-weight="700">FK</text><text x="580" y="18" fill="#a0a0b0">—</text><text x="680" y="18" fill="#a0a0b0">2</text><text x="800" y="18" fill="#5a5a8a">CT pistol · hold A</text></g>
    <g transform="translate(0,376)"><rect width="1188" height="26" fill="#1a1a2e"/><text x="16" y="18" fill="#dcdcdc">R14</text><text x="80" y="18" fill="#f44336" font-weight="700">L</text><text x="140" y="18" fill="#5C9EE8" font-weight="700">CT</text><text x="220" y="18" fill="#dcdcdc">1</text><text x="260" y="18" fill="#dcdcdc">1</text><text x="300" y="18" fill="#dcdcdc">58</text><text x="380" y="18" fill="#dcdcdc">$4200</text><text x="480" y="18" fill="#a0a0b0"></text><text x="580" y="18" fill="#a0a0b0">lost</text><text x="680" y="18" fill="#a0a0b0">3</text><text x="800" y="18" fill="#5a5a8a">B rush · late rotate</text></g>
    <g transform="translate(0,404)"><rect width="1188" height="26" fill="#181c28"/><text x="16" y="18" fill="#dcdcdc">R15</text><text x="80" y="18" fill="#4caf50" font-weight="700">W</text><text x="140" y="18" fill="#5C9EE8" font-weight="700">CT</text><text x="220" y="18" fill="#dcdcdc">1</text><text x="260" y="18" fill="#dcdcdc">0</text><text x="300" y="18" fill="#dcdcdc">72</text><text x="380" y="18" fill="#dcdcdc">$4800</text><text x="480" y="18" fill="#a0a0b0"></text><text x="580" y="18" fill="#4caf50">defused</text><text x="680" y="18" fill="#a0a0b0">1</text><text x="800" y="18" fill="#5a5a8a">hold connector</text></g>
    <g transform="translate(0,432)"><rect width="1188" height="26" fill="#1a1a2e"/><text x="16" y="18" fill="#dcdcdc">R16</text><text x="80" y="18" fill="#4caf50" font-weight="700">W</text><text x="140" y="18" fill="#5C9EE8" font-weight="700">CT</text><text x="220" y="18" fill="#dcdcdc">2</text><text x="260" y="18" fill="#dcdcdc">0</text><text x="300" y="18" fill="#dcdcdc">148</text><text x="380" y="18" fill="#dcdcdc">$5200</text><text x="480" y="18" fill="#ffaa00" font-weight="700">FK</text><text x="580" y="18" fill="#4caf50">defused</text><text x="680" y="18" fill="#a0a0b0">2</text><text x="800" y="18" fill="#4caf50">retake 2v4 win</text></g>
    <g transform="translate(0,460)"><rect width="1188" height="26" fill="#181c28"/><text x="16" y="18" fill="#dcdcdc">R17</text><text x="80" y="18" fill="#4caf50" font-weight="700">W</text><text x="140" y="18" fill="#5C9EE8" font-weight="700">CT</text><text x="220" y="18" fill="#dcdcdc">1</text><text x="260" y="18" fill="#dcdcdc">1</text><text x="300" y="18" fill="#dcdcdc">88</text><text x="380" y="18" fill="#dcdcdc">$5200</text><text x="480" y="18" fill="#a0a0b0"></text><text x="580" y="18" fill="#a0a0b0">lost</text><text x="680" y="18" fill="#a0a0b0">0</text><text x="800" y="18" fill="#5a5a8a">time ran out</text></g>
    <g transform="translate(0,488)"><rect width="1188" height="26" fill="#1a1a2e"/><text x="16" y="18" fill="#dcdcdc">R18</text><text x="80" y="18" fill="#4caf50" font-weight="700">W</text><text x="140" y="18" fill="#5C9EE8" font-weight="700">CT</text><text x="220" y="18" fill="#dcdcdc">2</text><text x="260" y="18" fill="#dcdcdc">0</text><text x="300" y="18" fill="#dcdcdc">134</text><text x="380" y="18" fill="#dcdcdc">$5200</text><text x="480" y="18" fill="#ffaa00" font-weight="700">FK</text><text x="580" y="18" fill="#a0a0b0">—</text><text x="680" y="18" fill="#a0a0b0">1</text><text x="800" y="18" fill="#5a5a8a">mid-jungle aim duel</text></g>
    <g transform="translate(0,516)"><rect width="1188" height="26" fill="#181c28"/><text x="16" y="18" fill="#dcdcdc">R19</text><text x="80" y="18" fill="#f44336" font-weight="700">L</text><text x="140" y="18" fill="#5C9EE8" font-weight="700">CT</text><text x="220" y="18" fill="#dcdcdc">1</text><text x="260" y="18" fill="#dcdcdc">1</text><text x="300" y="18" fill="#dcdcdc">54</text><text x="380" y="18" fill="#dcdcdc">$5200</text><text x="480" y="18" fill="#a0a0b0"></text><text x="580" y="18" fill="#a0a0b0">lost</text><text x="680" y="18" fill="#a0a0b0">2</text><text x="800" y="18" fill="#ff9900">over-peeked vs flash</text></g>
    <g transform="translate(0,544)"><rect width="1188" height="26" fill="#1a1a2e"/><text x="16" y="18" fill="#dcdcdc">R20</text><text x="80" y="18" fill="#4caf50" font-weight="700">W</text><text x="140" y="18" fill="#5C9EE8" font-weight="700">CT</text><text x="220" y="18" fill="#dcdcdc">2</text><text x="260" y="18" fill="#dcdcdc">1</text><text x="300" y="18" fill="#dcdcdc">112</text><text x="380" y="18" fill="#dcdcdc">$5200</text><text x="480" y="18" fill="#a0a0b0"></text><text x="580" y="18" fill="#4caf50">defused</text><text x="680" y="18" fill="#a0a0b0">1</text><text x="800" y="18" fill="#5a5a8a">solid hold B</text></g>
    <g transform="translate(0,572)"><rect width="1188" height="26" fill="#181c28"/><text x="16" y="18" fill="#dcdcdc">R21</text><text x="80" y="18" fill="#f44336" font-weight="700">L</text><text x="140" y="18" fill="#5C9EE8" font-weight="700">CT</text><text x="220" y="18" fill="#dcdcdc">0</text><text x="260" y="18" fill="#dcdcdc">1</text><text x="300" y="18" fill="#dcdcdc">28</text><text x="380" y="18" fill="#dcdcdc">$5200</text><text x="480" y="18" fill="#a0a0b0"></text><text x="580" y="18" fill="#a0a0b0">lost</text><text x="680" y="18" fill="#a0a0b0">4</text><text x="800" y="18" fill="#5a5a8a">caught repositioning</text></g>
    <g transform="translate(0,600)"><rect width="1188" height="26" fill="#1a1a2e"/><text x="16" y="18" fill="#dcdcdc">R22</text><text x="80" y="18" fill="#4caf50" font-weight="700">W</text><text x="140" y="18" fill="#5C9EE8" font-weight="700">CT</text><text x="220" y="18" fill="#dcdcdc">2</text><text x="260" y="18" fill="#dcdcdc">0</text><text x="300" y="18" fill="#dcdcdc">142</text><text x="380" y="18" fill="#dcdcdc">$5200</text><text x="480" y="18" fill="#ffaa00" font-weight="700">FK</text><text x="580" y="18" fill="#4caf50">defused</text><text x="680" y="18" fill="#a0a0b0">1</text><text x="800" y="18" fill="#5a5a8a">double on A ramp</text></g>
    <g transform="translate(0,628)"><rect width="1188" height="26" fill="#181c28"/><text x="16" y="18" fill="#dcdcdc">R23</text><text x="80" y="18" fill="#4caf50" font-weight="700">W</text><text x="140" y="18" fill="#5C9EE8" font-weight="700">CT</text><text x="220" y="18" fill="#dcdcdc">1</text><text x="260" y="18" fill="#dcdcdc">1</text><text x="300" y="18" fill="#dcdcdc">76</text><text x="380" y="18" fill="#dcdcdc">$5200</text><text x="480" y="18" fill="#a0a0b0"></text><text x="580" y="18" fill="#4caf50">defused</text><text x="680" y="18" fill="#a0a0b0">3</text><text x="800" y="18" fill="#5a5a8a">mid rotate to B save</text></g>
    <g transform="translate(0,656)"><rect width="1188" height="26" fill="#1a1a2e"/><text x="16" y="18" fill="#dcdcdc">R24</text><text x="80" y="18" fill="#4caf50" font-weight="700">W</text><text x="140" y="18" fill="#5C9EE8" font-weight="700">CT</text><text x="220" y="18" fill="#dcdcdc">2</text><text x="260" y="18" fill="#dcdcdc">1</text><text x="300" y="18" fill="#dcdcdc">98</text><text x="380" y="18" fill="#dcdcdc">$5200</text><text x="480" y="18" fill="#a0a0b0"></text><text x="580" y="18" fill="#4caf50">defused</text><text x="680" y="18" fill="#a0a0b0">0</text><text x="800" y="18" fill="#4caf50">match point · win 16-8</text></g>
  </g>

  <!-- Summary bar -->
  <g transform="translate(236,886)" font-size="10">
    <text fill="#a0a0b0" font-weight="700">Total:</text>
    <text x="44" fill="#4caf50" font-weight="700">16 W</text>
    <text x="84" fill="#f44336" font-weight="700">8 L</text>
    <text x="120" fill="#dcdcdc">24 K · 19 D · 1976 DMG</text>
    <text x="340" fill="#ffaa00">6 First Kills (3W / 3L)</text>
    <text x="540" fill="#3a3a5a" font-family="JetBrains Mono, monospace">RoundStats · 24 rows · MatchEventState JOIN on demo_name</text>
  </g>
</svg>
