<svg xmlns="http://www.w3.org/2000/svg" viewBox="0 0 1440 900" font-family="Roboto, Inter, system-ui, sans-serif">
  <defs>
    <symbol id="ic-home" viewBox="0 0 24 24"><path d="M12 3 L22 12 L19 12 L19 21 L5 21 L5 12 L2 12 Z M9 15 L15 15 L15 21 L9 21 Z" fill="none" stroke="currentColor" stroke-width="1.5" stroke-linejoin="round"/></symbol>
    <symbol id="ic-brain" viewBox="0 0 24 24"><circle cx="12" cy="12" r="9" fill="none" stroke="currentColor" stroke-width="1.5"/><path d="M12 5 L12 19 M12 8 C7 6 5 11 12 12 M12 12 C17 11 19 16 12 16" fill="none" stroke="currentColor" stroke-width="1.5" stroke-linecap="round"/></symbol>
    <symbol id="ic-list" viewBox="0 0 24 24"><path d="M4 6 L20 6 M4 12 L20 12 M4 18 L20 18" fill="none" stroke="currentColor" stroke-width="1.5" stroke-linecap="round"/><circle cx="2.5" cy="6" r="1.5" fill="currentColor"/><circle cx="2.5" cy="12" r="1.5" fill="currentColor"/><circle cx="2.5" cy="18" r="1.5" fill="currentColor"/></symbol>
    <symbol id="ic-chart" viewBox="0 0 24 24"><rect x="3" y="14" width="5" height="8" fill="none" stroke="currentColor" stroke-width="1.5"/><rect x="10" y="8" width="5" height="14" fill="none" stroke="currentColor" stroke-width="1.5"/><rect x="17" y="3" width="5" height="19" fill="none" stroke="currentColor" stroke-width="1.5"/></symbol>
    <symbol id="ic-cross" viewBox="0 0 24 24"><circle cx="12" cy="12" r="8" fill="none" stroke="currentColor" stroke-width="1.5"/><circle cx="12" cy="12" r="3" fill="none" stroke="currentColor" stroke-width="1.5"/><path d="M12 1 L12 7 M12 17 L12 23 M1 12 L7 12 M17 12 L23 12" stroke="currentColor" stroke-width="1.5" stroke-linecap="round"/></symbol>
    <symbol id="ic-gear" viewBox="0 0 24 24"><circle cx="12" cy="12" r="4" fill="none" stroke="currentColor" stroke-width="1.5"/><path d="M12 4 L12 7 M12 17 L12 20 M4 12 L7 12 M17 12 L20 12 M6.3 6.3 L8.5 8.5 M15.5 15.5 L17.7 17.7 M6.3 17.7 L8.5 15.5 M15.5 8.5 L17.7 6.3" stroke="currentColor" stroke-width="1.5" stroke-linecap="round"/></symbol>
    <symbol id="ic-help" viewBox="0 0 24 24"><circle cx="12" cy="12" r="10" fill="none" stroke="currentColor" stroke-width="1.5"/><path d="M9 9 C9 5 15 5 15 9 C15 12 12 12 12 14" fill="none" stroke="currentColor" stroke-width="1.5" stroke-linecap="round"/><circle cx="12" cy="18" r="1" fill="currentColor"/></symbol>
  </defs>

  <rect width="1440" height="900" fill="#14141e"/>

  <g>
    <rect width="220" height="900" fill="#0f0f2e"/>
    <rect x="219" width="1" height="900" fill="rgba(255,255,255,0.05)"/>
    <g transform="translate(176,12)"><text x="18" y="26" text-anchor="middle" fill="#a0a0b0" font-size="22">≡</text></g>
    <text x="110" y="82" text-anchor="middle" fill="#d96600" font-size="11" letter-spacing="3" font-weight="700">MACENA CS2</text>
    <g transform="translate(8,108)" font-size="13">
      <g color="#a0a0b0"><g transform="translate(12,10)"><use href="#ic-home" width="20" height="20"/></g><text x="44" y="26" fill="#a0a0b0">Home</text></g>
      <g transform="translate(0,44)" color="#a0a0b0"><g transform="translate(12,10)"><use href="#ic-brain" width="20" height="20"/></g><text x="44" y="26" fill="#a0a0b0">Coach</text></g>
      <g transform="translate(0,88)" color="#a0a0b0"><g transform="translate(12,10)"><use href="#ic-list" width="20" height="20"/></g><text x="44" y="26" fill="#a0a0b0">Match History</text></g>
      <g transform="translate(0,132)" color="#d96600">
        <rect width="204" height="40" rx="6" fill="rgba(217,102,0,0.25)"/><rect width="3" height="40" fill="#d96600"/>
        <g transform="translate(12,10)"><use href="#ic-chart" width="20" height="20"/></g>
        <text x="44" y="26" fill="#d96600" font-weight="600">Performance</text>
      </g>
      <g transform="translate(0,176)" color="#a0a0b0"><g transform="translate(12,10)"><use href="#ic-cross" width="20" height="20"/></g><text x="44" y="26" fill="#a0a0b0">Tactical Viewer</text></g>
      <g transform="translate(0,220)" color="#a0a0b0"><g transform="translate(12,10)"><use href="#ic-gear" width="20" height="20"/></g><text x="44" y="26" fill="#a0a0b0">Settings</text></g>
      <g transform="translate(0,264)" color="#a0a0b0"><g transform="translate(12,10)"><use href="#ic-help" width="20" height="20"/></g><text x="44" y="26" fill="#a0a0b0">Help</text></g>
    </g>
    <text x="110" y="872" text-anchor="middle" fill="#3a3a5a" font-size="11" font-family="JetBrains Mono, monospace">v0.1.0</text>
  </g>

  <!-- Title -->
  <text x="236" y="56" fill="#dcdcdc" font-size="20" font-weight="700">Advanced Analytics</text>
  <text x="1424" y="56" text-anchor="end" fill="#a0a0b0" font-size="12">47 personal demos analyzed</text>

  <!-- Rating Trend Card + mini sparkline -->
  <g transform="translate(236,80)">
    <rect width="580" height="200" rx="8" fill="#1a1a2e"/>
    <text x="16" y="28" fill="#dcdcdc" font-size="14" font-weight="700">Rating Trend</text>
    <g transform="translate(16,52)" font-size="14">
      <text fill="#a0a0b0">Matches analyzed:</text>
      <text x="210" fill="#dcdcdc" font-weight="700">47</text>
    </g>
    <g transform="translate(16,80)" font-size="14">
      <text fill="#a0a0b0">Average rating:</text>
      <text x="210" fill="#4db04f" font-weight="700">1.08</text>
    </g>
    <g transform="translate(16,108)" font-size="14">
      <text fill="#a0a0b0">Range:</text>
      <text x="210" fill="#dcdcdc" font-weight="700">0.71  —  1.34</text>
    </g>
    <g transform="translate(16,136)" font-size="14">
      <text fill="#a0a0b0">Recent trend:</text>
      <text x="210" fill="#4db04f" font-weight="700">1.17</text>
      <text x="260" fill="#4db04f" font-weight="700">▲ Improving</text>
    </g>

    <!-- Mini sparkline on right -->
    <g transform="translate(16,170)">
      <text y="0" fill="#5a5a8a" font-size="10">Last 8 matches</text>
    </g>
    <g transform="translate(280,160)">
      <rect x="-8" y="-8" width="290" height="32" rx="4" fill="#0f0f2e"/>
      <!-- baseline 1.0 dashed -->
      <line x1="0" y1="12" x2="270" y2="12" stroke="#3a3a5a" stroke-dasharray="3 3"/>
      <!-- 8 ratings: 0.94,0.74,0.87,1.08,1.04,1.22,1.12,1.34 -->
      <!-- y_pix = 12 + (1.0 - v) * 36  → 0.94→14.2, 0.74→21.4, 0.87→16.7, 1.08→9.1, 1.04→10.6, 1.22→4, 1.12→7.7, 1.34→-0.2 -->
      <polyline points="0,14 39,21 77,17 116,9 154,11 193,4 231,8 270,0"
                fill="none" stroke="#d96600" stroke-width="2"/>
      <circle cx="0"   cy="14" r="3" fill="#ff9900"/>
      <circle cx="39"  cy="21" r="3" fill="#f54236"/>
      <circle cx="77"  cy="17" r="3" fill="#ff9900"/>
      <circle cx="116" cy="9"  r="3" fill="#ff9900"/>
      <circle cx="154" cy="11" r="3" fill="#ff9900"/>
      <circle cx="193" cy="4"  r="3" fill="#4db04f"/>
      <circle cx="231" cy="8"  r="3" fill="#4db04f"/>
      <circle cx="270" cy="0"  r="3" fill="#4db04f"/>
    </g>
  </g>

  <!-- Strengths & Weaknesses -->
  <g transform="translate(832,80)">
    <rect width="592" height="200" rx="8" fill="#1a1a2e"/>
    <text x="16" y="28" fill="#dcdcdc" font-size="14" font-weight="700">Strengths &amp; Weaknesses (vs Pro Average)</text>

    <g transform="translate(16,56)">
      <text fill="#4db04f" font-size="12" font-weight="700">Strengths</text>
      <g transform="translate(0,18)" font-size="12">
        <text fill="#4db04f">+1.8 above avg — Clutch Win %</text>
        <text y="18" fill="#4db04f">+1.4 above avg — Opening Kill Delta</text>
        <text y="36" fill="#4db04f">+1.1 above avg — Flash Assists</text>
        <text y="54" fill="#4db04f">+0.9 above avg — Thru-smoke Kills</text>
      </g>
    </g>

    <g transform="translate(304,56)">
      <text fill="#f54236" font-size="12" font-weight="700">Weaknesses</text>
      <g transform="translate(0,18)" font-size="12">
        <text fill="#f54236">-2.1 below avg — Unused Utility</text>
        <text y="18" fill="#f54236">-1.6 below avg — Trade Response</text>
        <text y="36" fill="#f54236">-1.3 below avg — HS %</text>
        <text y="54" fill="#f54236">-0.8 below avg — Positional Aggression</text>
      </g>
    </g>
  </g>

  <!-- Per-Map Performance (6 cards, 3×2) -->
  <g transform="translate(236,296)">
    <rect width="1188" height="340" rx="8" fill="#1a1a2e"/>
    <text x="16" y="28" fill="#dcdcdc" font-size="14" font-weight="700">Per-Map Performance</text>

    <g transform="translate(16,48)">
      <g>
        <rect width="376" height="124" rx="6" fill="#0f0f2e"/>
        <text x="14" y="24" fill="#dcdcdc" font-size="14" font-weight="700">Mirage</text>
        <text x="14" y="48" fill="#4db04f" font-size="12" font-weight="700">Rating: 1.22 (Good)</text>
        <text x="14" y="72" fill="#a0a0b0" font-size="11">ADR: 84  K/D: 1.19</text>
        <text x="14" y="94" fill="#a0a0b0" font-size="11">12 matches</text>
        <rect x="14" y="104" width="340" height="8" rx="2" fill="#0f0f2e" stroke="#3a3a5a"/>
        <rect x="14" y="104" width="207" height="8" rx="2" fill="#4db04f"/>
      </g>
      <g transform="translate(394,0)">
        <rect width="376" height="124" rx="6" fill="#0f0f2e"/>
        <text x="14" y="24" fill="#dcdcdc" font-size="14" font-weight="700">Inferno</text>
        <text x="14" y="48" fill="#4db04f" font-size="12" font-weight="700">Rating: 1.12 (Good)</text>
        <text x="14" y="72" fill="#a0a0b0" font-size="11">ADR: 74  K/D: 1.05</text>
        <text x="14" y="94" fill="#a0a0b0" font-size="11">9 matches</text>
        <rect x="14" y="104" width="340" height="8" rx="2" fill="#0f0f2e" stroke="#3a3a5a"/>
        <rect x="14" y="104" width="190" height="8" rx="2" fill="#4db04f"/>
      </g>
      <g transform="translate(788,0)">
        <rect width="376" height="124" rx="6" fill="#0f0f2e"/>
        <text x="14" y="24" fill="#dcdcdc" font-size="14" font-weight="700">Nuke</text>
        <text x="14" y="48" fill="#ff9900" font-size="12" font-weight="700">Rating: 0.94 (Average)</text>
        <text x="14" y="72" fill="#a0a0b0" font-size="11">ADR: 58  K/D: 0.87</text>
        <text x="14" y="94" fill="#a0a0b0" font-size="11">8 matches</text>
        <rect x="14" y="104" width="340" height="8" rx="2" fill="#0f0f2e" stroke="#3a3a5a"/>
        <rect x="14" y="104" width="160" height="8" rx="2" fill="#ff9900"/>
      </g>
      <g transform="translate(0,136)">
        <rect width="376" height="124" rx="6" fill="#0f0f2e"/>
        <text x="14" y="24" fill="#dcdcdc" font-size="14" font-weight="700">Ancient</text>
        <text x="14" y="48" fill="#f54236" font-size="12" font-weight="700">Rating: 0.78 (Below Avg)</text>
        <text x="14" y="72" fill="#a0a0b0" font-size="11">ADR: 53  K/D: 0.72</text>
        <text x="14" y="94" fill="#a0a0b0" font-size="11">6 matches</text>
        <rect x="14" y="104" width="340" height="8" rx="2" fill="#0f0f2e" stroke="#3a3a5a"/>
        <rect x="14" y="104" width="132" height="8" rx="2" fill="#f54236"/>
      </g>
      <g transform="translate(394,136)">
        <rect width="376" height="124" rx="6" fill="#0f0f2e"/>
        <text x="14" y="24" fill="#dcdcdc" font-size="14" font-weight="700">Overpass</text>
        <text x="14" y="48" fill="#ff9900" font-size="12" font-weight="700">Rating: 1.08 (Average)</text>
        <text x="14" y="72" fill="#a0a0b0" font-size="11">ADR: 70  K/D: 1.00</text>
        <text x="14" y="94" fill="#a0a0b0" font-size="11">7 matches</text>
        <rect x="14" y="104" width="340" height="8" rx="2" fill="#0f0f2e" stroke="#3a3a5a"/>
        <rect x="14" y="104" width="184" height="8" rx="2" fill="#ff9900"/>
      </g>
      <g transform="translate(788,136)">
        <rect width="376" height="124" rx="6" fill="#0f0f2e"/>
        <text x="14" y="24" fill="#dcdcdc" font-size="14" font-weight="700">Anubis</text>
        <text x="14" y="48" fill="#4db04f" font-size="12" font-weight="700">Rating: 1.18 (Good)</text>
        <text x="14" y="72" fill="#a0a0b0" font-size="11">ADR: 79  K/D: 1.12</text>
        <text x="14" y="94" fill="#a0a0b0" font-size="11">5 matches</text>
        <rect x="14" y="104" width="340" height="8" rx="2" fill="#0f0f2e" stroke="#3a3a5a"/>
        <rect x="14" y="104" width="201" height="8" rx="2" fill="#4db04f"/>
      </g>
    </g>
  </g>

  <!-- Utility Effectiveness -->
  <g transform="translate(236,652)">
    <rect width="1188" height="228" rx="8" fill="#1a1a2e"/>
    <text x="16" y="28" fill="#dcdcdc" font-size="14" font-weight="700">Utility Effectiveness (vs Pro)</text>

    <g transform="translate(16,54)" font-size="13">
      <g>
        <text fill="#a0a0b0">HE Damage/Round:</text>
        <text x="200" fill="#dcdcdc" font-weight="700">12.4</text>
        <text x="266" fill="#f54236">▼ -18% vs pro</text>
      </g>
      <g transform="translate(0,26)">
        <text fill="#a0a0b0">Molotov Damage/Round:</text>
        <text x="200" fill="#dcdcdc" font-weight="700">5.8</text>
        <text x="266" fill="#ff9900">≈ pro level</text>
      </g>
      <g transform="translate(0,52)">
        <text fill="#a0a0b0">Smokes/Round:</text>
        <text x="200" fill="#dcdcdc" font-weight="700">0.80</text>
        <text x="266" fill="#4db04f">▲ +12% vs pro</text>
      </g>
      <g transform="translate(0,78)">
        <text fill="#a0a0b0">Flash Blind Time:</text>
        <text x="200" fill="#dcdcdc" font-weight="700">2.3s</text>
        <text x="266" fill="#4db04f">▲ +8% vs pro</text>
      </g>
      <g transform="translate(0,104)">
        <text fill="#a0a0b0">Flash Assists:</text>
        <text x="200" fill="#dcdcdc" font-weight="700">3.2/match</text>
        <text x="266" fill="#4db04f">▲ +22% vs pro</text>
      </g>
      <g transform="translate(0,130)">
        <text fill="#a0a0b0">Unused Utility:</text>
        <text x="200" fill="#ff9900" font-weight="700">1.2/round</text>
        <text x="266" fill="#f54236">▼ -31% vs pro (waste)</text>
      </g>
    </g>

    <!-- Right side: horizontal bar comparison you vs pro -->
    <g transform="translate(608,50)">
      <text fill="#a0a0b0" font-size="12" font-weight="700">You vs Pro Average — grouped bars</text>
      <g transform="translate(0,26)" font-size="11">
        <text fill="#a0a0b0">HE</text>
        <rect x="48" y="-10" width="240" height="10" rx="2" fill="#0f0f2e"/>
        <rect x="48" y="-10" width="165" height="10" rx="2" fill="#00ccff"/>
        <text x="296" y="0" fill="#00ccff">you 12.4</text>

        <rect x="48" y="4" width="240" height="10" rx="2" fill="#0f0f2e"/>
        <rect x="48" y="4" width="202" height="10" rx="2" fill="#ffaa00"/>
        <text x="296" y="14" fill="#ffaa00">pro 15.2</text>
      </g>
      <g transform="translate(0,64)" font-size="11">
        <text fill="#a0a0b0">Moly</text>
        <rect x="48" y="-10" width="240" height="10" rx="2" fill="#0f0f2e"/>
        <rect x="48" y="-10" width="115" height="10" rx="2" fill="#00ccff"/>
        <text x="296" y="0" fill="#00ccff">you 5.8</text>
        <rect x="48" y="4" width="240" height="10" rx="2" fill="#0f0f2e"/>
        <rect x="48" y="4" width="117" height="10" rx="2" fill="#ffaa00"/>
        <text x="296" y="14" fill="#ffaa00">pro 5.9</text>
      </g>
      <g transform="translate(0,102)" font-size="11">
        <text fill="#a0a0b0">Flash</text>
        <rect x="48" y="-10" width="240" height="10" rx="2" fill="#0f0f2e"/>
        <rect x="48" y="-10" width="184" height="10" rx="2" fill="#00ccff"/>
        <text x="296" y="0" fill="#00ccff">you 3.2</text>
        <rect x="48" y="4" width="240" height="10" rx="2" fill="#0f0f2e"/>
        <rect x="48" y="4" width="150" height="10" rx="2" fill="#ffaa00"/>
        <text x="296" y="14" fill="#ffaa00">pro 2.6</text>
      </g>
      <g transform="translate(0,140)" font-size="11">
        <text fill="#a0a0b0">Waste</text>
        <rect x="48" y="-10" width="240" height="10" rx="2" fill="#0f0f2e"/>
        <rect x="48" y="-10" width="192" height="10" rx="2" fill="#f54236"/>
        <text x="296" y="0" fill="#f54236">you 1.2</text>
        <rect x="48" y="4" width="240" height="10" rx="2" fill="#0f0f2e"/>
        <rect x="48" y="4" width="146" height="10" rx="2" fill="#ffaa00"/>
        <text x="296" y="14" fill="#ffaa00">pro 0.91</text>
      </g>
    </g>
  </g>
</svg>
