<svg xmlns="http://www.w3.org/2000/svg" viewBox="0 0 1440 900" font-family="Roboto, Inter, system-ui, sans-serif">
  <defs>
    <symbol id="ic-home" viewBox="0 0 24 24"><path d="M12 3 L22 12 L19 12 L19 21 L5 21 L5 12 L2 12 Z M9 15 L15 15 L15 21 L9 21 Z" fill="none" stroke="currentColor" stroke-width="1.5" stroke-linejoin="round"/></symbol>
    <symbol id="ic-brain" viewBox="0 0 24 24"><circle cx="12" cy="12" r="9" fill="none" stroke="currentColor" stroke-width="1.5"/><path d="M12 5 L12 19 M12 8 C7 6 5 11 12 12 M12 12 C17 11 19 16 12 16" fill="none" stroke="currentColor" stroke-width="1.5" stroke-linecap="round"/></symbol>
    <symbol id="ic-list" viewBox="0 0 24 24"><path d="M4 6 L20 6 M4 12 L20 12 M4 18 L20 18" fill="none" stroke="currentColor" stroke-width="1.5" stroke-linecap="round"/><circle cx="2.5" cy="6" r="1.5" fill="currentColor"/><circle cx="2.5" cy="12" r="1.5" fill="currentColor"/><circle cx="2.5" cy="18" r="1.5" fill="currentColor"/></symbol>
    <symbol id="ic-chart" viewBox="0 0 24 24"><rect x="3" y="14" width="5" height="8" fill="none" stroke="currentColor" stroke-width="1.5"/><rect x="10" y="8" width="5" height="14" fill="none" stroke="currentColor" stroke-width="1.5"/><rect x="17" y="3" width="5" height="19" fill="none" stroke="currentColor" stroke-width="1.5"/></symbol>
    <symbol id="ic-cross" viewBox="0 0 24 24"><circle cx="12" cy="12" r="8" fill="none" stroke="currentColor" stroke-width="1.5"/><circle cx="12" cy="12" r="3" fill="none" stroke="currentColor" stroke-width="1.5"/><path d="M12 1 L12 7 M12 17 L12 23 M1 12 L7 12 M17 12 L23 12" stroke="currentColor" stroke-width="1.5" stroke-linecap="round"/></symbol>
    <symbol id="ic-gear" viewBox="0 0 24 24"><circle cx="12" cy="12" r="4" fill="none" stroke="currentColor" stroke-width="1.5"/><path d="M12 4 L12 7 M12 17 L12 20 M4 12 L7 12 M17 12 L20 12 M6.3 6.3 L8.5 8.5 M15.5 15.5 L17.7 17.7 M6.3 17.7 L8.5 15.5 M15.5 8.5 L17.7 6.3" stroke="currentColor" stroke-width="1.5" stroke-linecap="round"/></symbol>
    <symbol id="ic-help" viewBox="0 0 24 24"><circle cx="12" cy="12" r="10" fill="none" stroke="currentColor" stroke-width="1.5"/><path d="M9 9 C9 5 15 5 15 9 C15 12 12 12 12 14" fill="none" stroke="currentColor" stroke-width="1.5" stroke-linecap="round"/><circle cx="12" cy="18" r="1" fill="currentColor"/></symbol>
  </defs>

  <rect width="1440" height="900" fill="#14141e"/>

  <!-- Sidebar (Tactical Viewer active) -->
  <g>
    <rect width="220" height="900" fill="#0f0f2e"/>
    <rect x="219" width="1" height="900" fill="rgba(255,255,255,0.05)"/>
    <g transform="translate(176,12)"><text x="18" y="26" text-anchor="middle" fill="#a0a0b0" font-size="22">≡</text></g>
    <text x="110" y="82" text-anchor="middle" fill="#d96600" font-size="11" letter-spacing="3" font-weight="700">MACENA CS2</text>
    <g transform="translate(8,108)" font-size="13">
      <g color="#a0a0b0"><g transform="translate(12,10)"><use href="#ic-home" width="20" height="20"/></g><text x="44" y="26" fill="#a0a0b0">Home</text></g>
      <g transform="translate(0,44)" color="#a0a0b0"><g transform="translate(12,10)"><use href="#ic-brain" width="20" height="20"/></g><text x="44" y="26" fill="#a0a0b0">Coach</text></g>
      <g transform="translate(0,88)" color="#a0a0b0"><g transform="translate(12,10)"><use href="#ic-list" width="20" height="20"/></g><text x="44" y="26" fill="#a0a0b0">Match History</text></g>
      <g transform="translate(0,132)" color="#a0a0b0"><g transform="translate(12,10)"><use href="#ic-chart" width="20" height="20"/></g><text x="44" y="26" fill="#a0a0b0">Performance</text></g>
      <g transform="translate(0,176)" color="#d96600">
        <rect width="204" height="40" rx="6" fill="rgba(217,102,0,0.25)"/><rect width="3" height="40" fill="#d96600"/>
        <g transform="translate(12,10)"><use href="#ic-cross" width="20" height="20"/></g>
        <text x="44" y="26" fill="#d96600" font-weight="600">Tactical Viewer</text>
      </g>
      <g transform="translate(0,220)" color="#a0a0b0"><g transform="translate(12,10)"><use href="#ic-gear" width="20" height="20"/></g><text x="44" y="26" fill="#a0a0b0">Settings</text></g>
      <g transform="translate(0,264)" color="#a0a0b0"><g transform="translate(12,10)"><use href="#ic-help" width="20" height="20"/></g><text x="44" y="26" fill="#a0a0b0">Help</text></g>
    </g>
    <text x="110" y="872" text-anchor="middle" fill="#3a3a5a" font-size="11" font-family="JetBrains Mono, monospace">v0.1.0</text>
  </g>

  <!-- Header row -->
  <g transform="translate(220,0)">
    <rect width="1220" height="52" fill="#14141e"/>
    <text x="20" y="32" fill="#dcdcdc" font-size="18" font-weight="700">Tactical Analyzer</text>
    <text x="180" y="32" fill="#a0a0b0" font-size="12" font-family="JetBrains Mono, monospace">2026-04-22_mirage_comp.dem · round 14 · tick 24,582</text>
    <g transform="translate(1120,10)">
      <rect width="90" height="32" rx="4" fill="#d96600"/>
      <text x="45" y="21" text-anchor="middle" fill="#14141e" font-size="13" font-weight="700">Open Demo</text>
    </g>
  </g>

  <!-- Main area: CT sidebar (200w) + Map (800w) + T sidebar (200w) = 1200 total, y 52→740 (height 688) -->

  <!-- ═══ CT SIDEBAR (200px, left) ═══ -->
  <g transform="translate(220,52)">
    <rect width="200" height="688" fill="#0f0f1a"/>
    <rect x="199" width="1" height="688" fill="#2a2a3a"/>

    <!-- Header -->
    <g transform="translate(12,16)">
      <text fill="#4d80ff" font-size="11" letter-spacing="2" font-weight="700">CT · 4 ALIVE</text>
      <text x="176" text-anchor="end" fill="#4d80ff" font-size="11" font-family="JetBrains Mono, monospace">$21,300</text>
    </g>

    <!-- Player cards (5 × 120px each, 8px gap) -->
    <g transform="translate(8,40)">
      <!-- Player 1: alive -->
      <g>
        <rect width="184" height="112" rx="6" fill="#0f0f2e"/>
        <circle cx="16" cy="16" r="8" fill="#4d80ff"/>
        <text x="32" y="20" fill="#dcdcdc" font-size="12" font-weight="700">niko_bot</text>
        <text x="176" y="20" text-anchor="end" fill="#a0a0b0" font-size="10" font-family="JetBrains Mono, monospace">$3,500</text>
        <!-- HP bar -->
        <g transform="translate(12,36)">
          <text fill="#a0a0b0" font-size="10">HP</text>
          <rect x="26" y="-8" width="134" height="10" rx="2" fill="#1a1a2e"/>
          <rect x="26" y="-8" width="134" height="10" rx="2" fill="#4caf50"/>
          <text x="164" y="1" fill="#dcdcdc" font-size="10">100</text>
        </g>
        <!-- Armor bar -->
        <g transform="translate(12,52)">
          <text fill="#a0a0b0" font-size="10">AR</text>
          <rect x="26" y="-8" width="134" height="10" rx="2" fill="#1a1a2e"/>
          <rect x="26" y="-8" width="134" height="10" rx="2" fill="#4a9eff"/>
          <text x="164" y="1" fill="#dcdcdc" font-size="10">100</text>
        </g>
        <!-- Weapon + defuser -->
        <text x="12" y="78" fill="#dcdcdc" font-size="11" font-family="JetBrains Mono, monospace">M4A1-S + USP</text>
        <text x="12" y="94" fill="#4a9eff" font-size="10">⎇ defuser · 2 flash · 1 smoke</text>
      </g>

      <!-- Player 2 -->
      <g transform="translate(0,120)">
        <rect width="184" height="112" rx="6" fill="#0f0f2e"/>
        <circle cx="16" cy="16" r="8" fill="#4d80ff"/>
        <text x="32" y="20" fill="#dcdcdc" font-size="12" font-weight="700">flames_bot</text>
        <text x="176" y="20" text-anchor="end" fill="#a0a0b0" font-size="10" font-family="JetBrains Mono, monospace">$1,200</text>
        <g transform="translate(12,36)">
          <text fill="#a0a0b0" font-size="10">HP</text>
          <rect x="26" y="-8" width="134" height="10" rx="2" fill="#1a1a2e"/>
          <rect x="26" y="-8" width="112" height="10" rx="2" fill="#4caf50"/>
          <text x="164" y="1" fill="#dcdcdc" font-size="10">84</text>
        </g>
        <g transform="translate(12,52)">
          <text fill="#a0a0b0" font-size="10">AR</text>
          <rect x="26" y="-8" width="134" height="10" rx="2" fill="#1a1a2e"/>
          <rect x="26" y="-8" width="86" height="10" rx="2" fill="#4a9eff"/>
          <text x="164" y="1" fill="#dcdcdc" font-size="10">64</text>
        </g>
        <text x="12" y="78" fill="#dcdcdc" font-size="11" font-family="JetBrains Mono, monospace">AWP + Deagle</text>
        <text x="12" y="94" fill="#a0a0b0" font-size="10">2 smoke · 1 HE · 1 moly</text>
      </g>

      <!-- Player 3 -->
      <g transform="translate(0,240)">
        <rect width="184" height="112" rx="6" fill="#0f0f2e"/>
        <circle cx="16" cy="16" r="8" fill="#4d80ff"/>
        <text x="32" y="20" fill="#dcdcdc" font-size="12" font-weight="700">hooxi_bot</text>
        <text x="176" y="20" text-anchor="end" fill="#a0a0b0" font-size="10" font-family="JetBrains Mono, monospace">$4,200</text>
        <g transform="translate(12,36)">
          <text fill="#a0a0b0" font-size="10">HP</text>
          <rect x="26" y="-8" width="134" height="10" rx="2" fill="#1a1a2e"/>
          <rect x="26" y="-8" width="54" height="10" rx="2" fill="#ff9900"/>
          <text x="164" y="1" fill="#dcdcdc" font-size="10">40</text>
        </g>
        <g transform="translate(12,52)">
          <text fill="#a0a0b0" font-size="10">AR</text>
          <rect x="26" y="-8" width="134" height="10" rx="2" fill="#1a1a2e"/>
          <rect x="26" y="-8" width="28" height="10" rx="2" fill="#ff9900"/>
          <text x="164" y="1" fill="#dcdcdc" font-size="10">21</text>
        </g>
        <text x="12" y="78" fill="#dcdcdc" font-size="11" font-family="JetBrains Mono, monospace">M4A4 + Glock</text>
        <text x="12" y="94" fill="#a0a0b0" font-size="10">1 flash · 1 smoke</text>
      </g>

      <!-- Player 4 -->
      <g transform="translate(0,360)">
        <rect width="184" height="112" rx="6" fill="#0f0f2e"/>
        <circle cx="16" cy="16" r="8" fill="#4d80ff"/>
        <text x="32" y="20" fill="#dcdcdc" font-size="12" font-weight="700">maden_bot</text>
        <text x="176" y="20" text-anchor="end" fill="#a0a0b0" font-size="10" font-family="JetBrains Mono, monospace">$8,100</text>
        <g transform="translate(12,36)">
          <text fill="#a0a0b0" font-size="10">HP</text>
          <rect x="26" y="-8" width="134" height="10" rx="2" fill="#1a1a2e"/>
          <rect x="26" y="-8" width="134" height="10" rx="2" fill="#4caf50"/>
          <text x="164" y="1" fill="#dcdcdc" font-size="10">100</text>
        </g>
        <g transform="translate(12,52)">
          <text fill="#a0a0b0" font-size="10">AR</text>
          <rect x="26" y="-8" width="134" height="10" rx="2" fill="#1a1a2e"/>
          <rect x="26" y="-8" width="134" height="10" rx="2" fill="#4a9eff"/>
          <text x="164" y="1" fill="#dcdcdc" font-size="10">100</text>
        </g>
        <text x="12" y="78" fill="#dcdcdc" font-size="11" font-family="JetBrains Mono, monospace">M4A1-S + P250</text>
        <text x="12" y="94" fill="#a0a0b0" font-size="10">2 flash · 1 smoke · 1 HE</text>
      </g>

      <!-- Player 5: DEAD -->
      <g transform="translate(0,480)" opacity="0.45">
        <rect width="184" height="112" rx="6" fill="#0f0f2e"/>
        <circle cx="16" cy="16" r="8" fill="#3a3a5a"/>
        <text x="32" y="20" fill="#a0a0b0" font-size="12" font-weight="700">cadiaN_bot</text>
        <text x="176" y="20" text-anchor="end" fill="#f54236" font-size="10" font-weight="700">DEAD</text>
        <g transform="translate(12,36)">
          <text fill="#a0a0b0" font-size="10">HP</text>
          <rect x="26" y="-8" width="134" height="10" rx="2" fill="#1a1a2e"/>
          <text x="164" y="1" fill="#a0a0b0" font-size="10">0</text>
        </g>
        <text x="12" y="78" fill="#a0a0b0" font-size="11" font-family="JetBrains Mono, monospace">killed @ palace</text>
        <text x="12" y="94" fill="#5a5a8a" font-size="10">by macena · awp · tick 24,402</text>
      </g>
    </g>
  </g>

  <!-- ═══ MAP CANVAS (x=420, y=52, 820×688) ═══ -->
  <g transform="translate(420,52)">
    <rect width="820" height="688" fill="#0a0a14"/>

    <!-- Mirage-style map outline (stylized abstract) -->
    <g opacity="0.35" font-size="10" fill="#3a3a5a">
      <!-- A site (top-right) -->
      <rect x="540" y="60" width="180" height="140" fill="none" stroke="#3a3a5a" stroke-width="1.5"/>
      <text x="630" y="140" text-anchor="middle" fill="#3a3a5a" font-size="18" font-weight="700">A</text>
      <!-- Ramp to A -->
      <path d="M530 200 L480 280" stroke="#3a3a5a" stroke-width="1"/>
      <!-- Palace / Ticket Booth -->
      <rect x="720" y="120" width="40" height="40" fill="none" stroke="#3a3a5a" stroke-width="1"/>
      <text x="740" y="144" text-anchor="middle" fill="#3a3a5a" font-size="9">palace</text>

      <!-- Jungle -->
      <rect x="360" y="260" width="100" height="80" fill="none" stroke="#3a3a5a" stroke-width="1"/>
      <text x="410" y="304" text-anchor="middle" fill="#3a3a5a" font-size="9">jungle</text>

      <!-- Mid -->
      <rect x="320" y="360" width="160" height="80" fill="none" stroke="#3a3a5a" stroke-width="1"/>
      <text x="400" y="404" text-anchor="middle" fill="#3a3a5a" font-size="13" font-weight="700">MID</text>

      <!-- Connector -->
      <rect x="480" y="360" width="120" height="40" fill="none" stroke="#3a3a5a" stroke-width="1"/>
      <text x="540" y="385" text-anchor="middle" fill="#3a3a5a" font-size="9">connector</text>

      <!-- B site (bottom-center) -->
      <rect x="260" y="500" width="180" height="120" fill="none" stroke="#3a3a5a" stroke-width="1.5"/>
      <text x="350" y="570" text-anchor="middle" fill="#3a3a5a" font-size="18" font-weight="700">B</text>

      <!-- Apartments -->
      <rect x="160" y="440" width="80" height="120" fill="none" stroke="#3a3a5a" stroke-width="1"/>
      <text x="200" y="504" text-anchor="middle" fill="#3a3a5a" font-size="9">apps</text>

      <!-- T spawn (bottom-right) -->
      <rect x="580" y="540" width="140" height="100" fill="none" stroke="#3a3a5a" stroke-width="1"/>
      <text x="650" y="594" text-anchor="middle" fill="#3a3a5a" font-size="10">T spawn</text>

      <!-- CT spawn (top-left) -->
      <rect x="80" y="60" width="140" height="100" fill="none" stroke="#3a3a5a" stroke-width="1"/>
      <text x="150" y="114" text-anchor="middle" fill="#3a3a5a" font-size="10">CT spawn</text>
    </g>

    <!-- View cones (showing gaze direction) -->
    <g opacity="0.35">
      <!-- macena T: going up A from jungle, cone pointing north-east -->
      <path d="M440 280 L530 180 L520 310 Z" fill="#ff9933" opacity="0.2"/>
      <!-- niko CT on palace -->
      <path d="M740 140 L640 220 L760 160 Z" fill="#4d80ff" opacity="0.2"/>
    </g>

    <!-- Trails (recent movement) -->
    <g opacity="0.6">
      <path d="M650 580 L600 480 L500 400 L460 320 L440 290" stroke="#ff9933" stroke-width="2" fill="none" stroke-dasharray="4 2"/>
      <path d="M150 100 L240 180 L400 210 L540 170 L640 160" stroke="#4d80ff" stroke-width="2" fill="none" stroke-dasharray="4 2"/>
    </g>

    <!-- Smokes -->
    <g>
      <circle cx="490" cy="300" r="36" fill="rgba(200,200,200,0.25)" stroke="rgba(200,200,200,0.4)" stroke-dasharray="3 3"/>
      <text x="490" y="304" text-anchor="middle" fill="#dcdcdc" font-size="9">smoke</text>
    </g>

    <!-- Molotov -->
    <g>
      <circle cx="410" cy="430" r="26" fill="rgba(255,100,20,0.3)"/>
      <text x="410" y="434" text-anchor="middle" fill="#ffaa00" font-size="9">moly</text>
    </g>

    <!-- Bomb (C4) planted at B -->
    <g>
      <circle cx="340" cy="560" r="11" fill="#ffaa00"/>
      <text x="340" y="564" text-anchor="middle" fill="#14141e" font-size="9" font-weight="700">C4</text>
      <!-- pulse ring -->
      <circle cx="340" cy="560" r="18" fill="none" stroke="#ffaa00" stroke-width="1.5" opacity="0.5"/>
    </g>

    <!-- T players (amber circles with HP ring) -->
    <g>
      <!-- macena at jungle/A push, highlighted -->
      <g>
        <circle cx="440" cy="290" r="10" fill="#ff9933" stroke="#ffffff" stroke-width="2"/>
        <text x="440" y="275" text-anchor="middle" fill="#ffaa00" font-size="10" font-weight="700">macena</text>
      </g>
      <!-- T2 -->
      <circle cx="400" cy="410" r="9" fill="#ff9933"/>
      <!-- T3 near B -->
      <circle cx="310" cy="560" r="9" fill="#ff9933"/>
      <!-- T4 at apps -->
      <circle cx="200" cy="500" r="9" fill="#ff9933"/>
      <!-- T5 at mid -->
      <circle cx="370" cy="400" r="9" fill="#ff9933"/>
    </g>

    <!-- CT players (blue circles) -->
    <g>
      <!-- CT1 palace -->
      <circle cx="740" cy="140" r="9" fill="#4d80ff"/>
      <!-- CT2 connector -->
      <circle cx="540" cy="380" r="9" fill="#4d80ff"/>
      <!-- CT3 low HP jungle -->
      <circle cx="420" cy="320" r="9" fill="#4d80ff" stroke="#ff9900" stroke-width="1.5"/>
      <!-- CT4 rotating to B -->
      <circle cx="440" cy="540" r="9" fill="#4d80ff"/>
      <!-- CT5 DEAD (grey X) -->
      <g opacity="0.5">
        <circle cx="680" cy="160" r="9" fill="#3a3a5a"/>
        <path d="M674 154 L686 166 M686 154 L674 166" stroke="#f54236" stroke-width="2"/>
      </g>
    </g>

    <!-- Mini-scoreboard top-left of map -->
    <g transform="translate(16,16)">
      <rect width="180" height="54" rx="6" fill="rgba(10,10,20,0.7)"/>
      <text x="12" y="22" fill="#ff9933" font-size="12" font-weight="700">T · MACENA</text>
      <text x="110" y="22" fill="#dcdcdc" font-size="16" font-weight="700">9</text>
      <text x="120" y="22" fill="#a0a0b0" font-size="12">—</text>
      <text x="132" y="22" fill="#dcdcdc" font-size="16" font-weight="700">4</text>
      <text x="160" y="22" text-anchor="end" fill="#4d80ff" font-size="12" font-weight="700">CT</text>
      <text x="12" y="44" fill="#a0a0b0" font-size="10">round 14 · 1:32 remaining · bomb planted</text>
    </g>
  </g>

  <!-- ═══ T SIDEBAR (right, 200px) ═══ -->
  <g transform="translate(1240,52)">
    <rect width="200" height="688" fill="#0f0f1a"/>
    <rect width="1" height="688" fill="#2a2a3a"/>

    <g transform="translate(12,16)">
      <text fill="#ff9933" font-size="11" letter-spacing="2" font-weight="700">T · 5 ALIVE</text>
      <text x="176" text-anchor="end" fill="#ff9933" font-size="11" font-family="JetBrains Mono, monospace">$24,800</text>
    </g>

    <g transform="translate(8,40)">
      <!-- macena (selected) -->
      <g>
        <rect width="184" height="112" rx="6" fill="rgba(255,153,51,0.12)" stroke="#ff9933"/>
        <circle cx="16" cy="16" r="8" fill="#ff9933"/>
        <text x="32" y="20" fill="#dcdcdc" font-size="12" font-weight="700">macena</text>
        <text x="176" y="20" text-anchor="end" fill="#a0a0b0" font-size="10" font-family="JetBrains Mono, monospace">$6,400</text>
        <g transform="translate(12,36)">
          <text fill="#a0a0b0" font-size="10">HP</text>
          <rect x="26" y="-8" width="134" height="10" rx="2" fill="#1a1a2e"/>
          <rect x="26" y="-8" width="120" height="10" rx="2" fill="#4caf50"/>
          <text x="164" y="1" fill="#dcdcdc" font-size="10">89</text>
        </g>
        <g transform="translate(12,52)">
          <text fill="#a0a0b0" font-size="10">AR</text>
          <rect x="26" y="-8" width="134" height="10" rx="2" fill="#1a1a2e"/>
          <rect x="26" y="-8" width="134" height="10" rx="2" fill="#4a9eff"/>
          <text x="164" y="1" fill="#dcdcdc" font-size="10">100</text>
        </g>
        <text x="12" y="78" fill="#dcdcdc" font-size="11" font-family="JetBrains Mono, monospace">AK-47 + Glock</text>
        <text x="12" y="94" fill="#ffaa00" font-size="10">2 flash · 1 smoke · 1 HE</text>
      </g>
      <!-- T2 -->
      <g transform="translate(0,120)">
        <rect width="184" height="112" rx="6" fill="#0f0f2e"/>
        <circle cx="16" cy="16" r="8" fill="#ff9933"/>
        <text x="32" y="20" fill="#dcdcdc" font-size="12" font-weight="700">boombl4_bot</text>
        <text x="176" y="20" text-anchor="end" fill="#a0a0b0" font-size="10" font-family="JetBrains Mono, monospace">$4,700</text>
        <g transform="translate(12,36)">
          <text fill="#a0a0b0" font-size="10">HP</text>
          <rect x="26" y="-8" width="134" height="10" rx="2" fill="#1a1a2e"/>
          <rect x="26" y="-8" width="94" height="10" rx="2" fill="#4caf50"/>
          <text x="164" y="1" fill="#dcdcdc" font-size="10">70</text>
        </g>
        <g transform="translate(12,52)">
          <text fill="#a0a0b0" font-size="10">AR</text>
          <rect x="26" y="-8" width="134" height="10" rx="2" fill="#1a1a2e"/>
          <rect x="26" y="-8" width="72" height="10" rx="2" fill="#4a9eff"/>
          <text x="164" y="1" fill="#dcdcdc" font-size="10">54</text>
        </g>
        <text x="12" y="78" fill="#dcdcdc" font-size="11" font-family="JetBrains Mono, monospace">AK-47 + P250</text>
        <text x="12" y="94" fill="#a0a0b0" font-size="10">1 flash · 2 smoke</text>
      </g>
      <!-- T3 -->
      <g transform="translate(0,240)">
        <rect width="184" height="112" rx="6" fill="#0f0f2e"/>
        <circle cx="16" cy="16" r="8" fill="#ff9933"/>
        <text x="32" y="20" fill="#dcdcdc" font-size="12" font-weight="700">s1mple_bot</text>
        <text x="176" y="20" text-anchor="end" fill="#a0a0b0" font-size="10" font-family="JetBrains Mono, monospace">$2,100</text>
        <g transform="translate(12,36)">
          <text fill="#a0a0b0" font-size="10">HP</text>
          <rect x="26" y="-8" width="134" height="10" rx="2" fill="#1a1a2e"/>
          <rect x="26" y="-8" width="134" height="10" rx="2" fill="#4caf50"/>
          <text x="164" y="1" fill="#dcdcdc" font-size="10">100</text>
        </g>
        <g transform="translate(12,52)">
          <text fill="#a0a0b0" font-size="10">AR</text>
          <rect x="26" y="-8" width="134" height="10" rx="2" fill="#1a1a2e"/>
          <rect x="26" y="-8" width="134" height="10" rx="2" fill="#4a9eff"/>
          <text x="164" y="1" fill="#dcdcdc" font-size="10">100</text>
        </g>
        <text x="12" y="78" fill="#dcdcdc" font-size="11" font-family="JetBrains Mono, monospace">AWP + Deagle</text>
        <text x="12" y="94" fill="#a0a0b0" font-size="10">1 flash · 2 smoke</text>
      </g>
      <!-- T4 -->
      <g transform="translate(0,360)">
        <rect width="184" height="112" rx="6" fill="#0f0f2e"/>
        <circle cx="16" cy="16" r="8" fill="#ff9933"/>
        <text x="32" y="20" fill="#dcdcdc" font-size="12" font-weight="700">electronic_bot</text>
        <text x="176" y="20" text-anchor="end" fill="#a0a0b0" font-size="10" font-family="JetBrains Mono, monospace">$5,200</text>
        <g transform="translate(12,36)">
          <text fill="#a0a0b0" font-size="10">HP</text>
          <rect x="26" y="-8" width="134" height="10" rx="2" fill="#1a1a2e"/>
          <rect x="26" y="-8" width="81" height="10" rx="2" fill="#4caf50"/>
          <text x="164" y="1" fill="#dcdcdc" font-size="10">60</text>
        </g>
        <g transform="translate(12,52)">
          <text fill="#a0a0b0" font-size="10">AR</text>
          <rect x="26" y="-8" width="134" height="10" rx="2" fill="#1a1a2e"/>
          <rect x="26" y="-8" width="81" height="10" rx="2" fill="#4a9eff"/>
          <text x="164" y="1" fill="#dcdcdc" font-size="10">60</text>
        </g>
        <text x="12" y="78" fill="#dcdcdc" font-size="11" font-family="JetBrains Mono, monospace">AK-47 + USP</text>
        <text x="12" y="94" fill="#a0a0b0" font-size="10">2 flash · 1 moly</text>
      </g>
      <!-- T5 -->
      <g transform="translate(0,480)">
        <rect width="184" height="112" rx="6" fill="#0f0f2e"/>
        <circle cx="16" cy="16" r="8" fill="#ff9933"/>
        <text x="32" y="20" fill="#dcdcdc" font-size="12" font-weight="700">perfecto_bot</text>
        <text x="176" y="20" text-anchor="end" fill="#a0a0b0" font-size="10" font-family="JetBrains Mono, monospace">$6,400</text>
        <g transform="translate(12,36)">
          <text fill="#a0a0b0" font-size="10">HP</text>
          <rect x="26" y="-8" width="134" height="10" rx="2" fill="#1a1a2e"/>
          <rect x="26" y="-8" width="134" height="10" rx="2" fill="#4caf50"/>
          <text x="164" y="1" fill="#dcdcdc" font-size="10">100</text>
        </g>
        <g transform="translate(12,52)">
          <text fill="#a0a0b0" font-size="10">AR</text>
          <rect x="26" y="-8" width="134" height="10" rx="2" fill="#1a1a2e"/>
          <rect x="26" y="-8" width="107" height="10" rx="2" fill="#4a9eff"/>
          <text x="164" y="1" fill="#dcdcdc" font-size="10">80</text>
        </g>
        <text x="12" y="78" fill="#dcdcdc" font-size="11" font-family="JetBrains Mono, monospace">AK-47 + P250</text>
        <text x="12" y="94" fill="#a0a0b0" font-size="10">1 flash · 1 smoke · 1 HE</text>
      </g>
    </g>
  </g>

  <!-- ═══ CONTROL PANEL (bottom, y=740-900, h=160) ═══ -->
  <g transform="translate(220,740)">
    <rect width="1220" height="160" fill="#0f0f1a"/>
    <rect width="1220" height="1" fill="#2a2a3a"/>

    <!-- Row 1: selectors -->
    <g transform="translate(12,12)" font-size="12">
      <text x="0" y="18" fill="#a0a0b0">Select map:</text>
      <g transform="translate(70,4)">
        <rect width="140" height="28" rx="4" fill="#1a1a2e" stroke="#3a3a5a"/>
        <text x="12" y="19" fill="#dcdcdc">de_mirage</text>
        <text x="128" y="19" text-anchor="end" fill="#a0a0b0">▾</text>
      </g>

      <text x="230" y="18" fill="#a0a0b0">Select round:</text>
      <g transform="translate(312,4)">
        <rect width="120" height="28" rx="4" fill="#1a1a2e" stroke="#3a3a5a"/>
        <text x="12" y="19" fill="#dcdcdc">Round 14</text>
        <text x="108" y="19" text-anchor="end" fill="#a0a0b0">▾</text>
      </g>

      <text x="452" y="18" fill="#a0a0b0" font-family="JetBrains Mono, monospace">Tick: 24,582</text>

      <!-- Ghost AI checkbox -->
      <g transform="translate(1010,4)" font-size="11">
        <rect width="14" height="14" rx="2" fill="transparent" stroke="#3a3a5a"/>
        <text x="20" y="12" fill="#a0a0b0">Ghost AI</text>
      </g>
      <!-- Critical Moments toggle -->
      <g transform="translate(1108,4)" font-size="11">
        <rect width="14" height="14" rx="2" fill="#d96600"/>
        <path d="M2 8 L6 12 L12 4" stroke="#14141e" stroke-width="2" fill="none"/>
        <text x="20" y="12" fill="#dcdcdc">CM marks</text>
      </g>
    </g>

    <!-- Row 2: playback -->
    <g transform="translate(12,50)">
      <!-- Prev CM -->
      <g>
        <rect width="36" height="36" rx="4" fill="#1a1a2e" stroke="#3a3a5a"/>
        <text x="18" y="23" text-anchor="middle" fill="#dcdcdc" font-size="14">|◄</text>
      </g>
      <!-- Play -->
      <g transform="translate(44,0)">
        <rect width="50" height="36" rx="4" fill="#d96600"/>
        <text x="25" y="23" text-anchor="middle" fill="#14141e" font-size="13" font-weight="700">Play</text>
      </g>
      <!-- Next CM -->
      <g transform="translate(102,0)">
        <rect width="36" height="36" rx="4" fill="#1a1a2e" stroke="#3a3a5a"/>
        <text x="18" y="23" text-anchor="middle" fill="#dcdcdc" font-size="14">►|</text>
      </g>

      <!-- Speed buttons -->
      <g transform="translate(160,0)" font-size="12">
        <g>
          <rect width="50" height="36" rx="4" fill="#1a1a2e" stroke="#3a3a5a"/>
          <text x="25" y="23" text-anchor="middle" fill="#a0a0b0">0.5x</text>
        </g>
        <g transform="translate(58,0)">
          <rect width="50" height="36" rx="4" fill="rgba(217,102,0,0.2)" stroke="#d96600"/>
          <text x="25" y="23" text-anchor="middle" fill="#d96600" font-weight="700">1x</text>
        </g>
        <g transform="translate(116,0)">
          <rect width="50" height="36" rx="4" fill="#1a1a2e" stroke="#3a3a5a"/>
          <text x="25" y="23" text-anchor="middle" fill="#a0a0b0">2x</text>
        </g>
        <g transform="translate(174,0)">
          <rect width="50" height="36" rx="4" fill="#1a1a2e" stroke="#3a3a5a"/>
          <text x="25" y="23" text-anchor="middle" fill="#a0a0b0">4x</text>
        </g>
      </g>
    </g>

    <!-- Timeline (spans full width, y=98) -->
    <g transform="translate(12,98)">
      <rect width="1196" height="32" rx="4" fill="#1a1a2e"/>
      <!-- progress filled ~38% -->
      <rect width="454" height="32" rx="4" fill="rgba(217,102,0,0.25)"/>
      <!-- seek bar line -->
      <rect x="454" y="0" width="2" height="32" fill="#d96600"/>
      <!-- round markers -->
      <g fill="#3a3a5a">
        <rect x="50" y="4" width="2" height="24"/>
        <rect x="100" y="4" width="2" height="24"/>
        <rect x="150" y="4" width="2" height="24"/>
        <rect x="200" y="4" width="2" height="24"/>
        <rect x="250" y="4" width="2" height="24"/>
        <rect x="300" y="4" width="2" height="24"/>
        <rect x="350" y="4" width="2" height="24"/>
        <rect x="400" y="4" width="2" height="24"/>
        <rect x="450" y="4" width="2" height="24"/>
        <rect x="500" y="4" width="2" height="24"/>
        <rect x="550" y="4" width="2" height="24"/>
        <rect x="600" y="4" width="2" height="24"/>
        <rect x="650" y="4" width="2" height="24"/>
        <rect x="700" y="4" width="2" height="24"/>
        <rect x="750" y="4" width="2" height="24"/>
        <rect x="800" y="4" width="2" height="24"/>
      </g>
      <!-- Critical Moment stars -->
      <g font-size="14">
        <text x="82" y="22" fill="#ffaa00" text-anchor="middle">★</text>
        <text x="262" y="22" fill="#ffaa00" text-anchor="middle">★</text>
        <text x="418" y="22" fill="#ffaa00" text-anchor="middle">★</text>
        <text x="610" y="22" fill="#ffaa00" text-anchor="middle">★</text>
        <text x="802" y="22" fill="#ffaa00" text-anchor="middle">★</text>
      </g>
      <!-- tick label -->
      <text x="454" y="-2" text-anchor="middle" fill="#d96600" font-size="10" font-family="JetBrains Mono, monospace">t=24,582</text>
    </g>

    <!-- Status strip -->
    <g transform="translate(12,138)" font-size="10" fill="#3a3a5a" font-family="JetBrains Mono, monospace">
      <text>ChronovisorScanner · 3 scales (micro/standard/macro) · 5 critical moments detected this round</text>
      <text x="1196" text-anchor="end">demo cache hit · 287 MB · demoparser2 v0.4.1</text>
    </g>
  </g>

</svg>
