<svg xmlns="http://www.w3.org/2000/svg" viewBox="0 0 1440 900" font-family="Roboto, Inter, system-ui, sans-serif">
  <defs>
    <symbol id="ic-home" viewBox="0 0 24 24"><path d="M12 3 L22 12 L19 12 L19 21 L5 21 L5 12 L2 12 Z M9 15 L15 15 L15 21 L9 21 Z" fill="none" stroke="currentColor" stroke-width="1.5" stroke-linejoin="round"/></symbol>
    <symbol id="ic-brain" viewBox="0 0 24 24"><circle cx="12" cy="12" r="9" fill="none" stroke="currentColor" stroke-width="1.5"/><path d="M12 5 L12 19 M12 8 C7 6 5 11 12 12 M12 12 C17 11 19 16 12 16" fill="none" stroke="currentColor" stroke-width="1.5" stroke-linecap="round"/></symbol>
    <symbol id="ic-list" viewBox="0 0 24 24"><path d="M4 6 L20 6 M4 12 L20 12 M4 18 L20 18" fill="none" stroke="currentColor" stroke-width="1.5" stroke-linecap="round"/><circle cx="2.5" cy="6" r="1.5" fill="currentColor"/><circle cx="2.5" cy="12" r="1.5" fill="currentColor"/><circle cx="2.5" cy="18" r="1.5" fill="currentColor"/></symbol>
    <symbol id="ic-chart" viewBox="0 0 24 24"><rect x="3" y="14" width="5" height="8" fill="none" stroke="currentColor" stroke-width="1.5"/><rect x="10" y="8" width="5" height="14" fill="none" stroke="currentColor" stroke-width="1.5"/><rect x="17" y="3" width="5" height="19" fill="none" stroke="currentColor" stroke-width="1.5"/></symbol>
    <symbol id="ic-cross" viewBox="0 0 24 24"><circle cx="12" cy="12" r="8" fill="none" stroke="currentColor" stroke-width="1.5"/><circle cx="12" cy="12" r="3" fill="none" stroke="currentColor" stroke-width="1.5"/><path d="M12 1 L12 7 M12 17 L12 23 M1 12 L7 12 M17 12 L23 12" stroke="currentColor" stroke-width="1.5" stroke-linecap="round"/></symbol>
    <symbol id="ic-gear" viewBox="0 0 24 24"><circle cx="12" cy="12" r="4" fill="none" stroke="currentColor" stroke-width="1.5"/><path d="M12 4 L12 7 M12 17 L12 20 M4 12 L7 12 M17 12 L20 12 M6.3 6.3 L8.5 8.5 M15.5 15.5 L17.7 17.7 M6.3 17.7 L8.5 15.5 M15.5 8.5 L17.7 6.3" stroke="currentColor" stroke-width="1.5" stroke-linecap="round"/></symbol>
    <symbol id="ic-help" viewBox="0 0 24 24"><circle cx="12" cy="12" r="10" fill="none" stroke="currentColor" stroke-width="1.5"/><path d="M9 9 C9 5 15 5 15 9 C15 12 12 12 12 14" fill="none" stroke="currentColor" stroke-width="1.5" stroke-linecap="round"/><circle cx="12" cy="18" r="1" fill="currentColor"/></symbol>
  </defs>

  <rect width="1440" height="900" fill="#14141e"/>

  <!-- Sidebar (Settings active) -->
  <g>
    <rect width="220" height="900" fill="#0f0f2e"/>
    <rect x="219" width="1" height="900" fill="rgba(255,255,255,0.05)"/>
    <g transform="translate(176,12)"><text x="18" y="26" text-anchor="middle" fill="#a0a0b0" font-size="22">≡</text></g>
    <text x="110" y="82" text-anchor="middle" fill="#d96600" font-size="11" letter-spacing="3" font-weight="700">MACENA CS2</text>
    <g transform="translate(8,108)" font-size="13">
      <g color="#a0a0b0"><g transform="translate(12,10)"><use href="#ic-home" width="20" height="20"/></g><text x="44" y="26" fill="#a0a0b0">Home</text></g>
      <g transform="translate(0,44)" color="#a0a0b0"><g transform="translate(12,10)"><use href="#ic-brain" width="20" height="20"/></g><text x="44" y="26" fill="#a0a0b0">Coach</text></g>
      <g transform="translate(0,88)" color="#a0a0b0"><g transform="translate(12,10)"><use href="#ic-list" width="20" height="20"/></g><text x="44" y="26" fill="#a0a0b0">Match History</text></g>
      <g transform="translate(0,132)" color="#a0a0b0"><g transform="translate(12,10)"><use href="#ic-chart" width="20" height="20"/></g><text x="44" y="26" fill="#a0a0b0">Performance</text></g>
      <g transform="translate(0,176)" color="#a0a0b0"><g transform="translate(12,10)"><use href="#ic-cross" width="20" height="20"/></g><text x="44" y="26" fill="#a0a0b0">Tactical Viewer</text></g>
      <g transform="translate(0,220)" color="#d96600">
        <rect width="204" height="40" rx="6" fill="rgba(217,102,0,0.25)"/><rect width="3" height="40" fill="#d96600"/>
        <g transform="translate(12,10)"><use href="#ic-gear" width="20" height="20"/></g>
        <text x="44" y="26" fill="#d96600" font-weight="600">Settings</text>
      </g>
      <g transform="translate(0,264)" color="#a0a0b0"><g transform="translate(12,10)"><use href="#ic-help" width="20" height="20"/></g><text x="44" y="26" fill="#a0a0b0">Help</text></g>
    </g>
    <text x="110" y="872" text-anchor="middle" fill="#3a3a5a" font-size="11" font-family="JetBrains Mono, monospace">v0.1.0</text>
  </g>

  <!-- Title -->
  <text x="236" y="56" fill="#dcdcdc" font-size="20" font-weight="700">Settings</text>

  <!-- Tabs -->
  <g transform="translate(236,80)" font-size="13">
    <g>
      <rect width="130" height="36" fill="#1a1a2e"/><rect y="34" width="130" height="2" fill="#d96600"/>
      <text x="65" y="23" text-anchor="middle" fill="#d96600" font-weight="700">Appearance</text>
    </g>
    <g transform="translate(132,0)">
      <rect width="150" height="36" fill="transparent"/>
      <text x="75" y="23" text-anchor="middle" fill="#a0a0b0">Analysis Paths</text>
    </g>
    <g transform="translate(284,0)">
      <rect width="110" height="36" fill="transparent"/>
      <text x="55" y="23" text-anchor="middle" fill="#a0a0b0">Language</text>
    </g>
    <line x1="0" y1="36" x2="1188" y2="36" stroke="#3a3a5a"/>
  </g>

  <!-- Appearance tab content -->

  <!-- Visual Theme card -->
  <g transform="translate(236,136)">
    <rect width="1188" height="128" rx="8" fill="#1a1a2e"/>
    <text x="16" y="28" fill="#dcdcdc" font-size="14" font-weight="700">Visual Theme</text>
    <text x="16" y="48" fill="#a0a0b0" font-size="12">Choose the color palette used across the entire app. Tokens live in design_tokens.py.</text>

    <!-- Theme toggle group (3 options, each 220×56 with preview swatch) -->
    <g transform="translate(16,64)">
      <!-- CS2 (active) -->
      <g>
        <rect width="220" height="56" rx="6" fill="rgba(217,102,0,0.15)" stroke="#d96600" stroke-width="2"/>
        <!-- swatch: 4 colors -->
        <rect x="12" y="12" width="14" height="32" fill="#14141e"/>
        <rect x="28" y="12" width="14" height="32" fill="#1a1a2e"/>
        <rect x="44" y="12" width="14" height="32" fill="#d96600"/>
        <rect x="60" y="12" width="14" height="32" fill="#4caf50"/>
        <text x="86" y="26" fill="#d96600" font-size="13" font-weight="700">CS2</text>
        <text x="86" y="42" fill="#a0a0b0" font-size="11">modern · tactical orange</text>
      </g>
      <!-- CSGO -->
      <g transform="translate(236,0)">
        <rect width="220" height="56" rx="6" fill="transparent" stroke="#3a3a5a"/>
        <rect x="12" y="12" width="14" height="32" fill="#1a1c21"/>
        <rect x="28" y="12" width="14" height="32" fill="#1c1e24"/>
        <rect x="44" y="12" width="14" height="32" fill="#617d8c"/>
        <rect x="60" y="12" width="14" height="32" fill="#c8a030"/>
        <text x="86" y="26" fill="#dcdcdc" font-size="13" font-weight="700">CS:GO</text>
        <text x="86" y="42" fill="#a0a0b0" font-size="11">muted · military steel</text>
      </g>
      <!-- CS1.6 -->
      <g transform="translate(472,0)">
        <rect width="220" height="56" rx="6" fill="transparent" stroke="#3a3a5a"/>
        <rect x="12" y="12" width="14" height="32" fill="#121a12"/>
        <rect x="28" y="12" width="14" height="32" fill="#182418"/>
        <rect x="44" y="12" width="14" height="32" fill="#4db04f"/>
        <rect x="60" y="12" width="14" height="32" fill="#b8a030"/>
        <text x="86" y="26" fill="#dcdcdc" font-size="13" font-weight="700">CS 1.6</text>
        <text x="86" y="42" fill="#a0a0b0" font-size="11">retro · terminal green</text>
      </g>
    </g>
  </g>

  <!-- Wallpaper card -->
  <g transform="translate(236,280)">
    <rect width="1188" height="168" rx="8" fill="#1a1a2e"/>
    <text x="16" y="28" fill="#dcdcdc" font-size="14" font-weight="700">Wallpaper</text>
    <text x="16" y="48" fill="#a0a0b0" font-size="12">Background image shown behind the app surface.</text>

    <g transform="translate(16,64)">
      <!-- 4 wallpaper options 200×90 -->
      <g>
        <rect width="200" height="90" rx="6" fill="#1a1a2e" stroke="#d96600" stroke-width="2"/>
        <rect width="200" height="90" rx="6" fill="url(#wp1)"/>
        <defs><linearGradient id="wp1" x1="0" y1="0" x2="1" y2="1"><stop offset="0" stop-color="#14141e"/><stop offset="1" stop-color="#d96600" stop-opacity="0.4"/></linearGradient></defs>
        <text x="100" y="50" text-anchor="middle" fill="#ffffff" font-size="13" font-weight="700">CS2 16:9</text>
        <text x="100" y="72" text-anchor="middle" fill="#ffffff" font-size="11" opacity="0.8">1920×1080</text>
      </g>
      <g transform="translate(216,0)">
        <rect width="200" height="90" rx="6" fill="#1a1a2e" stroke="#3a3a5a"/>
        <rect width="200" height="90" rx="6" fill="url(#wp2)"/>
        <defs><linearGradient id="wp2" x1="0" y1="0" x2="1" y2="1"><stop offset="0" stop-color="#1a1c21"/><stop offset="1" stop-color="#617d8c" stop-opacity="0.5"/></linearGradient></defs>
        <text x="100" y="50" text-anchor="middle" fill="#ffffff" font-size="13" font-weight="700">CSGO</text>
        <text x="100" y="72" text-anchor="middle" fill="#ffffff" font-size="11" opacity="0.8">1920×1080</text>
      </g>
      <g transform="translate(432,0)">
        <rect width="200" height="90" rx="6" fill="#1a1a2e" stroke="#3a3a5a"/>
        <rect width="200" height="90" rx="6" fill="url(#wp3)"/>
        <defs><linearGradient id="wp3" x1="0" y1="0" x2="1" y2="1"><stop offset="0" stop-color="#121a12"/><stop offset="1" stop-color="#4db04f" stop-opacity="0.5"/></linearGradient></defs>
        <text x="100" y="50" text-anchor="middle" fill="#ffffff" font-size="13" font-weight="700">CS 1.6</text>
        <text x="100" y="72" text-anchor="middle" fill="#ffffff" font-size="11" opacity="0.8">1920×1080</text>
      </g>
      <g transform="translate(648,0)">
        <rect width="200" height="90" rx="6" fill="#1a1a2e" stroke="#3a3a5a" stroke-dasharray="4 3"/>
        <text x="100" y="50" text-anchor="middle" fill="#a0a0b0" font-size="13">No wallpaper</text>
      </g>
    </g>
  </g>

  <!-- Font Size card -->
  <g transform="translate(236,464)">
    <rect width="582" height="160" rx="8" fill="#1a1a2e"/>
    <text x="16" y="28" fill="#dcdcdc" font-size="14" font-weight="700">Appearance</text>

    <text x="16" y="58" fill="#a0a0b0" font-size="12">Font size:</text>
    <g transform="translate(16,72)">
      <g>
        <rect width="110" height="32" rx="4" fill="transparent" stroke="#3a3a5a"/>
        <text x="55" y="21" text-anchor="middle" fill="#a0a0b0" font-size="12">Small (11px)</text>
      </g>
      <g transform="translate(118,0)">
        <rect width="120" height="32" rx="4" fill="rgba(217,102,0,0.2)" stroke="#d96600"/>
        <text x="60" y="21" text-anchor="middle" fill="#d96600" font-size="13" font-weight="700">Medium (13px)</text>
      </g>
      <g transform="translate(246,0)">
        <rect width="110" height="32" rx="4" fill="transparent" stroke="#3a3a5a"/>
        <text x="55" y="21" text-anchor="middle" fill="#a0a0b0" font-size="14">Large (16px)</text>
      </g>
    </g>

    <!-- Font type row -->
    <text x="16" y="128" fill="#a0a0b0" font-size="12">Interface font:</text>
    <g transform="translate(16,140)">
      <g>
        <rect width="90" height="18" rx="3" fill="rgba(217,102,0,0.2)" stroke="#d96600"/>
        <text x="45" y="13" text-anchor="middle" fill="#d96600" font-size="10" font-weight="700">Roboto</text>
      </g>
      <g transform="translate(98,0)">
        <rect width="90" height="18" rx="3" fill="transparent" stroke="#3a3a5a"/>
        <text x="45" y="13" text-anchor="middle" fill="#a0a0b0" font-size="10">JetBrains Mono</text>
      </g>
      <g transform="translate(196,0)">
        <rect width="90" height="18" rx="3" fill="transparent" stroke="#3a3a5a"/>
        <text x="45" y="13" text-anchor="middle" fill="#a0a0b0" font-size="10">New Hope</text>
      </g>
      <g transform="translate(294,0)">
        <rect width="90" height="18" rx="3" fill="transparent" stroke="#3a3a5a"/>
        <text x="45" y="13" text-anchor="middle" fill="#a0a0b0" font-size="10">CS Regular</text>
      </g>
      <g transform="translate(392,0)">
        <rect width="90" height="18" rx="3" fill="transparent" stroke="#3a3a5a"/>
        <text x="45" y="13" text-anchor="middle" fill="#a0a0b0" font-size="10">YUPIX</text>
      </g>
    </g>
  </g>

  <!-- Live preview card -->
  <g transform="translate(834,464)">
    <rect width="590" height="160" rx="8" fill="#1a1a2e"/>
    <text x="16" y="28" fill="#dcdcdc" font-size="14" font-weight="700">Live Preview</text>

    <g transform="translate(16,50)">
      <!-- A mini "dashboard card" preview -->
      <rect width="558" height="94" rx="6" fill="#1a1a2e" stroke="#3a3a5a"/>
      <text x="12" y="22" fill="#dcdcdc" font-size="13" font-weight="700">Sample Card</text>
      <text x="12" y="40" fill="#a0a0b0" font-size="11">This is how body text appears in the Medium size.</text>
      <text x="12" y="62" fill="#d96600" font-size="13" font-weight="700">●</text>
      <text x="26" y="62" fill="#dcdcdc" font-size="11">Accent primary = #d96600</text>
      <text x="12" y="80" fill="#4caf50" font-family="JetBrains Mono, monospace" font-size="10">mono: JetBrains Mono · fallback Roboto</text>
    </g>
  </g>

  <!-- Account / Profile quick link -->
  <g transform="translate(236,640)">
    <rect width="1188" height="104" rx="8" fill="#1a1a2e"/>
    <text x="16" y="28" fill="#dcdcdc" font-size="14" font-weight="700">Quick Links</text>
    <g transform="translate(16,52)">
      <g>
        <rect width="160" height="36" rx="4" fill="transparent" stroke="#3a3a5a"/>
        <text x="80" y="23" text-anchor="middle" fill="#dcdcdc" font-size="12">In-Game Name</text>
      </g>
      <g transform="translate(168,0)">
        <rect width="160" height="36" rx="4" fill="transparent" stroke="#3a3a5a"/>
        <text x="80" y="23" text-anchor="middle" fill="#dcdcdc" font-size="12">Steam Config</text>
      </g>
      <g transform="translate(336,0)">
        <rect width="160" height="36" rx="4" fill="transparent" stroke="#3a3a5a"/>
        <text x="80" y="23" text-anchor="middle" fill="#dcdcdc" font-size="12">FaceIt Config</text>
      </g>
      <g transform="translate(504,0)">
        <rect width="160" height="36" rx="4" fill="transparent" stroke="#3a3a5a"/>
        <text x="80" y="23" text-anchor="middle" fill="#dcdcdc" font-size="12">Reset Wizard</text>
      </g>
      <g transform="translate(672,0)">
        <rect width="220" height="36" rx="4" fill="transparent" stroke="#f54236"/>
        <text x="110" y="23" text-anchor="middle" fill="#f54236" font-size="12">Wipe local data</text>
      </g>
    </g>
  </g>

  <!-- Footer note -->
  <text x="236" y="870" fill="#3a3a5a" font-size="10" font-family="JetBrains Mono, monospace">settings saved to ~/.config/macena-cs2-analyzer/user_settings.json · chmod 0o600 (FE-04)</text>
</svg>
