<svg xmlns="http://www.w3.org/2000/svg" viewBox="0 0 1440 900" font-family="Inter, 'Segoe UI', system-ui, sans-serif">
  <rect width="1440" height="900" fill="#0b0b14"/>

  <text x="60" y="50" fill="#dcdcdc" font-size="22" font-weight="700">Chart Library — widgets/charts/*</text>
  <text x="60" y="72" fill="#a0a0b0" font-size="12">5 QChartView subclasses + 1 QPainter radar · chart_bg #1a1a1a · primary #00ccff · secondary #ffaa00</text>

  <!-- ═══ 1. RadarChart (QPainter, 8 axes) ═══ -->
  <g transform="translate(60 100)">
    <rect width="440" height="340" rx="10" fill="#1a1a2e" stroke="#3a3a5a"/>
    <text x="20" y="30" fill="#dcdcdc" font-size="14" font-weight="700">RadarChart</text>
    <text x="20" y="48" fill="#a0a0b0" font-size="11">radar_chart.py · QPainter · 0–100 scale · 8 axes</text>

    <g transform="translate(220 200)">
      <!-- grid polygons at 20/40/60/80/100 -->
      <g fill="none" stroke="#3a3a5a" stroke-width="0.8" opacity="0.6">
        <polygon points="0,-100 70.71,-70.71 100,0 70.71,70.71 0,100 -70.71,70.71 -100,0 -70.71,-70.71"/>
        <polygon points="0,-80 56.57,-56.57 80,0 56.57,56.57 0,80 -56.57,56.57 -80,0 -56.57,-56.57"/>
        <polygon points="0,-60 42.43,-42.43 60,0 42.43,42.43 0,60 -42.43,42.43 -60,0 -42.43,-42.43"/>
        <polygon points="0,-40 28.28,-28.28 40,0 28.28,28.28 0,40 -28.28,28.28 -40,0 -28.28,-28.28"/>
        <polygon points="0,-20 14.14,-14.14 20,0 14.14,14.14 0,20 -14.14,14.14 -20,0 -14.14,-14.14"/>
      </g>
      <!-- axis lines -->
      <g stroke="#3a3a5a" stroke-width="0.8" opacity="0.5">
        <line x1="0" y1="0" x2="0" y2="-100"/>
        <line x1="0" y1="0" x2="70.71" y2="-70.71"/>
        <line x1="0" y1="0" x2="100" y2="0"/>
        <line x1="0" y1="0" x2="70.71" y2="70.71"/>
        <line x1="0" y1="0" x2="0" y2="100"/>
        <line x1="0" y1="0" x2="-70.71" y2="70.71"/>
        <line x1="0" y1="0" x2="-100" y2="0"/>
        <line x1="0" y1="0" x2="-70.71" y2="-70.71"/>
      </g>
      <!-- data polygon: [85,72,68,90,55,78,62,80] out of 100 -->
      <polygon points="0,-85 50.91,-50.91 68,0 63.64,63.64 0,55 -55.15,55.15 -62,0 -56.57,-56.57"
               fill="rgba(217,102,0,0.28)" stroke="#d96600" stroke-width="1.6"/>
      <g fill="#d96600">
        <circle cx="0" cy="-85" r="2.5"/>
        <circle cx="50.91" cy="-50.91" r="2.5"/>
        <circle cx="68" cy="0" r="2.5"/>
        <circle cx="63.64" cy="63.64" r="2.5"/>
        <circle cx="0" cy="55" r="2.5"/>
        <circle cx="-55.15" cy="55.15" r="2.5"/>
        <circle cx="-62" cy="0" r="2.5"/>
        <circle cx="-56.57" cy="-56.57" r="2.5"/>
      </g>
      <!-- axis labels -->
      <g fill="#a0a0b0" font-size="10" text-anchor="middle">
        <text x="0" y="-112">AIM</text>
        <text x="86" y="-82">MOVE</text>
        <text x="118" y="4">POS</text>
        <text x="86" y="88">UTIL</text>
        <text x="0" y="118">CLUTCH</text>
        <text x="-86" y="88">ECON</text>
        <text x="-118" y="4">DUEL</text>
        <text x="-86" y="-82">TRADE</text>
      </g>
    </g>

    <text x="20" y="326" fill="#3a3a5a" font-size="10" font-family="'JetBrains Mono', monospace">plot({"aim":85,"move":72,…})</text>
  </g>

  <!-- ═══ 2. MomentumChart ═══ -->
  <g transform="translate(520 100)">
    <rect width="440" height="340" rx="10" fill="#1a1a2e" stroke="#3a3a5a"/>
    <text x="20" y="30" fill="#dcdcdc" font-size="14" font-weight="700">MomentumChart</text>
    <text x="20" y="48" fill="#a0a0b0" font-size="11">momentum_chart.py · QBarSeries · side-colored per round</text>

    <!-- axes -->
    <rect x="40" y="80" width="380" height="200" fill="#1a1a1a"/>
    <g stroke="rgba(255,255,255,0.08)" stroke-width="0.5">
      <line x1="40" y1="120" x2="420" y2="120"/>
      <line x1="40" y1="160" x2="420" y2="160"/>
      <line x1="40" y1="180" x2="420" y2="180" stroke="rgba(255,255,255,0.25)" stroke-width="1"/>
      <line x1="40" y1="200" x2="420" y2="200"/>
      <line x1="40" y1="240" x2="420" y2="240"/>
    </g>
    <text x="34" y="124" fill="#a0a0b0" font-size="9" text-anchor="end">+100</text>
    <text x="34" y="184" fill="#a0a0b0" font-size="9" text-anchor="end">0</text>
    <text x="34" y="244" fill="#a0a0b0" font-size="9" text-anchor="end">-100</text>

    <!-- bars: each round 14.8w, 2 gap; 24 rounds (180 = zero line) -->
    <!-- CT wins rounds 1-12 (blue), T wins rounds 13-24 (orange); mix some losses -->
    <g>
      <!-- Round 1-12: CT side user -->
      <rect x="43" y="180" width="12" height="-45" fill="#4a9eff" transform="scale(1 1)"/>
      <rect x="43" y="135" width="12" height="45" fill="#4a9eff"/>
      <rect x="58" y="150" width="12" height="30" fill="#4a9eff"/>
      <rect x="73" y="180" width="12" height="25" fill="#ff9933"/>
      <rect x="88" y="140" width="12" height="40" fill="#4a9eff"/>
      <rect x="103" y="180" width="12" height="36" fill="#ff9933"/>
      <rect x="118" y="148" width="12" height="32" fill="#4a9eff"/>
      <rect x="133" y="130" width="12" height="50" fill="#4a9eff"/>
      <rect x="148" y="160" width="12" height="20" fill="#4a9eff"/>
      <rect x="163" y="180" width="12" height="42" fill="#ff9933"/>
      <rect x="178" y="144" width="12" height="36" fill="#4a9eff"/>
      <rect x="193" y="152" width="12" height="28" fill="#4a9eff"/>
      <!-- half-time -->
      <line x1="212" y1="80" x2="212" y2="280" stroke="#d96600" stroke-width="1" stroke-dasharray="2 2" opacity="0.6"/>
      <text x="212" y="74" fill="#d96600" font-size="9" text-anchor="middle">HALF</text>
      <!-- Round 13-24: T side user -->
      <rect x="220" y="180" width="12" height="46" fill="#4a9eff"/>
      <rect x="235" y="125" width="12" height="55" fill="#ff9933"/>
      <rect x="250" y="145" width="12" height="35" fill="#ff9933"/>
      <rect x="265" y="180" width="12" height="32" fill="#4a9eff"/>
      <rect x="280" y="138" width="12" height="42" fill="#ff9933"/>
      <rect x="295" y="128" width="12" height="52" fill="#ff9933"/>
      <rect x="310" y="180" width="12" height="24" fill="#4a9eff"/>
      <rect x="325" y="146" width="12" height="34" fill="#ff9933"/>
      <rect x="340" y="134" width="12" height="46" fill="#ff9933"/>
      <rect x="355" y="155" width="12" height="25" fill="#ff9933"/>
      <rect x="370" y="141" width="12" height="39" fill="#ff9933"/>
      <rect x="385" y="152" width="12" height="28" fill="#ff9933"/>
    </g>

    <text x="40" y="296" fill="#a0a0b0" font-size="9">R1</text>
    <text x="218" y="296" fill="#a0a0b0" font-size="9">R12</text>
    <text x="396" y="296" fill="#a0a0b0" font-size="9">R24</text>

    <!-- legend -->
    <g transform="translate(260 306)">
      <rect width="10" height="10" fill="#4a9eff"/>
      <text x="14" y="9" fill="#a0a0b0" font-size="10">CT side</text>
      <rect x="70" width="10" height="10" fill="#ff9933"/>
      <text x="84" y="9" fill="#a0a0b0" font-size="10">T side</text>
    </g>

    <text x="20" y="326" fill="#3a3a5a" font-size="10" font-family="'JetBrains Mono', monospace">per-round momentum · side-aware</text>
  </g>

  <!-- ═══ 3. EconomyChart ═══ -->
  <g transform="translate(980 100)">
    <rect width="400" height="340" rx="10" fill="#1a1a2e" stroke="#3a3a5a"/>
    <text x="20" y="30" fill="#dcdcdc" font-size="14" font-weight="700">EconomyChart</text>
    <text x="20" y="48" fill="#a0a0b0" font-size="11">economy_chart.py · grouped bars · $K loss-bonus ladder</text>

    <rect x="46" y="80" width="334" height="200" fill="#1a1a1a"/>
    <g stroke="rgba(255,255,255,0.08)" stroke-width="0.5">
      <line x1="46" y1="120" x2="380" y2="120"/>
      <line x1="46" y1="160" x2="380" y2="160"/>
      <line x1="46" y1="200" x2="380" y2="200"/>
      <line x1="46" y1="240" x2="380" y2="240"/>
      <line x1="46" y1="280" x2="380" y2="280" stroke="rgba(255,255,255,0.25)" stroke-width="1"/>
    </g>
    <g fill="#a0a0b0" font-size="9" text-anchor="end">
      <text x="40" y="124">$8K</text>
      <text x="40" y="164">$6K</text>
      <text x="40" y="204">$4K</text>
      <text x="40" y="244">$2K</text>
      <text x="40" y="284">$0</text>
    </g>

    <!-- Bars per round — CT equipment (blue) + T equipment (orange), alternating pattern -->
    <g>
      <!-- R1 pistol -->
      <rect x="52" y="260" width="10" height="20" fill="#4a9eff"/>
      <rect x="62" y="260" width="10" height="20" fill="#ff9933"/>
      <!-- R2 eco -->
      <rect x="76" y="268" width="10" height="12" fill="#4a9eff"/>
      <rect x="86" y="268" width="10" height="12" fill="#ff9933"/>
      <!-- R3 full buy CT / force T -->
      <rect x="100" y="124" width="10" height="156" fill="#4a9eff"/>
      <rect x="110" y="200" width="10" height="80" fill="#ff9933"/>
      <!-- R4 -->
      <rect x="124" y="130" width="10" height="150" fill="#4a9eff"/>
      <rect x="134" y="170" width="10" height="110" fill="#ff9933"/>
      <!-- R5 -->
      <rect x="148" y="128" width="10" height="152" fill="#4a9eff"/>
      <rect x="158" y="126" width="10" height="154" fill="#ff9933"/>
      <!-- R6 -->
      <rect x="172" y="144" width="10" height="136" fill="#4a9eff"/>
      <rect x="182" y="132" width="10" height="148" fill="#ff9933"/>
      <!-- R7 -->
      <rect x="196" y="132" width="10" height="148" fill="#4a9eff"/>
      <rect x="206" y="138" width="10" height="142" fill="#ff9933"/>
      <!-- R8 -->
      <rect x="220" y="140" width="10" height="140" fill="#4a9eff"/>
      <rect x="230" y="134" width="10" height="146" fill="#ff9933"/>
      <!-- R9 eco T -->
      <rect x="244" y="140" width="10" height="140" fill="#4a9eff"/>
      <rect x="254" y="254" width="10" height="26" fill="#ff9933"/>
      <!-- R10 -->
      <rect x="268" y="136" width="10" height="144" fill="#4a9eff"/>
      <rect x="278" y="128" width="10" height="152" fill="#ff9933"/>
      <!-- R11 -->
      <rect x="292" y="150" width="10" height="130" fill="#4a9eff"/>
      <rect x="302" y="136" width="10" height="144" fill="#ff9933"/>
      <!-- R12 -->
      <rect x="316" y="142" width="10" height="138" fill="#4a9eff"/>
      <rect x="326" y="130" width="10" height="150" fill="#ff9933"/>
      <!-- R13 -->
      <rect x="340" y="138" width="10" height="142" fill="#4a9eff"/>
      <rect x="350" y="124" width="10" height="156" fill="#ff9933"/>
    </g>

    <text x="52" y="296" fill="#a0a0b0" font-size="9">R1</text>
    <text x="354" y="296" fill="#a0a0b0" font-size="9">R13</text>

    <g transform="translate(240 306)">
      <rect width="10" height="10" fill="#4a9eff"/>
      <text x="14" y="9" fill="#a0a0b0" font-size="10">CT equip $</text>
      <rect x="92" width="10" height="10" fill="#ff9933"/>
      <text x="106" y="9" fill="#a0a0b0" font-size="10">T equip $</text>
    </g>

    <text x="20" y="326" fill="#3a3a5a" font-size="10" font-family="'JetBrains Mono', monospace">eco_state = round_eq / full_buy_cost</text>
  </g>

  <!-- ═══ 4. TrendChart (rating with ref lines) ═══ -->
  <g transform="translate(60 460)">
    <rect width="440" height="340" rx="10" fill="#1a1a2e" stroke="#3a3a5a"/>
    <text x="20" y="30" fill="#dcdcdc" font-size="14" font-weight="700">TrendChart / RatingSparkline</text>
    <text x="20" y="48" fill="#a0a0b0" font-size="11">rating_sparkline.py · 1.0/1.1/0.9 reference lines + filled area</text>

    <rect x="40" y="80" width="380" height="200" fill="#1a1a1a"/>
    <!-- Ref lines -->
    <line x1="40" y1="140" x2="420" y2="140" stroke="#4db04f" stroke-width="0.8" stroke-dasharray="3 3" opacity="0.7"/>
    <line x1="40" y1="180" x2="420" y2="180" stroke="rgba(255,255,255,0.3)" stroke-width="0.8" stroke-dasharray="2 2"/>
    <line x1="40" y1="220" x2="420" y2="220" stroke="#f54236" stroke-width="0.8" stroke-dasharray="3 3" opacity="0.7"/>
    <g fill="#4db04f" font-size="9">
      <text x="422" y="143">1.10</text>
    </g>
    <g fill="#a0a0b0" font-size="9">
      <text x="422" y="183">1.00</text>
    </g>
    <g fill="#f54236" font-size="9">
      <text x="422" y="223">0.90</text>
    </g>

    <!-- Area fill below line -->
    <path d="M46 172 L78 158 L110 166 L142 148 L174 152 L206 138 L238 146 L270 128 L302 144 L334 130 L366 140 L398 124 L398 240 L46 240 Z"
          fill="rgba(0,204,255,0.15)"/>
    <!-- Line -->
    <path d="M46 172 L78 158 L110 166 L142 148 L174 152 L206 138 L238 146 L270 128 L302 144 L334 130 L366 140 L398 124"
          fill="none" stroke="#00ccff" stroke-width="2"/>
    <!-- Points -->
    <g fill="#00ccff">
      <circle cx="46" cy="172" r="3"/>
      <circle cx="78" cy="158" r="3"/>
      <circle cx="110" cy="166" r="3"/>
      <circle cx="142" cy="148" r="3"/>
      <circle cx="174" cy="152" r="3"/>
      <circle cx="206" cy="138" r="3"/>
      <circle cx="238" cy="146" r="3"/>
      <circle cx="270" cy="128" r="3"/>
      <circle cx="302" cy="144" r="3"/>
      <circle cx="334" cy="130" r="3"/>
      <circle cx="366" cy="140" r="3"/>
      <circle cx="398" cy="124" r="3"/>
    </g>

    <text x="46" y="296" fill="#a0a0b0" font-size="9">Match 1</text>
    <text x="398" y="296" fill="#a0a0b0" font-size="9" text-anchor="end">Match 12</text>
    <text x="20" y="326" fill="#3a3a5a" font-size="10" font-family="'JetBrains Mono', monospace">history[].rating · QAreaSeries fill</text>
  </g>

  <!-- ═══ 5. UtilityBarChart ═══ -->
  <g transform="translate(520 460)">
    <rect width="440" height="340" rx="10" fill="#1a1a2e" stroke="#3a3a5a"/>
    <text x="20" y="30" fill="#dcdcdc" font-size="14" font-weight="700">UtilityBarChart</text>
    <text x="20" y="48" fill="#a0a0b0" font-size="11">utility_bar_chart.py · horizontal QBarSeries</text>

    <rect x="140" y="80" width="280" height="200" fill="#1a1a1a"/>
    <g stroke="rgba(255,255,255,0.08)" stroke-width="0.5">
      <line x1="140" y1="80" x2="140" y2="280" stroke="rgba(255,255,255,0.25)" stroke-width="1"/>
      <line x1="210" y1="80" x2="210" y2="280"/>
      <line x1="280" y1="80" x2="280" y2="280"/>
      <line x1="350" y1="80" x2="350" y2="280"/>
    </g>
    <g fill="#a0a0b0" font-size="9" text-anchor="middle">
      <text x="140" y="296">0</text>
      <text x="210" y="296">8</text>
      <text x="280" y="296">16</text>
      <text x="350" y="296">24</text>
      <text x="420" y="296">32</text>
    </g>

    <!-- 6 rows: flash, smoke, molotov, HE, decoy, util dmg -->
    <g font-size="11" fill="#dcdcdc">
      <text x="20" y="110">Flashes thrown</text>
      <rect x="140" y="96" width="180" height="18" fill="#00ccff"/>
      <text x="330" y="110" fill="#dcdcdc">24</text>

      <text x="20" y="138">Smokes thrown</text>
      <rect x="140" y="124" width="140" height="18" fill="#00ccff"/>
      <text x="290" y="138" fill="#dcdcdc">18</text>

      <text x="20" y="166">Molotov/Incendiary</text>
      <rect x="140" y="152" width="84" height="18" fill="#ff9933"/>
      <text x="234" y="166" fill="#dcdcdc">11</text>

      <text x="20" y="194">HE grenades</text>
      <rect x="140" y="180" width="106" height="18" fill="#ff4444"/>
      <text x="256" y="194" fill="#dcdcdc">14</text>

      <text x="20" y="222">Decoys</text>
      <rect x="140" y="208" width="22" height="18" fill="#a0a0b0"/>
      <text x="172" y="222" fill="#dcdcdc">3</text>

      <text x="20" y="250">Util dmg</text>
      <rect x="140" y="236" width="224" height="18" fill="#ffaa00"/>
      <text x="374" y="250" fill="#dcdcdc">312</text>
    </g>

    <text x="20" y="326" fill="#3a3a5a" font-size="10" font-family="'JetBrains Mono', monospace">{flash:24, smoke:18, mol:11, HE:14, decoy:3}</text>
  </g>

  <!-- ═══ 6. MapPerformance grid (6 cards) ═══ -->
  <g transform="translate(980 460)">
    <rect width="400" height="340" rx="10" fill="#1a1a2e" stroke="#3a3a5a"/>
    <text x="20" y="30" fill="#dcdcdc" font-size="14" font-weight="700">Per-Map Grid</text>
    <text x="20" y="48" fill="#a0a0b0" font-size="11">performance_screen.py · text-only (no QChartView, GPU-safe)</text>

    <!-- 3x2 grid of map cards -->
    <g font-family="Inter, sans-serif">
      <g transform="translate(16 80)">
        <rect width="116" height="70" rx="6" fill="#0f0f2e" stroke="#3a3a5a"/>
        <text x="58" y="20" fill="#dcdcdc" font-size="11" font-weight="700" text-anchor="middle">de_mirage</text>
        <text x="58" y="40" fill="#4db04f" font-size="20" font-weight="700" text-anchor="middle">1.28</text>
        <text x="58" y="58" fill="#a0a0b0" font-size="9" text-anchor="middle">12 matches · 75% W</text>
      </g>
      <g transform="translate(140 80)">
        <rect width="116" height="70" rx="6" fill="#0f0f2e" stroke="#3a3a5a"/>
        <text x="58" y="20" fill="#dcdcdc" font-size="11" font-weight="700" text-anchor="middle">de_inferno</text>
        <text x="58" y="40" fill="#ff9900" font-size="20" font-weight="700" text-anchor="middle">1.04</text>
        <text x="58" y="58" fill="#a0a0b0" font-size="9" text-anchor="middle">8 matches · 50% W</text>
      </g>
      <g transform="translate(264 80)">
        <rect width="116" height="70" rx="6" fill="#0f0f2e" stroke="#3a3a5a"/>
        <text x="58" y="20" fill="#dcdcdc" font-size="11" font-weight="700" text-anchor="middle">de_nuke</text>
        <text x="58" y="40" fill="#f54236" font-size="20" font-weight="700" text-anchor="middle">0.84</text>
        <text x="58" y="58" fill="#a0a0b0" font-size="9" text-anchor="middle">5 matches · 20% W</text>
      </g>
      <g transform="translate(16 158)">
        <rect width="116" height="70" rx="6" fill="#0f0f2e" stroke="#3a3a5a"/>
        <text x="58" y="20" fill="#dcdcdc" font-size="11" font-weight="700" text-anchor="middle">de_ancient</text>
        <text x="58" y="40" fill="#4db04f" font-size="20" font-weight="700" text-anchor="middle">1.18</text>
        <text x="58" y="58" fill="#a0a0b0" font-size="9" text-anchor="middle">6 matches · 67% W</text>
      </g>
      <g transform="translate(140 158)">
        <rect width="116" height="70" rx="6" fill="#0f0f2e" stroke="#3a3a5a"/>
        <text x="58" y="20" fill="#dcdcdc" font-size="11" font-weight="700" text-anchor="middle">de_dust2</text>
        <text x="58" y="40" fill="#ff9900" font-size="20" font-weight="700" text-anchor="middle">0.98</text>
        <text x="58" y="58" fill="#a0a0b0" font-size="9" text-anchor="middle">9 matches · 44% W</text>
      </g>
      <g transform="translate(264 158)">
        <rect width="116" height="70" rx="6" fill="#0f0f2e" stroke="#3a3a5a"/>
        <text x="58" y="20" fill="#dcdcdc" font-size="11" font-weight="700" text-anchor="middle">de_anubis</text>
        <text x="58" y="40" fill="#ff9900" font-size="20" font-weight="700" text-anchor="middle">1.07</text>
        <text x="58" y="58" fill="#a0a0b0" font-size="9" text-anchor="middle">4 matches · 50% W</text>
      </g>
    </g>

    <!-- Rating text explainer -->
    <text x="20" y="256" fill="#a0a0b0" font-size="10">rating_color(val): &gt;1.10 green · 0.90–1.10 yellow · &lt;0.90 red</text>
    <text x="20" y="276" fill="#3a3a5a" font-size="10" font-family="'JetBrains Mono', monospace">QChartView omitted → segfault-safe on Linux Mesa</text>
    <text x="20" y="326" fill="#3a3a5a" font-size="10" font-family="'JetBrains Mono', monospace">performance_screen.py _build_per_map_grid()</text>
  </g>

  <!-- Footer -->
  <text x="60" y="858" fill="#3a3a5a" font-size="10" font-family="'JetBrains Mono', monospace">All charts read design_tokens.get_tokens() · background brush swaps with theme</text>
</svg>
