<svg xmlns="http://www.w3.org/2000/svg" viewBox="0 0 1440 900" font-family="Inter, 'Segoe UI', system-ui, sans-serif">
  <rect width="1440" height="900" fill="#0b0b14"/>

  <defs>
    <marker id="a38" viewBox="0 0 10 10" refX="9" refY="5" markerWidth="7" markerHeight="7" orient="auto">
      <path d="M0 0 L10 5 L0 10 Z" fill="#d96600"/>
    </marker>
    <linearGradient id="stream1" x1="0" y1="0" x2="1" y2="0">
      <stop offset="0%" stop-color="#d96600" stop-opacity="0.35"/>
      <stop offset="100%" stop-color="#d96600" stop-opacity="0"/>
    </linearGradient>
    <linearGradient id="stream2" x1="0" y1="0" x2="1" y2="0">
      <stop offset="0%" stop-color="#4a9eff" stop-opacity="0.35"/>
      <stop offset="100%" stop-color="#4a9eff" stop-opacity="0"/>
    </linearGradient>
    <linearGradient id="stream3" x1="0" y1="0" x2="1" y2="0">
      <stop offset="0%" stop-color="#00ccff" stop-opacity="0.35"/>
      <stop offset="100%" stop-color="#00ccff" stop-opacity="0"/>
    </linearGradient>
  </defs>

  <text x="60" y="50" fill="#dcdcdc" font-size="24" font-weight="700">RAP · Perception Layer — 3 parallel CNN streams</text>
  <text x="60" y="74" fill="#a0a0b0" font-size="13">backend/nn/experimental/rap_coach/perception.py · RAPPerception · ventral + dorsal + temporal</text>
  <text x="60" y="94" fill="#3a3a5a" font-size="11" font-family="'JetBrains Mono', monospace">return torch.cat([z_view, z_map, z_motion], dim=1) → [B, 128]</text>

  <!-- ═══ Stream headers ═══ -->
  <g transform="translate(60 118)">
    <!-- VENTRAL / VIEW -->
    <g transform="translate(0 0)">
      <rect width="420" height="38" rx="8" fill="url(#stream1)"/>
      <rect width="4" height="38" rx="2" fill="#d96600"/>
      <text x="20" y="18" fill="#d96600" font-size="10" font-weight="700" font-family="'JetBrains Mono', monospace" letter-spacing="1.2">STREAM 1 · VENTRAL</text>
      <text x="20" y="32" fill="#dcdcdc" font-size="13" font-weight="700">view_backbone · 1st-person RGB</text>
    </g>
    <!-- DORSAL / MAP -->
    <g transform="translate(450 0)">
      <rect width="420" height="38" rx="8" fill="url(#stream2)"/>
      <rect width="4" height="38" rx="2" fill="#4a9eff"/>
      <text x="20" y="18" fill="#4a9eff" font-size="10" font-weight="700" font-family="'JetBrains Mono', monospace" letter-spacing="1.2">STREAM 2 · DORSAL</text>
      <text x="20" y="32" fill="#dcdcdc" font-size="13" font-weight="700">map_backbone · tactical minimap</text>
    </g>
    <!-- TEMPORAL / MOTION -->
    <g transform="translate(900 0)">
      <rect width="420" height="38" rx="8" fill="url(#stream3)"/>
      <rect width="4" height="38" rx="2" fill="#00ccff"/>
      <text x="20" y="18" fill="#00ccff" font-size="10" font-weight="700" font-family="'JetBrains Mono', monospace" letter-spacing="1.2">STREAM 3 · TEMPORAL</text>
      <text x="20" y="32" fill="#dcdcdc" font-size="13" font-weight="700">motion_conv · frame Δ flow</text>
    </g>
  </g>

  <!-- ═══ Stream 1: VIEW ═══ -->
  <g transform="translate(60 170)">
    <rect width="420" height="500" rx="10" fill="#1a1a2e" stroke="#3a3a5a"/>

    <!-- Input frame -->
    <g transform="translate(110 24)">
      <rect width="200" height="120" rx="4" fill="#0f0f2e" stroke="#d96600" stroke-width="1"/>
      <!-- crosshair + HUD mock -->
      <rect x="70" y="50" width="60" height="20" fill="none" stroke="rgba(217,102,0,0.4)" stroke-width="0.6"/>
      <circle cx="100" cy="60" r="2" fill="#d96600"/>
      <line x1="95" y1="60" x2="105" y2="60" stroke="#d96600" stroke-width="1"/>
      <line x1="100" y1="55" x2="100" y2="65" stroke="#d96600" stroke-width="1"/>
      <!-- orange wall silhouette -->
      <rect x="10" y="80" width="180" height="30" fill="rgba(217,102,0,0.2)"/>
      <!-- HUD numbers -->
      <rect x="20" y="20" width="36" height="10" fill="#d96600" opacity="0.7"/>
      <rect x="154" y="20" width="26" height="10" fill="rgba(217,102,0,0.5)"/>
      <text x="100" y="135" fill="#a0a0b0" font-size="10" text-anchor="middle" font-family="'JetBrains Mono', monospace">view_frame [B,3,64,64]</text>
    </g>

    <!-- Arrow -->
    <line x1="210" y1="160" x2="210" y2="178" stroke="#d96600" stroke-width="1.8" marker-end="url(#a38)"/>

    <!-- ResNet stack [1,2,2,1] = 6 blocks -->
    <g transform="translate(40 188)">
      <text fill="#3a3a5a" font-size="10" font-family="'JetBrains Mono', monospace">_make_resnet_stack(3, 64, [1,2,2,1]) · 6 ResBlocks</text>
      <g transform="translate(0 12)">
        <!-- 6 blocks with progressive shrink  -->
        <rect width="340" height="26" rx="3" fill="#0f0f2e" stroke="#d96600"/>
        <text x="12" y="18" fill="#dcdcdc" font-size="11" font-weight="600">ResBlock · stride=2</text>
        <text x="328" y="18" fill="#d96600" font-size="10" font-family="'JetBrains Mono', monospace" text-anchor="end">32×32</text>
      </g>
      <g transform="translate(0 42)">
        <rect width="340" height="26" rx="3" fill="#0f0f2e" stroke="#d96600"/>
        <text x="12" y="18" fill="#dcdcdc" font-size="11" font-weight="600">ResBlock · stride=1</text>
        <text x="328" y="18" fill="#d96600" font-size="10" font-family="'JetBrains Mono', monospace" text-anchor="end">32×32</text>
      </g>
      <g transform="translate(0 72)">
        <rect width="340" height="26" rx="3" fill="#0f0f2e" stroke="#d96600"/>
        <text x="12" y="18" fill="#dcdcdc" font-size="11" font-weight="600">ResBlock · stride=1</text>
        <text x="328" y="18" fill="#d96600" font-size="10" font-family="'JetBrains Mono', monospace" text-anchor="end">32×32</text>
      </g>
      <g transform="translate(0 102)">
        <rect width="340" height="26" rx="3" fill="#0f0f2e" stroke="#d96600"/>
        <text x="12" y="18" fill="#dcdcdc" font-size="11" font-weight="600">ResBlock · stride=1</text>
        <text x="328" y="18" fill="#d96600" font-size="10" font-family="'JetBrains Mono', monospace" text-anchor="end">32×32</text>
      </g>
      <g transform="translate(0 132)">
        <rect width="340" height="26" rx="3" fill="#0f0f2e" stroke="#d96600"/>
        <text x="12" y="18" fill="#dcdcdc" font-size="11" font-weight="600">ResBlock · stride=1</text>
        <text x="328" y="18" fill="#d96600" font-size="10" font-family="'JetBrains Mono', monospace" text-anchor="end">32×32</text>
      </g>
      <g transform="translate(0 162)">
        <rect width="340" height="26" rx="3" fill="#0f0f2e" stroke="#d96600"/>
        <text x="12" y="18" fill="#dcdcdc" font-size="11" font-weight="600">ResBlock · stride=1</text>
        <text x="328" y="18" fill="#d96600" font-size="10" font-family="'JetBrains Mono', monospace" text-anchor="end">32×32</text>
      </g>
    </g>

    <!-- Pool -->
    <g transform="translate(100 394)">
      <rect width="220" height="28" rx="3" fill="#d96600"/>
      <text x="110" y="18" fill="#ffffff" font-size="11" font-weight="700" text-anchor="middle" font-family="'JetBrains Mono', monospace">AdaptiveAvgPool2d((1,1)) + flatten</text>
    </g>
    <line x1="210" y1="438" x2="210" y2="458" stroke="#d96600" stroke-width="1.8" marker-end="url(#a38)"/>

    <!-- Output -->
    <g transform="translate(100 460)">
      <rect width="220" height="32" rx="6" fill="#0f0f2e" stroke="#d96600" stroke-width="1.5"/>
      <text x="110" y="20" fill="#d96600" font-size="12" font-weight="700" text-anchor="middle" font-family="'JetBrains Mono', monospace">z_view [B, 64]</text>
    </g>
  </g>

  <!-- ═══ Stream 2: MAP ═══ -->
  <g transform="translate(510 170)">
    <rect width="420" height="500" rx="10" fill="#1a1a2e" stroke="#3a3a5a"/>

    <g transform="translate(110 24)">
      <rect width="200" height="120" rx="4" fill="#0f0f2e" stroke="#4a9eff" stroke-width="1"/>
      <!-- Mirage minimap sketch -->
      <rect x="40" y="20" width="50" height="50" fill="none" stroke="rgba(74,158,255,0.5)" stroke-width="1"/>
      <rect x="120" y="30" width="40" height="40" fill="none" stroke="rgba(74,158,255,0.5)" stroke-width="1"/>
      <rect x="20" y="85" width="160" height="22" fill="none" stroke="rgba(74,158,255,0.4)"/>
      <!-- players -->
      <circle cx="50" cy="40" r="2.5" fill="#4a9eff"/>
      <circle cx="70" cy="55" r="2.5" fill="#4a9eff"/>
      <circle cx="130" cy="50" r="2.5" fill="#ff9933"/>
      <circle cx="150" cy="58" r="2.5" fill="#ff9933"/>
      <circle cx="100" cy="95" r="2.5" fill="#4a9eff"/>
      <!-- bomb -->
      <circle cx="80" cy="42" r="1.8" fill="#ff4444"/>
      <text x="100" y="135" fill="#a0a0b0" font-size="10" text-anchor="middle" font-family="'JetBrains Mono', monospace">map_frame [B,3,64,64]</text>
    </g>

    <line x1="210" y1="160" x2="210" y2="178" stroke="#4a9eff" stroke-width="1.8"/>

    <g transform="translate(40 188)">
      <text fill="#3a3a5a" font-size="10" font-family="'JetBrains Mono', monospace">_make_resnet_stack(3, 32, [2,2]) · 4 ResBlocks</text>
      <g transform="translate(0 12)">
        <rect width="340" height="26" rx="3" fill="#0f0f2e" stroke="#4a9eff"/>
        <text x="12" y="18" fill="#dcdcdc" font-size="11" font-weight="600">ResBlock · stride=2</text>
        <text x="328" y="18" fill="#4a9eff" font-size="10" font-family="'JetBrains Mono', monospace" text-anchor="end">32×32</text>
      </g>
      <g transform="translate(0 42)">
        <rect width="340" height="26" rx="3" fill="#0f0f2e" stroke="#4a9eff"/>
        <text x="12" y="18" fill="#dcdcdc" font-size="11" font-weight="600">ResBlock · stride=1</text>
        <text x="328" y="18" fill="#4a9eff" font-size="10" font-family="'JetBrains Mono', monospace" text-anchor="end">32×32</text>
      </g>
      <g transform="translate(0 72)">
        <rect width="340" height="26" rx="3" fill="#0f0f2e" stroke="#4a9eff"/>
        <text x="12" y="18" fill="#dcdcdc" font-size="11" font-weight="600">ResBlock · stride=1</text>
        <text x="328" y="18" fill="#4a9eff" font-size="10" font-family="'JetBrains Mono', monospace" text-anchor="end">32×32</text>
      </g>
      <g transform="translate(0 102)">
        <rect width="340" height="26" rx="3" fill="#0f0f2e" stroke="#4a9eff"/>
        <text x="12" y="18" fill="#dcdcdc" font-size="11" font-weight="600">ResBlock · stride=1</text>
        <text x="328" y="18" fill="#4a9eff" font-size="10" font-family="'JetBrains Mono', monospace" text-anchor="end">32×32</text>
      </g>
      <g transform="translate(0 140)" fill="#3a3a5a" font-family="'JetBrains Mono', monospace" font-size="10">
        <text>_(shallower than ventral — map is sparser)_</text>
      </g>
    </g>

    <g transform="translate(100 394)">
      <rect width="220" height="28" rx="3" fill="#4a9eff"/>
      <text x="110" y="18" fill="#ffffff" font-size="11" font-weight="700" text-anchor="middle" font-family="'JetBrains Mono', monospace">AdaptiveAvgPool2d((1,1)) + flatten</text>
    </g>
    <line x1="210" y1="438" x2="210" y2="458" stroke="#4a9eff" stroke-width="1.8"/>

    <g transform="translate(100 460)">
      <rect width="220" height="32" rx="6" fill="#0f0f2e" stroke="#4a9eff" stroke-width="1.5"/>
      <text x="110" y="20" fill="#4a9eff" font-size="12" font-weight="700" text-anchor="middle" font-family="'JetBrains Mono', monospace">z_map [B, 32]</text>
    </g>
  </g>

  <!-- ═══ Stream 3: MOTION ═══ -->
  <g transform="translate(960 170)">
    <rect width="420" height="500" rx="10" fill="#1a1a2e" stroke="#3a3a5a"/>

    <g transform="translate(110 24)">
      <rect width="200" height="120" rx="4" fill="#0f0f2e" stroke="#00ccff" stroke-width="1"/>
      <!-- flow arrows -->
      <g stroke="#00ccff" stroke-width="1.2" fill="none" opacity="0.75">
        <path d="M20 30 Q60 20 100 35"/>
        <path d="M20 50 Q60 40 100 55"/>
        <path d="M20 70 Q60 60 100 75"/>
        <path d="M20 90 Q60 80 100 95"/>
      </g>
      <g fill="#00ccff">
        <polygon points="100,32 108,35 100,38"/>
        <polygon points="100,52 108,55 100,58"/>
        <polygon points="100,72 108,75 100,78"/>
        <polygon points="100,92 108,95 100,98"/>
      </g>
      <g stroke="rgba(0,204,255,0.5)" stroke-width="0.8" fill="none">
        <path d="M120 30 Q150 60 180 35"/>
        <path d="M130 80 Q150 90 180 80"/>
      </g>
      <text x="100" y="135" fill="#a0a0b0" font-size="10" text-anchor="middle" font-family="'JetBrains Mono', monospace">motion_diff [B,3,64,64]</text>
    </g>

    <line x1="210" y1="160" x2="210" y2="178" stroke="#00ccff" stroke-width="1.8"/>

    <g transform="translate(40 188)">
      <text fill="#3a3a5a" font-size="10" font-family="'JetBrains Mono', monospace">nn.Sequential · 2 Conv2d + pool</text>
      <g transform="translate(0 12)">
        <rect width="340" height="26" rx="3" fill="#0f0f2e" stroke="#00ccff"/>
        <text x="12" y="18" fill="#dcdcdc" font-size="11" font-weight="600">Conv2d(3, 16, k=3, pad=1)</text>
        <text x="328" y="18" fill="#00ccff" font-size="10" font-family="'JetBrains Mono', monospace" text-anchor="end">64×64</text>
      </g>
      <g transform="translate(0 42)">
        <rect width="340" height="26" rx="3" fill="#0f0f2e" stroke="#00ccff"/>
        <text x="12" y="18" fill="#dcdcdc" font-size="11" font-weight="600">ReLU</text>
      </g>
      <g transform="translate(0 72)">
        <rect width="340" height="26" rx="3" fill="#0f0f2e" stroke="#00ccff"/>
        <text x="12" y="18" fill="#dcdcdc" font-size="11" font-weight="600">MaxPool2d(2)</text>
        <text x="328" y="18" fill="#00ccff" font-size="10" font-family="'JetBrains Mono', monospace" text-anchor="end">32×32</text>
      </g>
      <g transform="translate(0 102)">
        <rect width="340" height="26" rx="3" fill="#0f0f2e" stroke="#00ccff"/>
        <text x="12" y="18" fill="#dcdcdc" font-size="11" font-weight="600">Conv2d(16, 32, k=3, pad=1)</text>
        <text x="328" y="18" fill="#00ccff" font-size="10" font-family="'JetBrains Mono', monospace" text-anchor="end">32×32</text>
      </g>
      <g transform="translate(0 132)">
        <rect width="340" height="26" rx="3" fill="#0f0f2e" stroke="#00ccff"/>
        <text x="12" y="18" fill="#dcdcdc" font-size="11" font-weight="600">ReLU</text>
      </g>
      <g transform="translate(0 162)">
        <rect width="340" height="26" rx="3" fill="#0f0f2e" stroke="#00ccff"/>
        <text x="12" y="18" fill="#dcdcdc" font-size="11" font-weight="600">AdaptiveAvgPool2d((1,1))</text>
      </g>
    </g>

    <g transform="translate(100 394)">
      <rect width="220" height="28" rx="3" fill="#00ccff"/>
      <text x="110" y="18" fill="#14141e" font-size="11" font-weight="700" text-anchor="middle" font-family="'JetBrains Mono', monospace">.flatten(1)</text>
    </g>
    <line x1="210" y1="438" x2="210" y2="458" stroke="#00ccff" stroke-width="1.8"/>

    <g transform="translate(100 460)">
      <rect width="220" height="32" rx="6" fill="#0f0f2e" stroke="#00ccff" stroke-width="1.5"/>
      <text x="110" y="20" fill="#00ccff" font-size="12" font-weight="700" text-anchor="middle" font-family="'JetBrains Mono', monospace">z_motion [B, 32]</text>
    </g>
  </g>

  <!-- ═══ Concat footer ═══ -->
  <g transform="translate(60 682)">
    <!-- converging lines -->
    <path d="M270 0 L660 60" stroke="#d96600" stroke-width="1.5" fill="none" opacity="0.7"/>
    <path d="M720 0 L720 60" stroke="#4a9eff" stroke-width="1.5" fill="none" opacity="0.7"/>
    <path d="M1170 0 L780 60" stroke="#00ccff" stroke-width="1.5" fill="none" opacity="0.7"/>

    <rect x="540" y="62" width="360" height="52" rx="8" fill="#1a1a2e" stroke="#d96600" stroke-width="1.5"/>
    <text x="720" y="82" fill="#d96600" font-size="12" font-weight="700" text-anchor="middle" font-family="'JetBrains Mono', monospace">torch.cat([z_view, z_map, z_motion], dim=1)</text>
    <text x="720" y="102" fill="#dcdcdc" font-size="11" text-anchor="middle">64 + 32 + 32 = 128 dims</text>

    <!-- arrow -->
    <line x1="720" y1="118" x2="720" y2="132" stroke="#d96600" stroke-width="2" marker-end="url(#a38)"/>

    <rect x="580" y="134" width="280" height="36" rx="8" fill="#0f0f2e" stroke="#d96600" stroke-width="1.5"/>
    <text x="720" y="158" fill="#d96600" font-size="14" font-weight="700" text-anchor="middle" font-family="'JetBrains Mono', monospace">z_spatial [B, T, 128]</text>
  </g>

  <text x="720" y="876" fill="#3a3a5a" font-size="10" font-family="'JetBrains Mono', monospace" text-anchor="middle">RAPPerception · two-streams hypothesis (Milner &amp; Goodale 1992) · feeds Memory via lstm_in = cat([z_spatial, metadata], dim=2)</text>
</svg>
