<svg xmlns="http://www.w3.org/2000/svg" viewBox="0 0 1440 900" font-family="Inter, &#39;Segoe UI&#39;, system-ui, sans-serif">
  <defs>
    <linearGradient id="bg02" x1="0" x2="0" y1="0" y2="1">
      <stop offset="0%" stop-color="#14141e"></stop>
      <stop offset="100%" stop-color="#0b0b14"></stop>
    </linearGradient>
    <radialGradient id="spot02" cx="0.8" cy="0.4" r="0.6">
      <stop offset="0%" stop-color="#d96600" stop-opacity="0.3"></stop>
      <stop offset="100%" stop-color="#d96600" stop-opacity="0"></stop>
    </radialGradient>
  </defs>

  <rect width="1440" height="900" fill="url(#bg02)"></rect>
  <ellipse cx="1100" cy="300" rx="440" ry="300" fill="url(#spot02)"></ellipse>


  <g stroke="rgba(58,58,90,0.12)" stroke-width="0.5">
    <line x1="0" y1="200" x2="1440" y2="200"></line>
    <line x1="0" y1="400" x2="1440" y2="400"></line>
    <line x1="0" y1="600" x2="1440" y2="600"></line>
    <line x1="0" y1="800" x2="1440" y2="800"></line>
  </g>


  <g transform="translate(60 44)">
    <g>
      <circle cx="18" cy="18" r="14" fill="none" stroke="#d96600" stroke-width="1.5"></circle>
      <text x="18" y="22" fill="#d96600" font-size="13" font-weight="800" text-anchor="middle" font-family="&#39;JetBrains Mono&#39;, monospace">M</text>
    </g>
    <text x="48" y="14" fill="#dcdcdc" font-size="11" font-weight="700" letter-spacing="2">MACENA</text>
    <text x="48" y="28" fill="#a0a0b0" font-size="10" font-family="&#39;JetBrains Mono&#39;, monospace">cs2-analyzer</text>

    <g transform="translate(460 10)" fill="#a0a0b0" font-size="12">
      <text x="0" y="14">features</text>
      <text x="90" y="14">architecture</text>
      <text x="200" y="14">docs</text>
      <text x="260" y="14">github</text>
    </g>

    <g transform="translate(1220 4)">
      <rect width="100" height="32" rx="6" fill="#d96600"></rect>
      <text x="50" y="21" fill="#ffffff" font-size="12" font-weight="700" text-anchor="middle">DOWNLOAD</text>
    </g>
  </g>


  <g transform="translate(60 160)">

    <g>
      <rect width="220" height="30" rx="15" fill="rgba(217,102,0,0.15)" stroke="#d96600" stroke-width="0.6"></rect>
      <circle cx="18" cy="15" r="4" fill="#d96600"></circle>
      <text x="32" y="19" fill="#d96600" font-size="11" font-weight="700" letter-spacing="1.5">DESKTOP · OFFLINE</text>
    </g>

    <text y="92" fill="#dcdcdc" font-size="72" font-weight="800" letter-spacing="-2">The coaching AI</text>
    <text y="172" fill="#dcdcdc" font-size="72" font-weight="800" letter-spacing="-2">that analyzes</text>
    <text y="252" fill="#d96600" font-size="72" font-weight="800" letter-spacing="-2">your demos,</text>
    <text y="332" fill="#dcdcdc" font-size="72" font-weight="800" letter-spacing="-2">not your data.</text>

    <text y="392" fill="#a0a0b0" font-size="17" font-weight="300">Drop a .dem file. Get per-round insights,</text>
    <text y="416" fill="#a0a0b0" font-size="17" font-weight="300">professional comparison, positional shadows,</text>
    <text y="440" fill="#a0a0b0" font-size="17" font-weight="300">and a neural coach that improves with your skill.</text>


    <g transform="translate(0 478)">
      <rect width="180" height="46" rx="6" fill="#d96600"></rect>
      <text x="90" y="30" fill="#ffffff" font-size="13" font-weight="700" text-anchor="middle" letter-spacing="1">ANALYZE A DEMO →</text>

      <rect x="196" width="180" height="46" rx="6" fill="none" stroke="#3a3a5a" stroke-width="1"></rect>
      <text x="286" y="30" fill="#dcdcdc" font-size="13" font-weight="700" text-anchor="middle" letter-spacing="1">READ THE ARCH</text>
    </g>


    <g transform="translate(0 554)">
      <text fill="#3a3a5a" font-size="10" font-family="&#39;JetBrains Mono&#39;, monospace" letter-spacing="1.5">BUILT ON</text>
      <g transform="translate(0 16)" font-family="&#39;JetBrains Mono&#39;, monospace" font-size="12">
        <text fill="#a0a0b0">PySide6</text>
        <text x="80" fill="#a0a0b0">PyTorch</text>
        <text x="160" fill="#a0a0b0">demoparser2</text>
        <text x="268" fill="#a0a0b0">SQLite-WAL</text>
        <text x="356" fill="#a0a0b0">Alembic</text>
      </g>
    </g>
  </g>


  <g transform="translate(780 160)">

    <rect width="600" height="560" rx="12" fill="#0f0f1e" stroke="#3a3a5a" stroke-width="1"></rect>
    <rect width="600" height="34" rx="12" fill="#14141e"></rect>
    <rect y="22" width="600" height="12" fill="#14141e"></rect>
    <g transform="translate(16 17)">
      <circle cx="0" cy="0" r="5" fill="#ff4444"></circle>
      <circle cx="16" cy="0" r="5" fill="#ffaa00"></circle>
      <circle cx="32" cy="0" r="5" fill="#4db04f"></circle>
    </g>
    <text x="300" y="22" fill="#a0a0b0" font-size="11" text-anchor="middle" font-family="&#39;JetBrains Mono&#39;, monospace">macena · cs2-analyzer</text>



    <rect x="0" y="34" width="110" height="526" fill="#0f0f2e"></rect>
    <g transform="translate(8 50)">
      <rect width="94" height="32" rx="4" fill="rgba(217,102,0,0.25)" stroke="#d96600" stroke-width="0.8"></rect>
      <rect width="3" height="32" rx="1.5" fill="#d96600"></rect>
      <text x="16" y="20" fill="#d96600" font-size="10" font-weight="700">HOME</text>
      <g transform="translate(0 40)" stroke="#a0a0b0" stroke-width="1" fill="none" opacity="0.8">
        <rect width="94" height="26" rx="4"></rect>
        <rect y="32" width="94" height="26" rx="4"></rect>
        <rect y="64" width="94" height="26" rx="4"></rect>
        <rect y="96" width="94" height="26" rx="4"></rect>
        <rect y="128" width="94" height="26" rx="4"></rect>
      </g>
    </g>


    <g transform="translate(126 52)">
      <text fill="#a0a0b0" font-size="10" font-family="&#39;JetBrains Mono&#39;, monospace" letter-spacing="1.2">COACH</text>
      <text y="22" fill="#dcdcdc" font-size="16" font-weight="700">de_mirage · Round 14</text>


      <g transform="translate(0 40)">
        <rect width="458" height="120" rx="8" fill="#1a1a2e" stroke="#3a3a5a"></rect>
        <g transform="translate(20 20)">
          <circle cx="40" cy="40" r="36" fill="none" stroke="#0f0f2e" stroke-width="7"></circle>
          <circle cx="40" cy="40" r="36" fill="none" stroke="#d96600" stroke-width="7" stroke-linecap="round" stroke-dasharray="165.12 61.07" transform="rotate(-90 40 40) scale(1 -1) translate(0 -80)"></circle>
          <text x="40" y="44" fill="#dcdcdc" font-size="14" font-weight="700" text-anchor="middle">73%</text>
        </g>
        <g transform="translate(120 20)">
          <text fill="#dcdcdc" font-size="12" font-weight="700">Positioning belief</text>
          <text y="18" fill="#a0a0b0" font-size="10">A-site connector · holding close angle</text>
          <text y="38" fill="#4db04f" font-size="11" font-weight="700">▲ 12 pts vs last 4 matches</text>
          <text y="56" fill="#a0a0b0" font-size="10">ZywOo avg here: 81% (pro shadow)</text>
        </g>
        <rect x="410" y="22" width="36" height="16" rx="3" fill="#d96600"></rect>
        <text x="428" y="34" fill="#ffffff" font-size="9" font-weight="700" text-anchor="middle">PRO</text>
      </g>


      <g transform="translate(0 174)">
        <text fill="#a0a0b0" font-size="10" font-family="&#39;JetBrains Mono&#39;, monospace" letter-spacing="1.2">INSIGHTS</text>
        <g transform="translate(0 16)">
          <rect width="458" height="32" rx="4" fill="#1a1a2e" stroke="#3a3a5a"></rect>
          <circle cx="16" cy="16" r="5" fill="#4db04f"></circle>
          <text x="30" y="14" fill="#dcdcdc" font-size="11" font-weight="700">Utility conversion up 22%</text>
          <text x="30" y="26" fill="#a0a0b0" font-size="10">flashes landing closer to peek apex</text>
        </g>
        <g transform="translate(0 52)">
          <rect width="458" height="32" rx="4" fill="#1a1a2e" stroke="#3a3a5a"></rect>
          <circle cx="16" cy="16" r="5" fill="#ffaa00"></circle>
          <text x="30" y="14" fill="#dcdcdc" font-size="11" font-weight="700">Early aggression: A-short</text>
          <text x="30" y="26" fill="#a0a0b0" font-size="10">entered 0.8s before team avg — over-rotation risk</text>
        </g>
        <g transform="translate(0 88)">
          <rect width="458" height="32" rx="4" fill="#1a1a2e" stroke="#3a3a5a"></rect>
          <circle cx="16" cy="16" r="5" fill="#ff4444"></circle>
          <text x="30" y="14" fill="#dcdcdc" font-size="11" font-weight="700">Crosshair below head 18%</text>
          <text x="30" y="26" fill="#a0a0b0" font-size="10">drag angle increases TTK — aim drills @ lvl 7</text>
        </g>
      </g>


      <g transform="translate(0 310)">
        <rect width="458" height="140" rx="8" fill="#1a1a2e" stroke="#3a3a5a"></rect>
        <text x="16" y="22" fill="#dcdcdc" font-size="12" font-weight="700">Rating trend · 12 matches</text>
        <line x1="32" y1="104" x2="442" y2="104" stroke="rgba(255,255,255,0.25)" stroke-dasharray="2 2"></line>
        <path d="M40 88 L80 78 L120 82 L160 72 L200 74 L240 62 L280 58 L320 48 L360 60 L400 52 L440 44" fill="none" stroke="#00ccff" stroke-width="2"></path>
        <g fill="#00ccff">
          <circle cx="40" cy="88" r="2.5"></circle><circle cx="80" cy="78" r="2.5"></circle>
          <circle cx="120" cy="82" r="2.5"></circle><circle cx="160" cy="72" r="2.5"></circle>
          <circle cx="200" cy="74" r="2.5"></circle><circle cx="240" cy="62" r="2.5"></circle>
          <circle cx="280" cy="58" r="2.5"></circle><circle cx="320" cy="48" r="2.5"></circle>
          <circle cx="360" cy="60" r="2.5"></circle><circle cx="400" cy="52" r="2.5"></circle>
          <circle cx="440" cy="44" r="3.5"></circle>
        </g>
        <text x="444" y="48" fill="#4db04f" font-size="11" font-weight="700">1.28</text>
      </g>
    </g>
  </g>


  <g transform="translate(60 770)">
    <rect width="1320" height="70" rx="10" fill="rgba(26,26,46,0.6)" stroke="#3a3a5a"></rect>
    <g transform="translate(36 20)">
      <text fill="#d96600" font-size="24" font-weight="800">100%</text>
      <text y="24" fill="#a0a0b0" font-size="11">offline · zero cloud</text>
    </g>
    <line x1="300" y1="16" x2="300" y2="54" stroke="#3a3a5a"></line>
    <g transform="translate(336 20)">
      <text fill="#d96600" font-size="24" font-weight="800">25</text>
      <text y="24" fill="#a0a0b0" font-size="11">feature dims · no leakage</text>
    </g>
    <line x1="600" y1="16" x2="600" y2="54" stroke="#3a3a5a"></line>
    <g transform="translate(636 20)">
      <text fill="#d96600" font-size="24" font-weight="800">7</text>
      <text y="24" fill="#a0a0b0" font-size="11">RAP layers · self-correcting</text>
    </g>
    <line x1="900" y1="16" x2="900" y2="54" stroke="#3a3a5a"></line>
    <g transform="translate(936 20)">
      <text fill="#d96600" font-size="24" font-weight="800">3</text>
      <text y="24" fill="#a0a0b0" font-size="11">themes · CS2 · CSGO · CS1.6</text>
    </g>
  </g>


  <text x="60" y="876" fill="#3a3a5a" font-size="11" font-family="&#39;JetBrains Mono&#39;, monospace">v0.9.0 · offline-first · Py3.10+ · MIT + demoparser2</text>
</svg>
