<svg xmlns="http://www.w3.org/2000/svg" viewBox="0 0 1440 900" font-family="Roboto, Inter, system-ui, sans-serif">
  <defs>
    <symbol id="ic-home" viewBox="0 0 24 24"><path d="M12 3 L22 12 L19 12 L19 21 L5 21 L5 12 L2 12 Z M9 15 L15 15 L15 21 L9 21 Z" fill="none" stroke="currentColor" stroke-width="1.5" stroke-linejoin="round"></path></symbol>
    <symbol id="ic-brain" viewBox="0 0 24 24"><circle cx="12" cy="12" r="9" fill="none" stroke="currentColor" stroke-width="1.5"></circle><path d="M12 5 L12 19 M12 8 C7 6 5 11 12 12 M12 12 C17 11 19 16 12 16" fill="none" stroke="currentColor" stroke-width="1.5" stroke-linecap="round"></path></symbol>
    <symbol id="ic-list" viewBox="0 0 24 24"><path d="M4 6 L20 6 M4 12 L20 12 M4 18 L20 18" fill="none" stroke="currentColor" stroke-width="1.5" stroke-linecap="round"></path><circle cx="2.5" cy="6" r="1.5" fill="currentColor"></circle><circle cx="2.5" cy="12" r="1.5" fill="currentColor"></circle><circle cx="2.5" cy="18" r="1.5" fill="currentColor"></circle></symbol>
    <symbol id="ic-chart" viewBox="0 0 24 24"><rect x="3" y="14" width="5" height="8" fill="none" stroke="currentColor" stroke-width="1.5"></rect><rect x="10" y="8" width="5" height="14" fill="none" stroke="currentColor" stroke-width="1.5"></rect><rect x="17" y="3" width="5" height="19" fill="none" stroke="currentColor" stroke-width="1.5"></rect></symbol>
    <symbol id="ic-cross" viewBox="0 0 24 24"><circle cx="12" cy="12" r="8" fill="none" stroke="currentColor" stroke-width="1.5"></circle><circle cx="12" cy="12" r="3" fill="none" stroke="currentColor" stroke-width="1.5"></circle><path d="M12 1 L12 7 M12 17 L12 23 M1 12 L7 12 M17 12 L23 12" stroke="currentColor" stroke-width="1.5" stroke-linecap="round"></path></symbol>
    <symbol id="ic-gear" viewBox="0 0 24 24"><circle cx="12" cy="12" r="4" fill="none" stroke="currentColor" stroke-width="1.5"></circle><path d="M12 4 L12 7 M12 17 L12 20 M4 12 L7 12 M17 12 L20 12 M6.3 6.3 L8.5 8.5 M15.5 15.5 L17.7 17.7 M6.3 17.7 L8.5 15.5 M15.5 8.5 L17.7 6.3" stroke="currentColor" stroke-width="1.5" stroke-linecap="round"></path></symbol>
    <symbol id="ic-help" viewBox="0 0 24 24"><circle cx="12" cy="12" r="10" fill="none" stroke="currentColor" stroke-width="1.5"></circle><path d="M9 9 C9 5 15 5 15 9 C15 12 12 12 12 14" fill="none" stroke="currentColor" stroke-width="1.5" stroke-linecap="round"></path><circle cx="12" cy="18" r="1" fill="currentColor"></circle></symbol>
  </defs>

  <rect width="1440" height="900" fill="#14141e"></rect>


  <g>
    <rect width="220" height="900" fill="#0f0f2e"></rect>
    <rect x="219" width="1" height="900" fill="rgba(255,255,255,0.05)"></rect>
    <g transform="translate(176,12)"><text x="18" y="26" text-anchor="middle" fill="#a0a0b0" font-size="22">≡</text></g>
    <text x="110" y="82" text-anchor="middle" fill="#d96600" font-size="11" letter-spacing="3" font-weight="700">MACENA CS2</text>
    <g transform="translate(8,108)" font-size="13">
      <g color="#a0a0b0"><g transform="translate(12,10)"><use href="#ic-home" width="20" height="20"></use></g><text x="44" y="26" fill="#a0a0b0">Home</text></g>
      <g transform="translate(0,44)" color="#a0a0b0"><g transform="translate(12,10)"><use href="#ic-brain" width="20" height="20"></use></g><text x="44" y="26" fill="#a0a0b0">Coach</text></g>
      <g transform="translate(0,88)" color="#a0a0b0"><g transform="translate(12,10)"><use href="#ic-list" width="20" height="20"></use></g><text x="44" y="26" fill="#a0a0b0">Match History</text></g>
      <g transform="translate(0,132)" color="#a0a0b0"><g transform="translate(12,10)"><use href="#ic-chart" width="20" height="20"></use></g><text x="44" y="26" fill="#a0a0b0">Performance</text></g>
      <g transform="translate(0,176)" color="#d96600">
        <rect width="204" height="40" rx="6" fill="rgba(217,102,0,0.25)"></rect><rect width="3" height="40" fill="#d96600"></rect>
        <g transform="translate(12,10)"><use href="#ic-cross" width="20" height="20"></use></g>
        <text x="44" y="26" fill="#d96600" font-weight="600">Tactical Viewer</text>
      </g>
      <g transform="translate(0,220)" color="#a0a0b0"><g transform="translate(12,10)"><use href="#ic-gear" width="20" height="20"></use></g><text x="44" y="26" fill="#a0a0b0">Settings</text></g>
      <g transform="translate(0,264)" color="#a0a0b0"><g transform="translate(12,10)"><use href="#ic-help" width="20" height="20"></use></g><text x="44" y="26" fill="#a0a0b0">Help</text></g>
    </g>
    <text x="110" y="872" text-anchor="middle" fill="#3a3a5a" font-size="11" font-family="JetBrains Mono, monospace">v0.1.0</text>
  </g>


  <g transform="translate(220,0)">
    <rect width="1220" height="52" fill="#14141e"></rect>
    <text x="20" y="32" fill="#dcdcdc" font-size="18" font-weight="700">Tactical Analyzer — Ghost Mode</text>
    <text x="360" y="32" fill="#a855f7" font-size="12" font-family="JetBrains Mono, monospace">ghost overlay: ZywOo · same round on Mirage</text>
    <g transform="translate(1120,10)">
      <rect width="90" height="32" rx="4" fill="#d96600"></rect>
      <text x="45" y="21" text-anchor="middle" fill="#14141e" font-size="13" font-weight="700">Open Demo</text>
    </g>
  </g>


  <g transform="translate(220,52)">

    <rect width="240" height="688" fill="#0f0f1a"></rect>
    <rect x="239" width="1" height="688" fill="#2a2a3a"></rect>

    <g transform="translate(16,20)">
      <text fill="#ff9933" font-size="12" letter-spacing="2" font-weight="700">YOU · macena</text>
      <g transform="translate(0,20)">
        <rect width="208" height="68" rx="6" fill="#0f0f2e"></rect>
        <text x="12" y="20" fill="#dcdcdc" font-size="12" font-weight="700">T side · Mirage</text>
        <text x="12" y="38" fill="#a0a0b0" font-size="11">Path: T spawn → jungle → A</text>
        <text x="12" y="54" fill="#a0a0b0" font-size="11">Decision time: 4.2s @ connector</text>
      </g>

      <text y="114" fill="#a855f7" font-size="12" letter-spacing="2" font-weight="700">GHOST · ZywOo (Vitality)</text>
      <g transform="translate(0,134)">
        <rect width="208" height="68" rx="6" fill="#0f0f2e" stroke="#a855f7"></rect>
        <text x="12" y="20" fill="#dcdcdc" font-size="12" font-weight="700">Same round · ESL Paris</text>
        <text x="12" y="38" fill="#a0a0b0" font-size="11">Path: T spawn → palace → A</text>
        <text x="12" y="54" fill="#a855f7" font-size="11">Decision time: 8.7s @ palace</text>
      </g>


      <g transform="translate(0,222)">
        <rect width="208" height="210" rx="6" fill="#0f0f2e"></rect>
        <text x="12" y="20" fill="#d96600" font-size="11" letter-spacing="2" font-weight="700">DIVERGENCE ANALYSIS</text>

        <g transform="translate(12,38)" font-size="11">
          <text fill="#a0a0b0">Entry timing</text>
          <text x="180" text-anchor="end" fill="#f54236" font-weight="700">-4.5s</text>
        </g>
        <g transform="translate(12,56)" font-size="11">
          <text fill="#a0a0b0">Peek angle</text>
          <text x="180" text-anchor="end" fill="#f54236" font-weight="700">jungle vs palace</text>
        </g>
        <g transform="translate(12,74)" font-size="11">
          <text fill="#a0a0b0">Flash support</text>
          <text x="180" text-anchor="end" fill="#f54236" font-weight="700">0 vs 2</text>
        </g>
        <g transform="translate(12,92)" font-size="11">
          <text fill="#a0a0b0">Crouch ratio</text>
          <text x="180" text-anchor="end" fill="#ff9900" font-weight="700">22% vs 41%</text>
        </g>
        <g transform="translate(12,110)" font-size="11">
          <text fill="#a0a0b0">Crosshair placement</text>
          <text x="180" text-anchor="end" fill="#4db04f" font-weight="700">good</text>
        </g>
        <g transform="translate(12,128)" font-size="11">
          <text fill="#a0a0b0">Outcome</text>
          <text x="180" text-anchor="end" fill="#f54236" font-weight="700">died vs won</text>
        </g>


        <g transform="translate(12,160)">
          <text fill="#a0a0b0" font-size="10">Causal score (RAPPedagogy)</text>
          <text x="0" y="18" fill="#d96600" font-size="13" font-weight="700">0.87 positioning</text>
          <rect x="0" y="24" width="184" height="6" rx="3" fill="#0f0f2e" stroke="#3a3a5a"></rect>
          <rect x="0" y="24" width="160" height="6" rx="3" fill="#d96600"></rect>
        </g>
      </g>
    </g>
  </g>


  <g transform="translate(460,52)">
    <rect width="980" height="688" fill="#0a0a14"></rect>


    <g opacity="0.35" font-size="10" fill="#3a3a5a">
      <rect x="620" y="80" width="220" height="160" fill="none" stroke="#3a3a5a" stroke-width="1.5"></rect>
      <text x="730" y="170" text-anchor="middle" fill="#3a3a5a" font-size="20" font-weight="700">A</text>
      <rect x="840" y="150" width="60" height="50" fill="none" stroke="#3a3a5a" stroke-width="1"></rect>
      <text x="870" y="178" text-anchor="middle" fill="#3a3a5a" font-size="9">palace</text>
      <rect x="440" y="300" width="140" height="100" fill="none" stroke="#3a3a5a" stroke-width="1"></rect>
      <text x="510" y="360" text-anchor="middle" fill="#3a3a5a" font-size="11">jungle</text>
      <rect x="360" y="420" width="200" height="100" fill="none" stroke="#3a3a5a" stroke-width="1"></rect>
      <text x="460" y="476" text-anchor="middle" fill="#3a3a5a" font-size="13" font-weight="700">MID</text>
      <rect x="280" y="580" width="220" height="100" fill="none" stroke="#3a3a5a" stroke-width="1.5"></rect>
      <text x="390" y="636" text-anchor="middle" fill="#3a3a5a" font-size="20" font-weight="700">B</text>
      <rect x="100" y="80" width="180" height="120" fill="none" stroke="#3a3a5a" stroke-width="1"></rect>
      <text x="190" y="144" text-anchor="middle" fill="#3a3a5a" font-size="10">CT spawn</text>
      <rect x="720" y="600" width="180" height="80" fill="none" stroke="#3a3a5a" stroke-width="1"></rect>
      <text x="810" y="644" text-anchor="middle" fill="#3a3a5a" font-size="10">T spawn</text>
    </g>


    <g>
      <path d="M810 650 L760 540 L640 450 L560 380 L510 340 L490 300" stroke="#ff9933" stroke-width="3" fill="none"></path>
      <circle cx="490" cy="300" r="12" fill="#ff9933" stroke="#ffffff" stroke-width="2"></circle>
      <text x="490" y="284" text-anchor="middle" fill="#ffaa00" font-size="11" font-weight="700">you (died)</text>

      <g transform="translate(484,294)" stroke="#f54236" stroke-width="2">
        <path d="M0 0 L12 12"></path>
        <path d="M12 0 L0 12"></path>
      </g>
    </g>


    <g>
      <path d="M810 650 L820 560 L840 470 L860 380 L870 300 L820 230 L760 180 L700 160" stroke="#a855f7" stroke-width="3" fill="none" stroke-dasharray="6 4" opacity="0.85"></path>
      <circle cx="700" cy="160" r="12" fill="#a855f7" stroke="#ffffff" stroke-width="2"></circle>
      <text x="700" y="144" text-anchor="middle" fill="#a855f7" font-size="11" font-weight="700">ghost (won)</text>
    </g>


    <g>
      <circle cx="820" cy="560" r="14" fill="none" stroke="#d96600" stroke-width="1.5" stroke-dasharray="3 2"></circle>
      <text x="820" y="584" text-anchor="middle" fill="#d96600" font-size="10">split: +4.5s delay</text>

      <circle cx="860" cy="380" r="14" fill="none" stroke="#d96600" stroke-width="1.5" stroke-dasharray="3 2"></circle>
      <text x="860" y="404" text-anchor="middle" fill="#d96600" font-size="10">palace vs jungle</text>
    </g>


    <circle cx="640" cy="320" r="30" fill="rgba(200,200,200,0.18)" stroke="rgba(200,200,200,0.35)" stroke-dasharray="3 3"></circle>
    <text x="640" y="324" text-anchor="middle" fill="#a0a0b0" font-size="9">smoke (ghost)</text>


    <g transform="translate(16,16)">
      <rect width="220" height="80" rx="6" fill="rgba(10,10,20,0.75)"></rect>
      <text x="12" y="20" fill="#dcdcdc" font-size="11" font-weight="700">Ghost Mode Legend</text>

      <line x1="12" y1="36" x2="32" y2="36" stroke="#ff9933" stroke-width="3"></line>
      <text x="40" y="40" fill="#dcdcdc" font-size="11">your path</text>

      <line x1="12" y1="52" x2="32" y2="52" stroke="#a855f7" stroke-width="3" stroke-dasharray="4 2"></line>
      <text x="40" y="56" fill="#dcdcdc" font-size="11">ghost (pro) path</text>

      <circle cx="22" cy="68" r="5" fill="none" stroke="#d96600" stroke-width="1.5" stroke-dasharray="2 1"></circle>
      <text x="40" y="72" fill="#dcdcdc" font-size="11">divergence point</text>
    </g>


    <g transform="translate(776,16)">
      <rect width="188" height="54" rx="6" fill="rgba(10,10,20,0.75)"></rect>
      <text x="12" y="22" fill="#ff9933" font-size="12" font-weight="700">T 9</text>
      <text x="56" y="22" fill="#dcdcdc" font-size="12">—</text>
      <text x="76" y="22" fill="#4d80ff" font-size="12" font-weight="700">4 CT</text>
      <text x="12" y="44" fill="#a0a0b0" font-size="10">round 14 · 1:32 · Ghost: ESL Paris</text>
    </g>
  </g>


  <g transform="translate(220,740)">
    <rect width="1220" height="160" fill="#0f0f1a"></rect>
    <rect width="1220" height="1" fill="#2a2a3a"></rect>

    <g transform="translate(12,12)" font-size="12">
      <text x="0" y="18" fill="#a0a0b0">Ghost:</text>
      <g transform="translate(60,4)">
        <rect width="200" height="28" rx="4" fill="#1a1a2e" stroke="#a855f7"></rect>
        <text x="12" y="19" fill="#a855f7">ZywOo · Vitality · Mirage</text>
        <text x="188" y="19" text-anchor="end" fill="#a855f7">▾</text>
      </g>
      <text x="280" y="18" fill="#a0a0b0">Align method:</text>
      <g transform="translate(372,4)">
        <rect width="140" height="28" rx="4" fill="#1a1a2e" stroke="#3a3a5a"></rect>
        <text x="12" y="19" fill="#dcdcdc">round time</text>
        <text x="128" y="19" text-anchor="end" fill="#a0a0b0">▾</text>
      </g>
      <g transform="translate(1010,4)" font-size="11">
        <rect width="14" height="14" rx="2" fill="#d96600"></rect>
        <path d="M2 8 L6 12 L12 4" stroke="#14141e" stroke-width="2" fill="none"></path>
        <text x="20" y="12" fill="#dcdcdc">Ghost AI</text>
      </g>
      <g transform="translate(1108,4)" font-size="11">
        <rect width="14" height="14" rx="2" fill="#d96600"></rect>
        <path d="M2 8 L6 12 L12 4" stroke="#14141e" stroke-width="2" fill="none"></path>
        <text x="20" y="12" fill="#dcdcdc">CM marks</text>
      </g>
    </g>


    <g transform="translate(12,50)">
      <g><rect width="36" height="36" rx="4" fill="#1a1a2e" stroke="#3a3a5a"></rect><text x="18" y="23" text-anchor="middle" fill="#dcdcdc" font-size="14">|◄</text></g>
      <g transform="translate(44,0)"><rect width="50" height="36" rx="4" fill="#d96600"></rect><text x="25" y="23" text-anchor="middle" fill="#14141e" font-size="13" font-weight="700">Play</text></g>
      <g transform="translate(102,0)"><rect width="36" height="36" rx="4" fill="#1a1a2e" stroke="#3a3a5a"></rect><text x="18" y="23" text-anchor="middle" fill="#dcdcdc" font-size="14">►|</text></g>
      <g transform="translate(160,0)" font-size="12">
        <g><rect width="50" height="36" rx="4" fill="#1a1a2e" stroke="#3a3a5a"></rect><text x="25" y="23" text-anchor="middle" fill="#a0a0b0">0.5x</text></g>
        <g transform="translate(58,0)"><rect width="50" height="36" rx="4" fill="rgba(217,102,0,0.2)" stroke="#d96600"></rect><text x="25" y="23" text-anchor="middle" fill="#d96600" font-weight="700">1x</text></g>
        <g transform="translate(116,0)"><rect width="50" height="36" rx="4" fill="#1a1a2e" stroke="#3a3a5a"></rect><text x="25" y="23" text-anchor="middle" fill="#a0a0b0">2x</text></g>
        <g transform="translate(174,0)"><rect width="50" height="36" rx="4" fill="#1a1a2e" stroke="#3a3a5a"></rect><text x="25" y="23" text-anchor="middle" fill="#a0a0b0">4x</text></g>
      </g>
      <text x="460" y="23" fill="#a855f7" font-size="12" font-family="JetBrains Mono, monospace">ghost sync offset: +4.2s</text>
    </g>


    <g transform="translate(12,98)">

      <rect width="1196" height="14" rx="3" fill="#1a1a2e"></rect>
      <rect width="454" height="14" rx="3" fill="rgba(255,153,51,0.35)"></rect>
      <text x="-4" y="11" text-anchor="end" fill="#ff9933" font-size="10">YOU</text>

      <rect y="20" width="1196" height="14" rx="3" fill="#1a1a2e"></rect>
      <rect y="20" width="520" height="14" rx="3" fill="rgba(168,85,247,0.35)"></rect>
      <text x="-4" y="31" text-anchor="end" fill="#a855f7" font-size="10">GHOST</text>

      <rect x="454" y="-2" width="2" height="38" fill="#d96600"></rect>
    </g>

    <text x="12" y="150" fill="#3a3a5a" font-size="10" font-family="JetBrains Mono, monospace">RAPPedagogy.CausalAttributor · positioning 0.87 · utility 0.21 · aim 0.04 · aggression 0.12 · rotation 0.08</text>
  </g>

</svg>
